SplineFontDB: 3.0
FontName: TengwarElficaGlaemUnicode
FullName: Tengwar Elfica GlaemUnicode
FamilyName: Tengwar Elfica GlaemUnicode
Weight: Book
Copyright: (c)Copyright - 2008 - Enrique Mombello\nModified by Talagan (Benjamin Babut) for Glaemscribe
Version: 1.0.0
ItalicAngle: 0
UnderlinePosition: -125
UnderlineWidth: 100
Ascent: 1638
Descent: 410
InvalidEm: 0
sfntRevision: 0x00040042
LayerCount: 2
Layer: 0 1 "Back" 1
Layer: 1 1 "Fore" 0
XUID: [1021 413 -2007676463 7069806]
StyleMap: 0x0040
FSType: 0
OS2Version: 3
OS2_WeightWidthSlopeOnly: 0
OS2_UseTypoMetrics: 0
CreationTime: 1210392055
ModificationTime: 1515325290
PfmFamily: 17
TTFWeight: 400
TTFWidth: 5
LineGap: 0
VLineGap: 0
Panose: 2 11 5 0 0 0 0 0 0 0
OS2TypoAscent: 2021
OS2TypoAOffset: 0
OS2TypoDescent: -1520
OS2TypoDOffset: 0
OS2TypoLinegap: 0
OS2WinAscent: 2048
OS2WinAOffset: 0
OS2WinDescent: 1530
OS2WinDOffset: 0
HheadAscent: 2016
HheadAOffset: 0
HheadDescent: -1021
HheadDOffset: 0
OS2SubXSize: 1434
OS2SubYSize: 1331
OS2SubXOff: 0
OS2SubYOff: 293
OS2SupXSize: 1434
OS2SupYSize: 1331
OS2SupXOff: 0
OS2SupYOff: 928
OS2StrikeYSize: 102
OS2StrikeYPos: 530
OS2CapHeight: 1756
OS2XHeight: 902
OS2Vendor: '    '
OS2CodePages: 00000003.00000000
OS2UnicodeRanges: 0000000f.00000000.00000000.00000000
Lookup: 258 0 0 "'kern' Horizontal Kerning in Latin lookup 0" { "'kern' Horizontal Kerning in Latin lookup 0 subtable"  } ['kern' ('latn' <'dflt' > ) ]
MarkAttachClasses: 1
DEI: 91125
ShortTable: maxp 16
  1
  0
  314
  1113
  15
  0
  0
  1
  0
  0
  0
  0
  0
  0
  0
  0
EndShort
LangName: 1033 "+AKkA-Copyright - 2008 - Enrique Mombello" "" "Regular" "" "" "Version 4.1 2008" "" "" "Enrique Mombello" "Enrique Mombello" "Tengwar Font, Appendix E of LOTR style"
GaspTable: 3 8 2 16 1 65535 3 0
Encoding: UnicodeBmp
UnicodeInterp: none
NameList: AGL For New Fonts
DisplaySize: -48
AntiAlias: 1
FitToEm: 0
WinInfo: 0 23 9
BeginPrivate: 0
EndPrivate
BeginChars: 65540 329

StartChar: uniEC43
Encoding: 60483 60483 4

Width: 2
Flags: W
LayerCount: 2
Fore
SplineSet
-995 1334 m 0,0,1
 -995 1376 -995 1376 -995.5 1405 c 128,-1,2
 -996 1434 -996 1434 -996.5 1455 c 128,-1,3
 -997 1476 -997 1476 -998.5 1490 c 128,-1,4
 -1000 1504 -1000 1504 -1001 1515 c 0,5,6
 -1007 1558 -1007 1558 -1038 1618 c 1,7,8
 -1007 1693 -1007 1693 -957 1705 c 1,9,10
 -907 1693 -907 1693 -875 1618 c 1,11,12
 -906 1558 -906 1558 -912 1515 c 0,13,14
 -914 1504 -914 1504 -915 1490 c 128,-1,15
 -916 1476 -916 1476 -916.5 1455 c 128,-1,16
 -917 1434 -917 1434 -917.5 1405 c 128,-1,17
 -918 1376 -918 1376 -918 1334 c 0,18,19
 -918 1285 -918 1285 -957 1285 c 256,20,21
 -996 1285 -996 1285 -995 1334 c 0,0,1
-1019 1261 m 0,22,23
 -1019 1219 -1019 1219 -1057 1219 c 0,24,25
 -1084 1219 -1084 1219 -1102 1278 c 0,26,27
 -1115 1320 -1115 1320 -1134.5 1358 c 128,-1,28
 -1154 1396 -1154 1396 -1183 1425 c 0,29,30
 -1214 1456 -1214 1456 -1254 1471 c 1,31,32
 -1238 1529 -1238 1529 -1171 1529 c 0,33,34
 -1135 1529 -1135 1529 -1109.5 1507 c 128,-1,35
 -1084 1485 -1084 1485 -1066 1453 c 0,36,37
 -1038 1403 -1038 1403 -1028.5 1358.5 c 128,-1,38
 -1019 1314 -1019 1314 -1019 1261 c 0,22,23
-895 1261 m 0,39,40
 -895 1219 -895 1219 -857 1219 c 0,41,42
 -830 1219 -830 1219 -812 1278 c 0,43,44
 -799 1320 -799 1320 -779.5 1358 c 128,-1,45
 -760 1396 -760 1396 -731 1425 c 0,46,47
 -700 1456 -700 1456 -660 1471 c 1,48,49
 -676 1529 -676 1529 -743 1529 c 0,50,51
 -779 1529 -779 1529 -804.5 1507 c 128,-1,52
 -830 1485 -830 1485 -848 1453 c 0,53,54
 -876 1403 -876 1403 -885.5 1358.5 c 128,-1,55
 -895 1314 -895 1314 -895 1261 c 0,39,40
EndSplineSet
Validated: 9
EndChar

StartChar: uniEC53
Encoding: 60499 60499 5

Width: 2
Flags: W
LayerCount: 2
Fore
SplineSet
-774 1690 m 1,0,1
 -753 1679 -753 1679 -739.5 1657 c 128,-1,2
 -726 1635 -726 1635 -720.5 1608.5 c 128,-1,3
 -715 1582 -715 1582 -720 1554.5 c 128,-1,4
 -725 1527 -725 1527 -741 1505 c 1,5,6
 -766 1483 -766 1483 -805 1456 c 128,-1,7
 -844 1429 -844 1429 -889 1400.5 c 128,-1,8
 -934 1372 -934 1372 -981 1344.5 c 128,-1,9
 -1028 1317 -1028 1317 -1069 1293.5 c 128,-1,10
 -1110 1270 -1110 1270 -1140.5 1253.5 c 128,-1,11
 -1171 1237 -1171 1237 -1183 1232 c 0,12,13
 -1217 1229 -1217 1229 -1200 1260 c 1,14,-1
 -879 1542 l 2,15,16
 -859 1560 -859 1560 -841 1580.5 c 128,-1,17
 -823 1601 -823 1601 -809 1620.5 c 128,-1,18
 -795 1640 -795 1640 -786 1658 c 128,-1,19
 -777 1676 -777 1676 -774 1690 c 1,0,1
EndSplineSet
Validated: 1
EndChar

StartChar: uniEC63
Encoding: 60515 60515 6

Width: 2
Flags: W
LayerCount: 2
Fore
SplineSet
-1075 1452 m 256,0,1
 -1075 1475 -1075 1475 -1066 1495.5 c 128,-1,2
 -1057 1516 -1057 1516 -1041.5 1531.5 c 128,-1,3
 -1026 1547 -1026 1547 -1005.5 1556 c 128,-1,4
 -985 1565 -985 1565 -962 1565 c 256,5,6
 -939 1565 -939 1565 -918.5 1556 c 128,-1,7
 -898 1547 -898 1547 -882.5 1531.5 c 128,-1,8
 -867 1516 -867 1516 -858 1495.5 c 128,-1,9
 -849 1475 -849 1475 -849 1452 c 256,10,11
 -849 1429 -849 1429 -858 1408.5 c 128,-1,12
 -867 1388 -867 1388 -882.5 1372.5 c 128,-1,13
 -898 1357 -898 1357 -918.5 1348 c 128,-1,14
 -939 1339 -939 1339 -962 1339 c 256,15,16
 -985 1339 -985 1339 -1005.5 1348 c 128,-1,17
 -1026 1357 -1026 1357 -1041.5 1372.5 c 128,-1,18
 -1057 1388 -1057 1388 -1066 1408.5 c 128,-1,19
 -1075 1429 -1075 1429 -1075 1452 c 256,0,1
EndSplineSet
Validated: 1
EndChar

StartChar: uniEC83
Encoding: 60547 60547 7

Width: 2
Flags: W
LayerCount: 2
Fore
SplineSet
-802 1510 m 0,0,1
 -802 1531 -802 1531 -810.5 1550 c 128,-1,2
 -819 1569 -819 1569 -833.5 1582.5 c 128,-1,3
 -848 1596 -848 1596 -867.5 1604 c 128,-1,4
 -887 1612 -887 1612 -910 1612 c 0,5,6
 -969 1612 -969 1612 -991 1562 c 1,7,8
 -981 1567 -981 1567 -973 1569.5 c 128,-1,9
 -965 1572 -965 1572 -953 1572 c 0,10,11
 -920 1572 -920 1572 -901.5 1550 c 128,-1,12
 -883 1528 -883 1528 -883 1502 c 0,13,14
 -883 1472 -883 1472 -904 1452.5 c 128,-1,15
 -925 1433 -925 1433 -953 1433 c 0,16,17
 -976 1433 -976 1433 -993.5 1441.5 c 128,-1,18
 -1011 1450 -1011 1450 -1022.5 1464.5 c 128,-1,19
 -1034 1479 -1034 1479 -1040.5 1498.5 c 128,-1,20
 -1047 1518 -1047 1518 -1047 1538 c 0,21,22
 -1047 1573 -1047 1573 -1032.5 1599.5 c 128,-1,23
 -1018 1626 -1018 1626 -995 1644.5 c 128,-1,24
 -972 1663 -972 1663 -942 1673 c 128,-1,25
 -912 1683 -912 1683 -881 1683 c 0,26,27
 -844 1683 -844 1683 -812 1669.5 c 128,-1,28
 -780 1656 -780 1656 -756.5 1633.5 c 128,-1,29
 -733 1611 -733 1611 -719.5 1580 c 128,-1,30
 -706 1549 -706 1549 -706 1513 c 0,31,32
 -706 1431 -706 1431 -755 1368 c 128,-1,33
 -804 1305 -804 1305 -888 1255 c 0,34,35
 -925 1233 -925 1233 -965 1216.5 c 128,-1,36
 -1005 1200 -1005 1200 -1047 1185.5 c 128,-1,37
 -1089 1171 -1089 1171 -1131 1158.5 c 128,-1,38
 -1173 1146 -1173 1146 -1214 1134 c 0,39,40
 -1231 1130 -1231 1130 -1239.5 1135 c 128,-1,41
 -1248 1140 -1248 1140 -1252 1152 c 0,42,43
 -1258 1168 -1258 1168 -1248.5 1176.5 c 128,-1,44
 -1239 1185 -1239 1185 -1232 1187 c 0,45,46
 -1145 1219 -1145 1219 -1066.5 1257.5 c 128,-1,47
 -988 1296 -988 1296 -915 1341 c 0,48,49
 -892 1356 -892 1356 -871 1374 c 128,-1,50
 -850 1392 -850 1392 -835 1413 c 128,-1,51
 -820 1434 -820 1434 -811 1458.5 c 128,-1,52
 -802 1483 -802 1483 -802 1510 c 0,0,1
EndSplineSet
Validated: 1
EndChar

StartChar: uniEC01
Encoding: 60417 60417 8

Width: 2
Flags: W
LayerCount: 2
Fore
SplineSet
-1160 -250 m 1,0,1
 -1180 -245 -1180 -245 -1190.5 -226.5 c 128,-1,2
 -1201 -208 -1201 -208 -1201 -187 c 0,3,4
 -1201 -167 -1201 -167 -1191 -149.5 c 128,-1,5
 -1181 -132 -1181 -132 -1160 -125 c 1,6,-1
 -329 -125 l 1,7,8
 -308 -132 -308 -132 -298 -149.5 c 128,-1,9
 -288 -167 -288 -167 -288 -187 c 0,10,11
 -288 -208 -288 -208 -298.5 -226.5 c 128,-1,12
 -309 -245 -309 -245 -329 -250 c 1,13,-1
 -1160 -250 l 1,0,1
EndSplineSet
Validated: 1
EndChar

StartChar: uni6028
Encoding: 24616 24616 9
Width: 2
Flags: W
LayerCount: 2
Fore
SplineSet
-1064 -536 m 256,0,1
 -1064 -513 -1064 -513 -1055 -492.5 c 128,-1,2
 -1046 -472 -1046 -472 -1030.5 -456.5 c 128,-1,3
 -1015 -441 -1015 -441 -994.5 -432 c 128,-1,4
 -974 -423 -974 -423 -951 -423 c 256,5,6
 -928 -423 -928 -423 -907.5 -432 c 128,-1,7
 -887 -441 -887 -441 -871.5 -456.5 c 128,-1,8
 -856 -472 -856 -472 -847 -492.5 c 128,-1,9
 -838 -513 -838 -513 -838 -536 c 256,10,11
 -838 -559 -838 -559 -847 -579.5 c 128,-1,12
 -856 -600 -856 -600 -871.5 -615.5 c 128,-1,13
 -887 -631 -887 -631 -907.5 -640 c 128,-1,14
 -928 -649 -928 -649 -951 -649 c 256,15,16
 -974 -649 -974 -649 -994.5 -640 c 128,-1,17
 -1015 -631 -1015 -631 -1030.5 -615.5 c 128,-1,18
 -1046 -600 -1046 -600 -1055 -579.5 c 128,-1,19
 -1064 -559 -1064 -559 -1064 -536 c 256,0,1
EndSplineSet
Validated: 1
EndChar

StartChar: uni6029
Encoding: 24617 24617 10

Width: 2
Flags: W
LayerCount: 2
Fore
SplineSet
-1170 1650 m 2,0,1
 -1235 1665 -1235 1665 -1278 1674 c 128,-1,2
 -1321 1683 -1321 1683 -1358 1683 c 0,3,4
 -1407 1683 -1407 1683 -1446.5 1666 c 128,-1,5
 -1486 1649 -1486 1649 -1532 1609 c 0,6,7
 -1540 1602 -1540 1602 -1547.5 1596 c 128,-1,8
 -1555 1590 -1555 1590 -1564 1583 c 0,9,10
 -1579 1578 -1579 1578 -1585 1585 c 128,-1,11
 -1591 1592 -1591 1592 -1589 1603 c 0,12,13
 -1581 1623 -1581 1623 -1571 1643 c 128,-1,14
 -1561 1663 -1561 1663 -1549 1680 c 0,15,16
 -1521 1722 -1521 1722 -1483 1753.5 c 128,-1,17
 -1445 1785 -1445 1785 -1400.5 1806.5 c 128,-1,18
 -1356 1828 -1356 1828 -1307 1839 c 128,-1,19
 -1258 1850 -1258 1850 -1207 1850 c 0,20,21
 -1144 1850 -1144 1850 -1078 1835 c 2,22,-1
 -749 1760 l 2,23,24
 -684 1745 -684 1745 -641 1736 c 128,-1,25
 -598 1727 -598 1727 -561 1727 c 0,26,27
 -513 1727 -513 1727 -473 1743.5 c 128,-1,28
 -433 1760 -433 1760 -387 1801 c 0,29,30
 -379 1808 -379 1808 -371.5 1814 c 128,-1,31
 -364 1820 -364 1820 -355 1827 c 0,32,33
 -340 1832 -340 1832 -334 1825 c 128,-1,34
 -328 1818 -328 1818 -330 1807 c 0,35,36
 -338 1787 -338 1787 -348 1767 c 128,-1,37
 -358 1747 -358 1747 -370 1730 c 0,38,39
 -399 1688 -399 1688 -436.5 1656.5 c 128,-1,40
 -474 1625 -474 1625 -518.5 1603.5 c 128,-1,41
 -563 1582 -563 1582 -612 1571 c 128,-1,42
 -661 1560 -661 1560 -712 1560 c 0,43,44
 -775 1560 -775 1560 -841 1575 c 2,45,-1
 -1170 1650 l 2,0,1
EndSplineSet
Validated: 1
EndChar

StartChar: uni602A
Encoding: 24618 24618 11
Width: 1449
Flags: W
LayerCount: 2
Fore
SplineSet
1273 730 m 0,0,1
 1307 730 1307 730 1333 716 c 128,-1,2
 1359 702 1359 702 1375.5 679 c 128,-1,3
 1392 656 1392 656 1400.5 626.5 c 128,-1,4
 1409 597 1409 597 1409 565 c 0,5,6
 1409 441 1409 441 1359.5 337 c 128,-1,7
 1310 233 1310 233 1225.5 158 c 128,-1,8
 1141 83 1141 83 1028 41.5 c 128,-1,9
 915 0 915 0 788 0 c 0,10,11
 667 0 667 0 565.5 33 c 128,-1,12
 464 66 464 66 383 125 c 128,-1,13
 302 184 302 184 241.5 264 c 128,-1,14
 181 344 181 344 140.5 438 c 128,-1,15
 100 532 100 532 80 635.5 c 128,-1,16
 60 739 60 739 60 845 c 0,17,18
 60 986 60 986 92.5 1119 c 128,-1,19
 125 1252 125 1252 186.5 1370 c 128,-1,20
 248 1488 248 1488 336.5 1586.5 c 128,-1,21
 425 1685 425 1685 536.5 1756 c 128,-1,22
 648 1827 648 1827 781 1866.5 c 128,-1,23
 914 1906 914 1906 1065 1906 c 0,24,25
 1073 1906 1073 1906 1080.5 1906 c 128,-1,26
 1088 1906 1088 1906 1095 1905 c 0,27,28
 1116 1895 1116 1895 1124 1877.5 c 128,-1,29
 1132 1860 1132 1860 1131 1842 c 128,-1,30
 1130 1824 1130 1824 1121.5 1809.5 c 128,-1,31
 1113 1795 1113 1795 1100 1791 c 0,32,33
 1061 1786 1061 1786 1020 1781 c 128,-1,34
 979 1776 979 1776 940 1768 c 0,35,36
 814 1744 814 1744 701.5 1682 c 128,-1,37
 589 1620 589 1620 504 1535 c 0,38,39
 392 1422 392 1422 332 1269 c 128,-1,40
 272 1116 272 1116 274 936 c 0,41,42
 275 847 275 847 292.5 760.5 c 128,-1,43
 310 674 310 674 344 596.5 c 128,-1,44
 378 519 378 519 427.5 453 c 128,-1,45
 477 387 477 387 543 339 c 128,-1,46
 609 291 609 291 690.5 264.5 c 128,-1,47
 772 238 772 238 870 239 c 0,48,49
 917 240 917 240 967 247 c 128,-1,50
 1017 254 1017 254 1064.5 269.5 c 128,-1,51
 1112 285 1112 285 1153.5 309.5 c 128,-1,52
 1195 334 1195 334 1225 370 c 0,53,54
 1251 399 1251 399 1259 434 c 0,55,56
 1261 452 1261 452 1250.5 464.5 c 128,-1,57
 1240 477 1240 477 1225 488 c 0,58,59
 1195 508 1195 508 1172 535 c 128,-1,60
 1149 562 1149 562 1149 603 c 0,61,62
 1149 632 1149 632 1159.5 655.5 c 128,-1,63
 1170 679 1170 679 1187.5 695.5 c 128,-1,64
 1205 712 1205 712 1227.5 721 c 128,-1,65
 1250 730 1250 730 1273 730 c 0,0,1
EndSplineSet
Validated: 33
EndChar

StartChar: uniEBD8
Encoding: 60376 60376 12
Width: 207
Flags: W
LayerCount: 2
Fore
SplineSet
-244 185 m 1,0,1
 -178 180 -178 180 -115 165 c 128,-1,2
 -52 150 -52 150 4 119 c 0,3,4
 97 68 97 68 152 -16.5 c 128,-1,5
 207 -101 207 -101 207 -209 c 0,6,7
 207 -280 207 -280 179 -349 c 128,-1,8
 151 -418 151 -418 100 -472.5 c 128,-1,9
 49 -527 49 -527 -23 -560.5 c 128,-1,10
 -95 -594 -95 -594 -183 -594 c 0,11,12
 -282 -594 -282 -594 -345 -565.5 c 128,-1,13
 -408 -537 -408 -537 -443 -495 c 0,14,15
 -470 -463 -470 -463 -487.5 -424.5 c 128,-1,16
 -505 -386 -505 -386 -505 -349 c 0,17,18
 -505 -324 -505 -324 -496 -303.5 c 128,-1,19
 -487 -283 -487 -283 -472 -268 c 128,-1,20
 -457 -253 -457 -253 -436 -244.5 c 128,-1,21
 -415 -236 -415 -236 -391 -236 c 0,22,23
 -369 -236 -369 -236 -350.5 -244.5 c 128,-1,24
 -332 -253 -332 -253 -318.5 -268 c 128,-1,25
 -305 -283 -305 -283 -297.5 -302.5 c 128,-1,26
 -290 -322 -290 -322 -290 -343 c 0,27,28
 -290 -366 -290 -366 -295.5 -379 c 128,-1,29
 -301 -392 -301 -392 -307.5 -401.5 c 128,-1,30
 -314 -411 -314 -411 -319.5 -419.5 c 128,-1,31
 -325 -428 -325 -428 -325 -442 c 0,32,33
 -325 -464 -325 -464 -295.5 -476 c 128,-1,34
 -266 -488 -266 -488 -220 -488 c 0,35,36
 -175 -488 -175 -488 -134.5 -475 c 128,-1,37
 -94 -462 -94 -462 -62 -439 c 0,38,39
 -16 -405 -16 -405 4 -357 c 128,-1,40
 24 -309 24 -309 24 -262 c 0,41,42
 24 -185 24 -185 -12 -134.5 c 128,-1,43
 -48 -84 -48 -84 -103.5 -54 c 128,-1,44
 -159 -24 -159 -24 -226 -12 c 128,-1,45
 -293 0 -293 0 -356 0 c 2,46,-1
 -525 0 l 1,47,48
 -535 17 -535 17 -520.5 35.5 c 128,-1,49
 -506 54 -506 54 -478 72 c 128,-1,50
 -450 90 -450 90 -413 107 c 128,-1,51
 -376 124 -376 124 -341.5 139 c 128,-1,52
 -307 154 -307 154 -280 166 c 128,-1,53
 -253 178 -253 178 -244 185 c 1,0,1
EndSplineSet
Validated: 1
EndChar

StartChar: uniE027
Encoding: 57383 57383 13
Width: 1364
Flags: W
LayerCount: 2
Fore
SplineSet
1047 -102 m 0,0,1
 1049 -105 1049 -105 1055.5 -113.5 c 128,-1,2
 1062 -122 1062 -122 1064 -125 c 0,3,4
 1107 -186 1107 -186 1130 -258 c 128,-1,5
 1153 -330 1153 -330 1153 -403 c 0,6,7
 1153 -510 1153 -510 1111.5 -598.5 c 128,-1,8
 1070 -687 1070 -687 1001 -757 c 128,-1,9
 932 -827 932 -827 842 -878 c 128,-1,10
 752 -929 752 -929 656 -962 c 0,11,12
 632 -970 632 -970 613 -976 c 128,-1,13
 594 -982 594 -982 575 -987 c 128,-1,14
 556 -992 556 -992 536.5 -995.5 c 128,-1,15
 517 -999 517 -999 492 -1002 c 1,16,17
 471 -997 471 -997 459.5 -985 c 128,-1,18
 448 -973 448 -973 444 -958 c 128,-1,19
 440 -943 440 -943 444 -926.5 c 128,-1,20
 448 -910 448 -910 459 -896 c 1,21,22
 471 -890 471 -890 485.5 -885 c 128,-1,23
 500 -880 500 -880 516 -875 c 0,24,25
 539 -867 539 -867 555 -861 c 128,-1,26
 571 -855 571 -855 584.5 -850 c 128,-1,27
 598 -845 598 -845 611 -839.5 c 128,-1,28
 624 -834 624 -834 640 -826 c 0,29,30
 695 -801 695 -801 745 -762.5 c 128,-1,31
 795 -724 795 -724 833 -675 c 128,-1,32
 871 -626 871 -626 893.5 -570 c 128,-1,33
 916 -514 916 -514 915 -455 c 0,34,35
 914 -391 914 -391 886 -331 c 128,-1,36
 858 -271 858 -271 808 -225 c 0,37,38
 785 -203 785 -203 756 -185.5 c 128,-1,39
 727 -168 727 -168 695 -155.5 c 128,-1,40
 663 -143 663 -143 629 -136 c 128,-1,41
 595 -129 595 -129 562 -129 c 0,42,43
 549 -129 549 -129 535 -129.5 c 128,-1,44
 521 -130 521 -130 509 -133 c 1,45,46
 511 -131 511 -131 514 -126.5 c 128,-1,47
 517 -122 517 -122 522 -117 c 0,48,49
 550 -88 550 -88 578.5 -62 c 128,-1,50
 607 -36 607 -36 637 -16 c 128,-1,51
 667 4 667 4 698.5 17.5 c 128,-1,52
 730 31 730 31 766 36 c 0,53,54
 794 36 794 36 827.5 29 c 128,-1,55
 861 22 861 22 887 25 c 0,56,57
 924 28 924 28 948 53.5 c 128,-1,58
 972 79 972 79 985 115 c 128,-1,59
 998 151 998 151 1003 189.5 c 128,-1,60
 1008 228 1008 228 1008 256 c 0,61,62
 1009 347 1009 347 974 425 c 128,-1,63
 939 503 939 503 876 561 c 128,-1,64
 813 619 813 619 725 652 c 128,-1,65
 637 685 637 685 532 685 c 0,66,67
 491 685 491 685 449.5 678.5 c 128,-1,68
 408 672 408 672 368.5 658.5 c 128,-1,69
 329 645 329 645 293 624.5 c 128,-1,70
 257 604 257 604 229 577 c 0,71,72
 205 553 205 553 202 530 c 0,73,74
 200 512 200 512 210.5 499 c 128,-1,75
 221 486 221 486 237 476 c 0,76,77
 269 456 269 456 289 428.5 c 128,-1,78
 309 401 309 401 309 360 c 0,79,80
 309 334 309 334 300 313.5 c 128,-1,81
 291 293 291 293 278 278 c 0,82,83
 243 237 243 237 186 237 c 0,84,85
 159 237 159 237 139 245.5 c 128,-1,86
 119 254 119 254 104 268 c 0,87,88
 81 289 81 289 70.5 320.5 c 128,-1,89
 60 352 60 352 60 389 c 0,90,91
 60 471 60 471 83 541.5 c 128,-1,92
 106 612 106 612 146.5 669 c 128,-1,93
 187 726 187 726 241.5 769.5 c 128,-1,94
 296 813 296 813 358 842.5 c 128,-1,95
 420 872 420 872 486.5 887 c 128,-1,96
 553 902 553 902 619 902 c 0,97,98
 753 902 753 902 869.5 861 c 128,-1,99
 986 820 986 820 1071.5 744 c 128,-1,100
 1157 668 1157 668 1205.5 560 c 128,-1,101
 1254 452 1254 452 1251 318 c 0,102,103
 1250 262 1250 262 1234 205 c 128,-1,104
 1218 148 1218 148 1191 93.5 c 128,-1,105
 1164 39 1164 39 1127 -10.5 c 128,-1,106
 1090 -60 1090 -60 1047 -102 c 0,0,1
EndSplineSet
Validated: 33
EndChar

StartChar: colon
Encoding: 58 58 14

Width: 526
Flags: W
LayerCount: 2
Fore
SplineSet
120 831 m 256,0,1
 120 854 120 854 129 874.5 c 128,-1,2
 138 895 138 895 153.5 910.5 c 128,-1,3
 169 926 169 926 189.5 935 c 128,-1,4
 210 944 210 944 233 944 c 256,5,6
 256 944 256 944 276.5 935 c 128,-1,7
 297 926 297 926 312.5 910.5 c 128,-1,8
 328 895 328 895 337 874.5 c 128,-1,9
 346 854 346 854 346 831 c 256,10,11
 346 808 346 808 337 787.5 c 128,-1,12
 328 767 328 767 312.5 751.5 c 128,-1,13
 297 736 297 736 276.5 727 c 128,-1,14
 256 718 256 718 233 718 c 256,15,16
 210 718 210 718 189.5 727 c 128,-1,17
 169 736 169 736 153.5 751.5 c 128,-1,18
 138 767 138 767 129 787.5 c 128,-1,19
 120 808 120 808 120 831 c 256,0,1
120 113 m 256,20,21
 120 136 120 136 129 156.5 c 128,-1,22
 138 177 138 177 153.5 192.5 c 128,-1,23
 169 208 169 208 189.5 217 c 128,-1,24
 210 226 210 226 233 226 c 256,25,26
 256 226 256 226 276.5 217 c 128,-1,27
 297 208 297 208 312.5 192.5 c 128,-1,28
 328 177 328 177 337 156.5 c 128,-1,29
 346 136 346 136 346 113 c 256,30,31
 346 90 346 90 337 69.5 c 128,-1,32
 328 49 328 49 312.5 33.5 c 128,-1,33
 297 18 297 18 276.5 9 c 128,-1,34
 256 0 256 0 233 0 c 256,35,36
 210 0 210 0 189.5 9 c 128,-1,37
 169 18 169 18 153.5 33.5 c 128,-1,38
 138 49 138 49 129 69.5 c 128,-1,39
 120 90 120 90 120 113 c 256,20,21
EndSplineSet
Validated: 1
EndChar

StartChar: uniE02B
Encoding: 57387 57387 15

Width: 1125
Flags: W
LayerCount: 2
Fore
SplineSet
822 544 m 256,0,1
 802 599 802 599 763.5 648 c 128,-1,2
 725 697 725 697 675.5 729.5 c 128,-1,3
 626 762 626 762 568 772.5 c 128,-1,4
 510 783 510 783 452 762 c 0,5,6
 393 741 393 741 356 695.5 c 128,-1,7
 319 650 319 650 301.5 593.5 c 128,-1,8
 284 537 284 537 286 475 c 128,-1,9
 288 413 288 413 308 358 c 256,10,11
 328 303 328 303 366.5 254 c 128,-1,12
 405 205 405 205 454.5 172.5 c 128,-1,13
 504 140 504 140 561.5 129.5 c 128,-1,14
 619 119 619 119 678 140 c 0,15,16
 736 161 736 161 773.5 206.5 c 128,-1,17
 811 252 811 252 828.5 308.5 c 128,-1,18
 846 365 846 365 844 427 c 128,-1,19
 842 489 842 489 822 544 c 256,0,1
86 277 m 0,20,21
 50 374 50 374 63 466 c 128,-1,22
 76 558 76 558 124 635.5 c 128,-1,23
 172 713 172 713 248 772.5 c 128,-1,24
 324 832 324 832 414 865 c 0,25,26
 505 898 505 898 601.5 901 c 128,-1,27
 698 904 698 904 784.5 875.5 c 128,-1,28
 871 847 871 847 939.5 784.5 c 128,-1,29
 1008 722 1008 722 1044 625 c 0,30,31
 1079 528 1079 528 1066 436 c 128,-1,32
 1053 344 1053 344 1005.5 266.5 c 128,-1,33
 958 189 958 189 882 129.5 c 128,-1,34
 806 70 806 70 716 37 c 0,35,36
 625 4 625 4 528.5 1 c 128,-1,37
 432 -2 432 -2 345.5 26.5 c 128,-1,38
 259 55 259 55 190.5 117 c 128,-1,39
 122 179 122 179 86 277 c 0,20,21
EndSplineSet
Validated: 33
EndChar

StartChar: uni602F
Encoding: 24623 24623 16

Width: 5
Flags: W
LayerCount: 2
Fore
SplineSet
-846 -791 m 2,0,1
 -890 -777 -890 -777 -918 -769.5 c 128,-1,2
 -946 -762 -946 -762 -972 -762 c 0,3,4
 -1004 -762 -1004 -762 -1030.5 -776 c 128,-1,5
 -1057 -790 -1057 -790 -1088 -826 c 0,6,7
 -1093 -832 -1093 -832 -1098 -837.5 c 128,-1,8
 -1103 -843 -1103 -843 -1109 -849 c 0,9,10
 -1120 -854 -1120 -854 -1124 -847.5 c 128,-1,11
 -1128 -841 -1128 -841 -1126 -831 c 0,12,13
 -1115 -794 -1115 -794 -1099 -764 c 0,14,15
 -1060 -691 -1060 -691 -1000 -652.5 c 128,-1,16
 -940 -614 -940 -614 -872 -614 c 0,17,18
 -850 -614 -850 -614 -828 -617.5 c 128,-1,19
 -806 -621 -806 -621 -785 -627 c 2,20,-1
 -566 -692 l 2,21,22
 -523 -706 -523 -706 -494.5 -713.5 c 128,-1,23
 -466 -721 -466 -721 -440 -721 c 0,24,25
 -408 -721 -408 -721 -381.5 -707 c 128,-1,26
 -355 -693 -355 -693 -325 -657 c 0,27,28
 -319 -651 -319 -651 -314 -645.5 c 128,-1,29
 -309 -640 -309 -640 -303 -634 c 0,30,31
 -293 -629 -293 -629 -289 -635.5 c 128,-1,32
 -285 -642 -285 -642 -287 -652 c 0,33,34
 -292 -669 -292 -669 -299 -687 c 128,-1,35
 -306 -705 -306 -705 -314 -719 c 0,36,37
 -352 -792 -352 -792 -412 -830.5 c 128,-1,38
 -472 -869 -472 -869 -540 -869 c 0,39,40
 -562 -869 -562 -869 -584 -865.5 c 128,-1,41
 -606 -862 -606 -862 -627 -856 c 2,42,-1
 -846 -791 l 2,0,1
EndSplineSet
Validated: 1
EndChar

StartChar: uni6030
Encoding: 24624 24624 17

Width: 5
Flags: W
LayerCount: 2
Fore
SplineSet
-846 1673 m 2,0,1
 -891 1686 -891 1686 -918.5 1694 c 128,-1,2
 -946 1702 -946 1702 -972 1702 c 0,3,4
 -1004 1702 -1004 1702 -1030.5 1688 c 128,-1,5
 -1057 1674 -1057 1674 -1088 1638 c 0,6,7
 -1093 1632 -1093 1632 -1098 1626.5 c 128,-1,8
 -1103 1621 -1103 1621 -1109 1615 c 0,9,10
 -1120 1610 -1120 1610 -1124 1616.5 c 128,-1,11
 -1128 1623 -1128 1623 -1126 1633 c 0,12,13
 -1115 1670 -1115 1670 -1099 1700 c 0,14,15
 -1060 1773 -1060 1773 -1000 1811.5 c 128,-1,16
 -940 1850 -940 1850 -872 1850 c 0,17,18
 -850 1850 -850 1850 -828 1846.5 c 128,-1,19
 -806 1843 -806 1843 -785 1837 c 2,20,-1
 -566 1772 l 2,21,22
 -523 1759 -523 1759 -494.5 1751 c 128,-1,23
 -466 1743 -466 1743 -440 1743 c 0,24,25
 -408 1743 -408 1743 -381.5 1757 c 128,-1,26
 -355 1771 -355 1771 -325 1807 c 0,27,28
 -319 1813 -319 1813 -314 1818.5 c 128,-1,29
 -309 1824 -309 1824 -303 1830 c 0,30,31
 -293 1835 -293 1835 -289 1828.5 c 128,-1,32
 -285 1822 -285 1822 -287 1812 c 0,33,34
 -292 1795 -292 1795 -299 1777 c 128,-1,35
 -306 1759 -306 1759 -314 1745 c 0,36,37
 -352 1672 -352 1672 -412 1633.5 c 128,-1,38
 -472 1595 -472 1595 -540 1595 c 0,39,40
 -562 1595 -562 1595 -584 1598.5 c 128,-1,41
 -606 1602 -606 1602 -627 1608 c 2,42,-1
 -846 1673 l 2,0,1
EndSplineSet
Validated: 1
EndChar

StartChar: uniE000
Encoding: 57344 57344 18

Width: 1289
Flags: W
LayerCount: 2
Fore
SplineSet
147 327 m 2,0,1
 147 355 147 355 147 379.5 c 128,-1,2
 147 404 147 404 146.5 428 c 128,-1,3
 146 452 146 452 145 477 c 128,-1,4
 144 502 144 502 143 531 c 0,5,6
 141 556 141 556 137.5 584.5 c 128,-1,7
 134 613 134 613 125 641.5 c 128,-1,8
 116 670 116 670 100.5 696.5 c 128,-1,9
 85 723 85 723 61 745 c 0,10,11
 57 748 57 748 55 753 c 128,-1,12
 53 758 53 758 58 766 c 1,13,14
 87 778 87 778 116 794.5 c 128,-1,15
 145 811 145 811 171 828.5 c 128,-1,16
 197 846 197 846 219.5 864 c 128,-1,17
 242 882 242 882 259 899 c 0,18,19
 268 904 268 904 277 899 c 0,20,21
 299 877 299 877 316.5 844 c 128,-1,22
 334 811 334 811 346 773 c 0,23,24
 354 749 354 749 358 727 c 128,-1,25
 362 705 362 705 364 682 c 1,26,27
 404 733 404 733 453 773.5 c 128,-1,28
 502 814 502 814 557.5 842.5 c 128,-1,29
 613 871 613 871 673 886.5 c 128,-1,30
 733 902 733 902 796 902 c 0,31,32
 890 902 890 902 972.5 871 c 128,-1,33
 1055 840 1055 840 1116.5 784 c 128,-1,34
 1178 728 1178 728 1213.5 649.5 c 128,-1,35
 1249 571 1249 571 1249 476 c 0,36,37
 1249 408 1249 408 1228.5 342.5 c 128,-1,38
 1208 277 1208 277 1170 217 c 0,39,40
 1108 121 1108 121 1003 62 c 0,41,42
 948 32 948 32 885.5 16 c 128,-1,43
 823 0 823 0 749 0 c 0,44,45
 713 0 713 0 681 9 c 128,-1,46
 649 18 649 18 624.5 36 c 128,-1,47
 600 54 600 54 586 81.5 c 128,-1,48
 572 109 572 109 572 147 c 0,49,50
 572 170 572 170 581.5 191.5 c 128,-1,51
 591 213 591 213 607 229 c 128,-1,52
 623 245 623 245 645 254.5 c 128,-1,53
 667 264 667 264 691 264 c 0,54,55
 737 264 737 264 762 244 c 128,-1,56
 787 224 787 224 804.5 200 c 128,-1,57
 822 176 822 176 839.5 156 c 128,-1,58
 857 136 857 136 888 136 c 0,59,60
 927 136 927 136 953 162.5 c 128,-1,61
 979 189 979 189 994.5 228 c 128,-1,62
 1010 267 1010 267 1016.5 310.5 c 128,-1,63
 1023 354 1023 354 1023 387 c 0,64,65
 1023 454 1023 454 1005 521 c 128,-1,66
 987 588 987 588 951 641 c 128,-1,67
 915 694 915 694 861 727.5 c 128,-1,68
 807 761 807 761 735 761 c 0,69,70
 673 761 673 761 621 739.5 c 128,-1,71
 569 718 569 718 528 681.5 c 128,-1,72
 487 645 487 645 456.5 595.5 c 128,-1,73
 426 546 426 546 405.5 490 c 128,-1,74
 385 434 385 434 375 374.5 c 128,-1,75
 365 315 365 315 365 257 c 2,76,-1
 365 -601 l 2,77,78
 365 -626 365 -626 371.5 -641.5 c 128,-1,79
 378 -657 378 -657 386.5 -668 c 128,-1,80
 395 -679 395 -679 402 -687.5 c 128,-1,81
 409 -696 409 -696 410 -706 c 0,82,83
 412 -726 412 -726 400 -747.5 c 128,-1,84
 388 -769 388 -769 377 -783 c 0,85,86
 350 -818 350 -818 320.5 -850 c 128,-1,87
 291 -882 291 -882 256 -915 c 0,88,89
 204 -964 204 -964 145.5 -1004.5 c 128,-1,90
 87 -1045 87 -1045 33 -1067 c 0,91,92
 2 -1080 2 -1080 -26 -1085.5 c 128,-1,93
 -54 -1091 -54 -1091 -80 -1086 c 1,94,95
 0 -957 0 -957 45.5 -814 c 128,-1,96
 91 -671 91 -671 113.5 -523.5 c 128,-1,97
 136 -376 136 -376 141.5 -230 c 128,-1,98
 147 -84 147 -84 147 50 c 2,99,-1
 147 327 l 2,0,1
EndSplineSet
Validated: 1
EndChar

StartChar: uniE004
Encoding: 57348 57348 19

Width: 1958
Flags: W
LayerCount: 2
Fore
SplineSet
147 327 m 2,0,1
 147 355 147 355 147 379.5 c 128,-1,2
 147 404 147 404 146.5 428 c 128,-1,3
 146 452 146 452 145 477 c 128,-1,4
 144 502 144 502 143 531 c 0,5,6
 141 556 141 556 137.5 584.5 c 128,-1,7
 134 613 134 613 125 641.5 c 128,-1,8
 116 670 116 670 100.5 696.5 c 128,-1,9
 85 723 85 723 61 745 c 0,10,11
 57 748 57 748 55 753 c 128,-1,12
 53 758 53 758 58 766 c 1,13,14
 87 778 87 778 116 794.5 c 128,-1,15
 145 811 145 811 171 828.5 c 128,-1,16
 197 846 197 846 219.5 864 c 128,-1,17
 242 882 242 882 259 899 c 0,18,19
 268 904 268 904 277 899 c 0,20,21
 299 877 299 877 316.5 844 c 128,-1,22
 334 811 334 811 346 773 c 0,23,24
 354 749 354 749 358 727 c 128,-1,25
 362 705 362 705 364 682 c 1,26,27
 398 731 398 731 444 772 c 128,-1,28
 490 813 490 813 543 841.5 c 128,-1,29
 596 870 596 870 654.5 886 c 128,-1,30
 713 902 713 902 773 902 c 0,31,32
 884 902 884 902 974.5 852.5 c 128,-1,33
 1065 803 1065 803 1120 718 c 1,34,35
 1155 760 1155 760 1199 794 c 128,-1,36
 1243 828 1243 828 1292.5 852 c 128,-1,37
 1342 876 1342 876 1395 889 c 128,-1,38
 1448 902 1448 902 1502 902 c 0,39,40
 1590 902 1590 902 1666 870 c 128,-1,41
 1742 838 1742 838 1798 782 c 128,-1,42
 1854 726 1854 726 1886 649.5 c 128,-1,43
 1918 573 1918 573 1918 483 c 0,44,45
 1918 405 1918 405 1890.5 329 c 128,-1,46
 1863 253 1863 253 1812 188 c 0,47,48
 1781 149 1781 149 1742.5 114.5 c 128,-1,49
 1704 80 1704 80 1659 54.5 c 128,-1,50
 1614 29 1614 29 1565 14.5 c 128,-1,51
 1516 0 1516 0 1464 0 c 0,52,53
 1432 0 1432 0 1402 9 c 128,-1,54
 1372 18 1372 18 1349 36 c 128,-1,55
 1326 54 1326 54 1312.5 81.5 c 128,-1,56
 1299 109 1299 109 1299 147 c 0,57,58
 1299 170 1299 170 1308.5 191.5 c 128,-1,59
 1318 213 1318 213 1334 229 c 128,-1,60
 1350 245 1350 245 1372 254.5 c 128,-1,61
 1394 264 1394 264 1418 264 c 0,62,63
 1448 264 1448 264 1468.5 255.5 c 128,-1,64
 1489 247 1489 247 1504.5 233.5 c 128,-1,65
 1520 220 1520 220 1531.5 205 c 128,-1,66
 1543 190 1543 190 1553.5 176.5 c 128,-1,67
 1564 163 1564 163 1575.5 154.5 c 128,-1,68
 1587 146 1587 146 1603 146 c 0,69,70
 1624 146 1624 146 1639.5 159 c 128,-1,71
 1655 172 1655 172 1665.5 192 c 128,-1,72
 1676 212 1676 212 1683 237.5 c 128,-1,73
 1690 263 1690 263 1693.5 287.5 c 128,-1,74
 1697 312 1697 312 1698.5 334 c 128,-1,75
 1700 356 1700 356 1700 370 c 0,76,77
 1700 429 1700 429 1684.5 497 c 128,-1,78
 1669 565 1669 565 1636 623 c 128,-1,79
 1603 681 1603 681 1551.5 719.5 c 128,-1,80
 1500 758 1500 758 1429 758 c 0,81,82
 1388 758 1388 758 1351.5 744 c 128,-1,83
 1315 730 1315 730 1283.5 706 c 128,-1,84
 1252 682 1252 682 1225.5 649 c 128,-1,85
 1199 616 1199 616 1178 578 c 1,86,87
 1189 531 1189 531 1189 483 c 0,88,89
 1189 405 1189 405 1161.5 329 c 128,-1,90
 1134 253 1134 253 1083 188 c 0,91,92
 1052 149 1052 149 1013.5 114.5 c 128,-1,93
 975 80 975 80 930 54.5 c 128,-1,94
 885 29 885 29 836 14.5 c 128,-1,95
 787 0 787 0 735 0 c 0,96,97
 703 0 703 0 673 9 c 128,-1,98
 643 18 643 18 620 36 c 128,-1,99
 597 54 597 54 583.5 81.5 c 128,-1,100
 570 109 570 109 570 147 c 0,101,102
 570 170 570 170 579.5 191.5 c 128,-1,103
 589 213 589 213 605 229 c 128,-1,104
 621 245 621 245 643 254.5 c 128,-1,105
 665 264 665 264 689 264 c 0,106,107
 718 264 718 264 739 255.5 c 128,-1,108
 760 247 760 247 775.5 233.5 c 128,-1,109
 791 220 791 220 802.5 205 c 128,-1,110
 814 190 814 190 824.5 176.5 c 128,-1,111
 835 163 835 163 846.5 154.5 c 128,-1,112
 858 146 858 146 874 146 c 0,113,114
 895 146 895 146 910.5 159 c 128,-1,115
 926 172 926 172 936.5 192 c 128,-1,116
 947 212 947 212 954 237.5 c 128,-1,117
 961 263 961 263 964.5 287.5 c 128,-1,118
 968 312 968 312 969.5 334 c 128,-1,119
 971 356 971 356 971 370 c 0,120,121
 971 429 971 429 955.5 497 c 128,-1,122
 940 565 940 565 907 623 c 128,-1,123
 874 681 874 681 822.5 719.5 c 128,-1,124
 771 758 771 758 700 758 c 0,125,126
 646 758 646 758 599.5 734.5 c 128,-1,127
 553 711 553 711 516 671.5 c 128,-1,128
 479 632 479 632 450.5 581 c 128,-1,129
 422 530 422 530 403 474 c 128,-1,130
 384 418 384 418 374.5 362 c 128,-1,131
 365 306 365 306 365 257 c 2,132,-1
 365 -601 l 2,133,134
 365 -626 365 -626 371.5 -641.5 c 128,-1,135
 378 -657 378 -657 386.5 -668 c 128,-1,136
 395 -679 395 -679 402 -687.5 c 128,-1,137
 409 -696 409 -696 410 -706 c 256,138,139
 411 -716 411 -716 408 -726.5 c 128,-1,140
 405 -737 405 -737 399.5 -747 c 128,-1,141
 394 -757 394 -757 388 -766.5 c 128,-1,142
 382 -776 382 -776 377 -783 c 0,143,144
 348 -818 348 -818 319.5 -850 c 128,-1,145
 291 -882 291 -882 256 -915 c 0,146,147
 204 -964 204 -964 145.5 -1004.5 c 128,-1,148
 87 -1045 87 -1045 33 -1067 c 0,149,150
 2 -1080 2 -1080 -26 -1085.5 c 128,-1,151
 -54 -1091 -54 -1091 -80 -1086 c 1,152,153
 0 -957 0 -957 45.5 -814 c 128,-1,154
 91 -671 91 -671 113.5 -523.5 c 128,-1,155
 136 -376 136 -376 141.5 -230 c 128,-1,156
 147 -84 147 -84 147 50 c 2,157,-1
 147 327 l 2,0,1
EndSplineSet
Validated: 1
EndChar

StartChar: uniE008
Encoding: 57352 57352 20

Width: 1338
Flags: W
LayerCount: 2
Fore
SplineSet
414 683 m 1,0,1
 454 734 454 734 503 774.5 c 128,-1,2
 552 815 552 815 607 843.5 c 128,-1,3
 662 872 662 872 722 887 c 128,-1,4
 782 902 782 902 845 902 c 0,5,6
 939 902 939 902 1021.5 871 c 128,-1,7
 1104 840 1104 840 1165.5 784 c 128,-1,8
 1227 728 1227 728 1262.5 649.5 c 128,-1,9
 1298 571 1298 571 1298 476 c 0,10,11
 1298 408 1298 408 1277.5 342.5 c 128,-1,12
 1257 277 1257 277 1219 217 c 0,13,14
 1157 121 1157 121 1052 62 c 0,15,16
 997 32 997 32 934.5 16 c 128,-1,17
 872 0 872 0 798 0 c 0,18,19
 762 0 762 0 730 9 c 128,-1,20
 698 18 698 18 673.5 36 c 128,-1,21
 649 54 649 54 635 81.5 c 128,-1,22
 621 109 621 109 621 147 c 0,23,24
 621 170 621 170 630.5 191.5 c 128,-1,25
 640 213 640 213 656 229 c 128,-1,26
 672 245 672 245 694 254.5 c 128,-1,27
 716 264 716 264 740 264 c 0,28,29
 786 264 786 264 811 244 c 128,-1,30
 836 224 836 224 853.5 200 c 128,-1,31
 871 176 871 176 888.5 156 c 128,-1,32
 906 136 906 136 937 136 c 0,33,34
 976 136 976 136 1002 162.5 c 128,-1,35
 1028 189 1028 189 1043.5 228 c 128,-1,36
 1059 267 1059 267 1065.5 310.5 c 128,-1,37
 1072 354 1072 354 1072 387 c 0,38,39
 1072 454 1072 454 1054 521 c 128,-1,40
 1036 588 1036 588 1000 641 c 128,-1,41
 964 694 964 694 910 727.5 c 128,-1,42
 856 761 856 761 784 761 c 0,43,44
 719 761 719 761 666 738 c 128,-1,45
 613 715 613 715 571 675 c 128,-1,46
 529 635 529 635 498 582.5 c 128,-1,47
 467 530 467 530 448 470 c 0,48,49
 437 435 437 435 428 398 c 128,-1,50
 419 361 419 361 416 324 c 0,51,52
 415 319 415 319 414.5 313 c 128,-1,53
 414 307 414 307 414 299 c 0,54,55
 414 275 414 275 422 256.5 c 128,-1,56
 430 238 430 238 430 218 c 0,57,58
 430 211 430 211 429 203 c 128,-1,59
 428 195 428 195 424 188 c 0,60,61
 411 164 411 164 395.5 145.5 c 128,-1,62
 380 127 380 127 360 109 c 0,63,64
 338 89 338 89 313.5 68 c 128,-1,65
 289 47 289 47 263 29 c 0,66,67
 214 -6 214 -6 158 -34.5 c 128,-1,68
 102 -63 102 -63 45 -74 c 0,69,70
 22 -79 22 -79 0 -74 c 1,71,72
 47 -4 47 -4 80 74.5 c 128,-1,73
 113 153 113 153 135 236.5 c 128,-1,74
 157 320 157 320 169.5 407 c 128,-1,75
 182 494 182 494 188 581 c 0,76,77
 197 706 197 706 196.5 828 c 128,-1,78
 196 950 196 950 196 1062 c 2,79,-1
 196 1181 l 2,80,81
 196 1209 196 1209 196 1233.5 c 128,-1,82
 196 1258 196 1258 196 1282 c 128,-1,83
 196 1306 196 1306 195 1331 c 128,-1,84
 194 1356 194 1356 192 1385 c 0,85,86
 191 1410 191 1410 187 1438.5 c 128,-1,87
 183 1467 183 1467 174 1495.5 c 128,-1,88
 165 1524 165 1524 149.5 1550.5 c 128,-1,89
 134 1577 134 1577 110 1599 c 0,90,91
 106 1602 106 1602 104 1607 c 128,-1,92
 102 1612 102 1612 107 1620 c 1,93,94
 136 1632 136 1632 165 1648.5 c 128,-1,95
 194 1665 194 1665 220 1682.5 c 128,-1,96
 246 1700 246 1700 268.5 1718 c 128,-1,97
 291 1736 291 1736 308 1753 c 0,98,99
 317 1758 317 1758 326 1753 c 0,100,101
 348 1731 348 1731 365.5 1698 c 128,-1,102
 383 1665 383 1665 395 1627 c 0,103,104
 409 1582 409 1582 411.5 1541 c 128,-1,105
 414 1500 414 1500 414 1454 c 2,106,-1
 414 683 l 1,0,1
EndSplineSet
Validated: 33
EndChar

StartChar: uniE00C
Encoding: 57356 57356 21

Width: 2007
Flags: W
LayerCount: 2
Fore
SplineSet
414 682 m 1,0,1
 448 731 448 731 493.5 772 c 128,-1,2
 539 813 539 813 592.5 841.5 c 128,-1,3
 646 870 646 870 704 886 c 128,-1,4
 762 902 762 902 822 902 c 0,5,6
 933 902 933 902 1023.5 852.5 c 128,-1,7
 1114 803 1114 803 1169 718 c 1,8,9
 1204 760 1204 760 1248 794 c 128,-1,10
 1292 828 1292 828 1341.5 852 c 128,-1,11
 1391 876 1391 876 1444 889 c 128,-1,12
 1497 902 1497 902 1551 902 c 0,13,14
 1639 902 1639 902 1715 870 c 128,-1,15
 1791 838 1791 838 1847 782 c 128,-1,16
 1903 726 1903 726 1935 649.5 c 128,-1,17
 1967 573 1967 573 1967 483 c 0,18,19
 1967 405 1967 405 1939.5 329 c 128,-1,20
 1912 253 1912 253 1861 188 c 0,21,22
 1830 149 1830 149 1791.5 114.5 c 128,-1,23
 1753 80 1753 80 1708 54.5 c 128,-1,24
 1663 29 1663 29 1614 14.5 c 128,-1,25
 1565 0 1565 0 1513 0 c 0,26,27
 1481 0 1481 0 1451 9 c 128,-1,28
 1421 18 1421 18 1398 36 c 128,-1,29
 1375 54 1375 54 1361.5 81.5 c 128,-1,30
 1348 109 1348 109 1348 147 c 0,31,32
 1348 170 1348 170 1357.5 191.5 c 128,-1,33
 1367 213 1367 213 1383 229 c 128,-1,34
 1399 245 1399 245 1421 254.5 c 128,-1,35
 1443 264 1443 264 1467 264 c 0,36,37
 1496 264 1496 264 1517 255.5 c 128,-1,38
 1538 247 1538 247 1553.5 233.5 c 128,-1,39
 1569 220 1569 220 1580.5 205 c 128,-1,40
 1592 190 1592 190 1602.5 176.5 c 128,-1,41
 1613 163 1613 163 1624.5 154.5 c 128,-1,42
 1636 146 1636 146 1652 146 c 0,43,44
 1673 146 1673 146 1688.5 159 c 128,-1,45
 1704 172 1704 172 1714.5 192 c 128,-1,46
 1725 212 1725 212 1732 237.5 c 128,-1,47
 1739 263 1739 263 1742.5 287.5 c 128,-1,48
 1746 312 1746 312 1747.5 334 c 128,-1,49
 1749 356 1749 356 1749 370 c 0,50,51
 1749 429 1749 429 1733.5 497 c 128,-1,52
 1718 565 1718 565 1685 623 c 128,-1,53
 1652 681 1652 681 1600.5 719.5 c 128,-1,54
 1549 758 1549 758 1478 758 c 0,55,56
 1437 758 1437 758 1400.5 744 c 128,-1,57
 1364 730 1364 730 1332.5 706 c 128,-1,58
 1301 682 1301 682 1274.5 649 c 128,-1,59
 1248 616 1248 616 1227 578 c 1,60,61
 1238 531 1238 531 1238 483 c 0,62,63
 1238 405 1238 405 1210.5 329 c 128,-1,64
 1183 253 1183 253 1132 188 c 0,65,66
 1101 149 1101 149 1062.5 114.5 c 128,-1,67
 1024 80 1024 80 979 54.5 c 128,-1,68
 934 29 934 29 885 14.5 c 128,-1,69
 836 0 836 0 784 0 c 0,70,71
 752 0 752 0 722 9 c 128,-1,72
 692 18 692 18 669 36 c 128,-1,73
 646 54 646 54 632.5 81.5 c 128,-1,74
 619 109 619 109 619 147 c 0,75,76
 619 170 619 170 628.5 191.5 c 128,-1,77
 638 213 638 213 654 229 c 128,-1,78
 670 245 670 245 692 254.5 c 128,-1,79
 714 264 714 264 738 264 c 0,80,81
 767 264 767 264 788 255.5 c 128,-1,82
 809 247 809 247 824.5 233.5 c 128,-1,83
 840 220 840 220 851.5 205 c 128,-1,84
 863 190 863 190 873.5 176.5 c 128,-1,85
 884 163 884 163 895.5 154.5 c 128,-1,86
 907 146 907 146 923 146 c 0,87,88
 944 146 944 146 959.5 159 c 128,-1,89
 975 172 975 172 985.5 192 c 128,-1,90
 996 212 996 212 1003 237.5 c 128,-1,91
 1010 263 1010 263 1013.5 287.5 c 128,-1,92
 1017 312 1017 312 1018.5 334 c 128,-1,93
 1020 356 1020 356 1020 370 c 0,94,95
 1020 429 1020 429 1004.5 497 c 128,-1,96
 989 565 989 565 956 623 c 128,-1,97
 923 681 923 681 871.5 719.5 c 128,-1,98
 820 758 820 758 749 758 c 0,99,100
 694 758 694 758 647 734 c 128,-1,101
 600 710 600 710 562 670 c 128,-1,102
 524 630 524 630 495 578 c 128,-1,103
 466 526 466 526 448 469 c 0,104,105
 437 434 437 434 428 397 c 128,-1,106
 419 360 419 360 416 323 c 0,107,108
 415 318 415 318 414.5 312 c 128,-1,109
 414 306 414 306 414 298 c 0,110,111
 414 274 414 274 422 255.5 c 128,-1,112
 430 237 430 237 430 217 c 0,113,114
 430 210 430 210 429 202 c 128,-1,115
 428 194 428 194 424 187 c 0,116,117
 411 163 411 163 395.5 144.5 c 128,-1,118
 380 126 380 126 360 108 c 0,119,120
 338 88 338 88 313.5 67 c 128,-1,121
 289 46 289 46 263 28 c 0,122,123
 214 -7 214 -7 158 -35.5 c 128,-1,124
 102 -64 102 -64 45 -75 c 0,125,126
 22 -80 22 -80 0 -75 c 1,127,128
 47 -5 47 -5 80 73.5 c 128,-1,129
 113 152 113 152 135 235.5 c 128,-1,130
 157 319 157 319 169.5 406 c 128,-1,131
 182 493 182 493 188 580 c 0,132,133
 197 705 197 705 196.5 827 c 128,-1,134
 196 949 196 949 196 1061 c 2,135,-1
 196 1180 l 2,136,137
 196 1208 196 1208 196 1232.5 c 128,-1,138
 196 1257 196 1257 195.5 1281 c 128,-1,139
 195 1305 195 1305 194 1330 c 128,-1,140
 193 1355 193 1355 192 1384 c 0,141,142
 190 1409 190 1409 186.5 1437.5 c 128,-1,143
 183 1466 183 1466 174 1494.5 c 128,-1,144
 165 1523 165 1523 149.5 1549.5 c 128,-1,145
 134 1576 134 1576 110 1598 c 0,146,147
 106 1601 106 1601 104 1606 c 128,-1,148
 102 1611 102 1611 107 1619 c 1,149,150
 136 1631 136 1631 165 1647.5 c 128,-1,151
 194 1664 194 1664 220 1681.5 c 128,-1,152
 246 1699 246 1699 268.5 1717 c 128,-1,153
 291 1735 291 1735 308 1752 c 0,154,155
 317 1757 317 1757 326 1752 c 0,156,157
 348 1730 348 1730 365.5 1697 c 128,-1,158
 383 1664 383 1664 395 1626 c 0,159,160
 409 1581 409 1581 411.5 1540 c 128,-1,161
 414 1499 414 1499 414 1453 c 2,162,-1
 414 682 l 1,0,1
EndSplineSet
Validated: 33
EndChar

StartChar: uniE010
Encoding: 57360 57360 22

Width: 2007
Flags: W
LayerCount: 2
Fore
SplineSet
414 683 m 1,0,1
 448 732 448 732 493.5 772.5 c 128,-1,2
 539 813 539 813 592.5 842 c 128,-1,3
 646 871 646 871 704 886.5 c 128,-1,4
 762 902 762 902 822 902 c 0,5,6
 933 902 933 902 1023.5 852.5 c 128,-1,7
 1114 803 1114 803 1169 718 c 1,8,9
 1204 760 1204 760 1248 794 c 128,-1,10
 1292 828 1292 828 1341.5 852 c 128,-1,11
 1391 876 1391 876 1444 889 c 128,-1,12
 1497 902 1497 902 1551 902 c 0,13,14
 1639 902 1639 902 1715 870 c 128,-1,15
 1791 838 1791 838 1847 782 c 128,-1,16
 1903 726 1903 726 1935 649.5 c 128,-1,17
 1967 573 1967 573 1967 483 c 0,18,19
 1967 405 1967 405 1939.5 329 c 128,-1,20
 1912 253 1912 253 1861 188 c 0,21,22
 1830 149 1830 149 1791.5 114.5 c 128,-1,23
 1753 80 1753 80 1708 54.5 c 128,-1,24
 1663 29 1663 29 1614 14.5 c 128,-1,25
 1565 0 1565 0 1513 0 c 0,26,27
 1481 0 1481 0 1451 9 c 128,-1,28
 1421 18 1421 18 1398 36 c 128,-1,29
 1375 54 1375 54 1361.5 81.5 c 128,-1,30
 1348 109 1348 109 1348 147 c 0,31,32
 1348 170 1348 170 1357.5 191.5 c 128,-1,33
 1367 213 1367 213 1383 229 c 128,-1,34
 1399 245 1399 245 1421 254.5 c 128,-1,35
 1443 264 1443 264 1467 264 c 0,36,37
 1497 264 1497 264 1517.5 255.5 c 128,-1,38
 1538 247 1538 247 1553.5 233.5 c 128,-1,39
 1569 220 1569 220 1580.5 205 c 128,-1,40
 1592 190 1592 190 1602.5 176.5 c 128,-1,41
 1613 163 1613 163 1624.5 154.5 c 128,-1,42
 1636 146 1636 146 1652 146 c 0,43,44
 1673 146 1673 146 1688.5 159 c 128,-1,45
 1704 172 1704 172 1714.5 192 c 128,-1,46
 1725 212 1725 212 1732 237.5 c 128,-1,47
 1739 263 1739 263 1742.5 287.5 c 128,-1,48
 1746 312 1746 312 1747.5 334 c 128,-1,49
 1749 356 1749 356 1749 370 c 0,50,51
 1749 429 1749 429 1733.5 497 c 128,-1,52
 1718 565 1718 565 1685 623 c 128,-1,53
 1652 681 1652 681 1600.5 719.5 c 128,-1,54
 1549 758 1549 758 1478 758 c 0,55,56
 1437 758 1437 758 1400.5 744 c 128,-1,57
 1364 730 1364 730 1332.5 706 c 128,-1,58
 1301 682 1301 682 1274.5 649 c 128,-1,59
 1248 616 1248 616 1227 578 c 1,60,61
 1238 531 1238 531 1238 483 c 0,62,63
 1238 405 1238 405 1210.5 329 c 128,-1,64
 1183 253 1183 253 1132 188 c 0,65,66
 1101 149 1101 149 1062.5 114.5 c 128,-1,67
 1024 80 1024 80 979 54.5 c 128,-1,68
 934 29 934 29 885 14.5 c 128,-1,69
 836 0 836 0 784 0 c 0,70,71
 752 0 752 0 722 9 c 128,-1,72
 692 18 692 18 669 36 c 128,-1,73
 646 54 646 54 632.5 81.5 c 128,-1,74
 619 109 619 109 619 147 c 0,75,76
 619 170 619 170 628.5 191.5 c 128,-1,77
 638 213 638 213 654 229 c 128,-1,78
 670 245 670 245 692 254.5 c 128,-1,79
 714 264 714 264 738 264 c 0,80,81
 767 264 767 264 788 255.5 c 128,-1,82
 809 247 809 247 824.5 233.5 c 128,-1,83
 840 220 840 220 851.5 205 c 128,-1,84
 863 190 863 190 873.5 176.5 c 128,-1,85
 884 163 884 163 895.5 154.5 c 128,-1,86
 907 146 907 146 923 146 c 0,87,88
 944 146 944 146 959.5 159 c 128,-1,89
 975 172 975 172 985.5 192 c 128,-1,90
 996 212 996 212 1003 237.5 c 128,-1,91
 1010 263 1010 263 1013.5 287.5 c 128,-1,92
 1017 312 1017 312 1018.5 334 c 128,-1,93
 1020 356 1020 356 1020 370 c 0,94,95
 1020 429 1020 429 1004.5 497 c 128,-1,96
 989 565 989 565 956 623 c 128,-1,97
 923 681 923 681 871.5 719.5 c 128,-1,98
 820 758 820 758 749 758 c 0,99,100
 694 758 694 758 647 734 c 128,-1,101
 600 710 600 710 562 670.5 c 128,-1,102
 524 631 524 631 495.5 579 c 128,-1,103
 467 527 467 527 448 470 c 0,104,105
 434 428 434 428 424.5 380.5 c 128,-1,106
 415 333 415 333 415 287 c 0,107,108
 415 260 415 260 422.5 239.5 c 128,-1,109
 430 219 430 219 430 194 c 0,110,111
 430 163 430 163 413 142 c 0,112,113
 402 126 402 126 389 113.5 c 128,-1,114
 376 101 376 101 360 88 c 0,115,116
 338 71 338 71 313.5 52.5 c 128,-1,117
 289 34 289 34 263 18 c 0,118,119
 214 -14 214 -14 158 -38.5 c 128,-1,120
 102 -63 102 -63 45 -74 c 0,121,122
 22 -79 22 -79 0 -74 c 1,123,124
 43 -25 43 -25 79 35.5 c 128,-1,125
 115 96 115 96 141 163.5 c 128,-1,126
 167 231 167 231 181.5 304 c 128,-1,127
 196 377 196 377 196 451 c 0,128,129
 196 488 196 488 194 528 c 128,-1,130
 192 568 192 568 184 607 c 128,-1,131
 176 646 176 646 158.5 682 c 128,-1,132
 141 718 141 718 111 746 c 0,133,134
 107 749 107 749 105 754 c 128,-1,135
 103 759 103 759 108 767 c 1,136,137
 137 779 137 779 166 795.5 c 128,-1,138
 195 812 195 812 221 829.5 c 128,-1,139
 247 847 247 847 269.5 865 c 128,-1,140
 292 883 292 883 309 900 c 0,141,142
 318 905 318 905 327 900 c 0,143,144
 349 878 349 878 366.5 845 c 128,-1,145
 384 812 384 812 396 774 c 0,146,147
 404 750 404 750 408 728 c 128,-1,148
 412 706 412 706 414 683 c 1,0,1
EndSplineSet
Validated: 1
EndChar

StartChar: uniE014
Encoding: 57364 57364 23

Width: 1338
Flags: W
LayerCount: 2
Fore
SplineSet
414 683 m 1,0,1
 454 734 454 734 503 774.5 c 128,-1,2
 552 815 552 815 607 843.5 c 128,-1,3
 662 872 662 872 722 887 c 128,-1,4
 782 902 782 902 845 902 c 0,5,6
 939 902 939 902 1021.5 871 c 128,-1,7
 1104 840 1104 840 1165.5 784 c 128,-1,8
 1227 728 1227 728 1262.5 649.5 c 128,-1,9
 1298 571 1298 571 1298 476 c 0,10,11
 1298 408 1298 408 1277.5 342.5 c 128,-1,12
 1257 277 1257 277 1219 217 c 0,13,14
 1157 121 1157 121 1052 62 c 0,15,16
 997 32 997 32 934.5 16 c 128,-1,17
 872 0 872 0 798 0 c 0,18,19
 762 0 762 0 730 9 c 128,-1,20
 698 18 698 18 673.5 36 c 128,-1,21
 649 54 649 54 635 81.5 c 128,-1,22
 621 109 621 109 621 147 c 0,23,24
 621 170 621 170 630.5 191.5 c 128,-1,25
 640 213 640 213 656 229 c 128,-1,26
 672 245 672 245 694 254.5 c 128,-1,27
 716 264 716 264 740 264 c 0,28,29
 786 264 786 264 811 244 c 128,-1,30
 836 224 836 224 853.5 200 c 128,-1,31
 871 176 871 176 888.5 156 c 128,-1,32
 906 136 906 136 937 136 c 0,33,34
 976 136 976 136 1002 162.5 c 128,-1,35
 1028 189 1028 189 1043.5 228 c 128,-1,36
 1059 267 1059 267 1065.5 310.5 c 128,-1,37
 1072 354 1072 354 1072 387 c 0,38,39
 1072 454 1072 454 1054 521 c 128,-1,40
 1036 588 1036 588 1000 641 c 128,-1,41
 964 694 964 694 910 727.5 c 128,-1,42
 856 761 856 761 784 761 c 0,43,44
 719 761 719 761 665.5 738 c 128,-1,45
 612 715 612 715 570 675 c 128,-1,46
 528 635 528 635 497.5 582.5 c 128,-1,47
 467 530 467 530 448 470 c 0,48,49
 434 428 434 428 424.5 380.5 c 128,-1,50
 415 333 415 333 415 287 c 0,51,52
 415 260 415 260 422.5 239.5 c 128,-1,53
 430 219 430 219 430 194 c 0,54,55
 430 163 430 163 413 142 c 0,56,57
 402 126 402 126 389 113.5 c 128,-1,58
 376 101 376 101 360 88 c 0,59,60
 338 71 338 71 313.5 52.5 c 128,-1,61
 289 34 289 34 263 18 c 0,62,63
 214 -14 214 -14 158 -38.5 c 128,-1,64
 102 -63 102 -63 45 -74 c 0,65,66
 22 -79 22 -79 0 -74 c 1,67,68
 43 -25 43 -25 79 35.5 c 128,-1,69
 115 96 115 96 141 163.5 c 128,-1,70
 167 231 167 231 181.5 304 c 128,-1,71
 196 377 196 377 196 451 c 0,72,73
 196 488 196 488 194 528 c 128,-1,74
 192 568 192 568 184 607 c 128,-1,75
 176 646 176 646 158.5 682 c 128,-1,76
 141 718 141 718 111 746 c 0,77,78
 107 749 107 749 105 754 c 128,-1,79
 103 759 103 759 108 767 c 1,80,81
 137 779 137 779 166 795.5 c 128,-1,82
 195 812 195 812 221 829.5 c 128,-1,83
 247 847 247 847 269.5 865 c 128,-1,84
 292 883 292 883 309 900 c 0,85,86
 318 905 318 905 327 900 c 0,87,88
 349 878 349 878 366.5 845 c 128,-1,89
 384 812 384 812 396 774 c 0,90,91
 404 750 404 750 408 728 c 128,-1,92
 412 706 412 706 414 683 c 1,0,1
EndSplineSet
Validated: 1
EndChar

StartChar: uniE024
Encoding: 57380 57380 24

Width: 1146
Flags: W
LayerCount: 2
Fore
SplineSet
1106 467 m 0,0,1
 1106 363 1106 363 1065.5 277 c 128,-1,2
 1025 191 1025 191 956 129.5 c 128,-1,3
 887 68 887 68 795.5 34 c 128,-1,4
 704 0 704 0 603 0 c 0,5,6
 499 0 499 0 400.5 33 c 128,-1,7
 302 66 302 66 225.5 129 c 128,-1,8
 149 192 149 192 104.5 282.5 c 128,-1,9
 60 373 60 373 64 489 c 0,10,11
 68 599 68 599 110.5 693 c 128,-1,12
 153 787 153 787 222 874 c 0,13,14
 294 964 294 964 385.5 1048 c 128,-1,15
 477 1132 477 1132 575 1222 c 0,16,17
 597 1242 597 1242 615.5 1259 c 128,-1,18
 634 1276 634 1276 652 1292.5 c 128,-1,19
 670 1309 670 1309 688.5 1327 c 128,-1,20
 707 1345 707 1345 729 1366 c 0,21,22
 743 1380 743 1380 763.5 1402.5 c 128,-1,23
 784 1425 784 1425 806.5 1452.5 c 128,-1,24
 829 1480 829 1480 850.5 1512.5 c 128,-1,25
 872 1545 872 1545 889 1578 c 0,26,27
 907 1615 907 1615 914.5 1651 c 128,-1,28
 922 1687 922 1687 920 1719 c 1,29,30
 945 1717 945 1717 967 1708.5 c 128,-1,31
 989 1700 989 1700 1006 1684 c 128,-1,32
 1023 1668 1023 1668 1033 1644 c 128,-1,33
 1043 1620 1043 1620 1045 1588 c 0,34,35
 1047 1555 1047 1555 1033.5 1516 c 128,-1,36
 1020 1477 1020 1477 987 1433 c 0,37,38
 975 1418 975 1418 964.5 1405 c 128,-1,39
 954 1392 954 1392 943 1380 c 0,40,41
 917 1351 917 1351 892.5 1327.5 c 128,-1,42
 868 1304 868 1304 840 1276 c 0,43,44
 804 1240 804 1240 768 1206.5 c 128,-1,45
 732 1173 732 1173 686 1130 c 0,46,47
 637 1084 637 1084 589 1039.5 c 128,-1,48
 541 995 541 995 497 951 c 128,-1,49
 453 907 453 907 415.5 863.5 c 128,-1,50
 378 820 378 820 350 775 c 0,51,52
 318 723 318 723 303 669.5 c 128,-1,53
 288 616 288 616 288 563 c 0,54,55
 288 479 288 479 320.5 412.5 c 128,-1,56
 353 346 353 346 408.5 299.5 c 128,-1,57
 464 253 464 253 537 228 c 128,-1,58
 610 203 610 203 690 202 c 0,59,60
 761 201 761 201 821.5 220 c 128,-1,61
 882 239 882 239 931 288 c 0,62,63
 942 299 942 299 949 311.5 c 128,-1,64
 956 324 956 324 958 338 c 0,65,66
 960 355 960 355 949.5 367 c 128,-1,67
 939 379 939 379 924 390 c 0,68,69
 894 410 894 410 871.5 437 c 128,-1,70
 849 464 849 464 849 504 c 0,71,72
 849 533 849 533 859.5 556 c 128,-1,73
 870 579 870 579 887.5 595.5 c 128,-1,74
 905 612 905 612 927 621 c 128,-1,75
 949 630 949 630 972 630 c 0,76,77
 1006 630 1006 630 1031.5 616.5 c 128,-1,78
 1057 603 1057 603 1073.5 580 c 128,-1,79
 1090 557 1090 557 1098 527.5 c 128,-1,80
 1106 498 1106 498 1106 467 c 0,0,1
EndSplineSet
Validated: 33
EndChar

StartChar: uniE028
Encoding: 57384 57384 25

Width: 1340
Flags: W
LayerCount: 2
Fore
SplineSet
1083 271 m 2,0,1
 1092 249 1092 249 1104.5 225.5 c 128,-1,2
 1117 202 1117 202 1133 181.5 c 128,-1,3
 1149 161 1149 161 1169 147.5 c 128,-1,4
 1189 134 1189 134 1213 132 c 0,5,6
 1242 130 1242 130 1280 149 c 1,7,8
 1298 146 1298 146 1306 130 c 128,-1,9
 1314 114 1314 114 1315 100 c 1,10,11
 1283 67 1283 67 1225 37 c 0,12,13
 1190 20 1190 20 1158 10 c 128,-1,14
 1126 0 1126 0 1097 0 c 0,15,16
 1058 4 1058 4 1025 23.5 c 128,-1,17
 992 43 992 43 964 73.5 c 128,-1,18
 936 104 936 104 912.5 143 c 128,-1,19
 889 182 889 182 869 225 c 2,20,-1
 654 686 l 1,21,22
 614 619 614 619 576 556 c 128,-1,23
 538 493 538 493 500.5 430.5 c 128,-1,24
 463 368 463 368 425.5 305.5 c 128,-1,25
 388 243 388 243 348 176 c 0,26,27
 328 142 328 142 304 112 c 128,-1,28
 280 82 280 82 251.5 58.5 c 128,-1,29
 223 35 223 35 189.5 19.5 c 128,-1,30
 156 4 156 4 117 0 c 1,31,32
 85 2 85 2 60.5 13 c 128,-1,33
 36 24 36 24 12 42 c 0,34,35
 -1 52 -1 52 1 69.5 c 128,-1,36
 3 87 3 87 12 106 c 128,-1,37
 21 125 21 125 33.5 142 c 128,-1,38
 46 159 46 159 54 168 c 0,39,40
 61 177 61 177 73 190.5 c 128,-1,41
 85 204 85 204 99.5 215 c 128,-1,42
 114 226 114 226 128.5 231 c 128,-1,43
 143 236 143 236 155 228 c 0,44,45
 166 220 166 220 178 213 c 128,-1,46
 190 206 190 206 206 204 c 0,47,48
 224 204 224 204 241 234 c 0,49,50
 286 310 286 310 328.5 383.5 c 128,-1,51
 371 457 371 457 413.5 530.5 c 128,-1,52
 456 604 456 604 499.5 677.5 c 128,-1,53
 543 751 543 751 588 828 c 1,54,-1
 355 1369 l 2,55,56
 336 1412 336 1412 326 1435 c 128,-1,57
 316 1458 316 1458 312 1462 c 0,58,59
 283 1506 283 1506 238 1503 c 0,60,61
 171 1499 171 1499 138 1434 c 0,62,63
 126 1411 126 1411 116 1397 c 1,64,65
 88 1384 88 1384 67.5 1396.5 c 128,-1,66
 47 1409 47 1409 47 1435 c 1,67,68
 52 1450 52 1450 60.5 1469.5 c 128,-1,69
 69 1489 69 1489 81 1512 c 0,70,71
 170 1685 170 1685 313 1683 c 0,72,73
 417 1681 417 1681 479 1603 c 0,74,75
 494 1584 494 1584 515 1543.5 c 128,-1,76
 536 1503 536 1503 564 1440 c 2,77,-1
 1083 271 l 2,0,1
EndSplineSet
Validated: 33
EndChar

StartChar: uniEC12
Encoding: 60434 60434 26

Width: 2
Flags: W
LayerCount: 2
Fore
SplineSet
-1170 -294 m 2,0,1
 -1235 -279 -1235 -279 -1278 -270 c 128,-1,2
 -1321 -261 -1321 -261 -1358 -261 c 0,3,4
 -1407 -261 -1407 -261 -1446.5 -278 c 128,-1,5
 -1486 -295 -1486 -295 -1532 -335 c 0,6,7
 -1540 -342 -1540 -342 -1547.5 -348 c 128,-1,8
 -1555 -354 -1555 -354 -1564 -361 c 0,9,10
 -1579 -366 -1579 -366 -1585 -359 c 128,-1,11
 -1591 -352 -1591 -352 -1589 -341 c 0,12,13
 -1581 -321 -1581 -321 -1571 -301 c 128,-1,14
 -1561 -281 -1561 -281 -1549 -264 c 0,15,16
 -1521 -222 -1521 -222 -1483 -190.5 c 128,-1,17
 -1445 -159 -1445 -159 -1400.5 -137.5 c 128,-1,18
 -1356 -116 -1356 -116 -1307 -105 c 128,-1,19
 -1258 -94 -1258 -94 -1207 -94 c 0,20,21
 -1144 -94 -1144 -94 -1078 -109 c 2,22,-1
 -749 -184 l 2,23,24
 -684 -199 -684 -199 -641 -208 c 128,-1,25
 -598 -217 -598 -217 -561 -217 c 0,26,27
 -513 -217 -513 -217 -473 -200.5 c 128,-1,28
 -433 -184 -433 -184 -387 -143 c 0,29,30
 -379 -136 -379 -136 -371.5 -130 c 128,-1,31
 -364 -124 -364 -124 -355 -117 c 0,32,33
 -340 -112 -340 -112 -334 -119 c 128,-1,34
 -328 -126 -328 -126 -330 -137 c 0,35,36
 -338 -157 -338 -157 -348 -177 c 128,-1,37
 -358 -197 -358 -197 -370 -214 c 0,38,39
 -399 -256 -399 -256 -436.5 -287.5 c 128,-1,40
 -474 -319 -474 -319 -518.5 -340.5 c 128,-1,41
 -563 -362 -563 -362 -612 -373 c 128,-1,42
 -661 -384 -661 -384 -712 -384 c 0,43,44
 -775 -384 -775 -384 -841 -369 c 2,45,-1
 -1170 -294 l 2,0,1
EndSplineSet
Validated: 1
EndChar

StartChar: uniEC11
Encoding: 60433 60433 27

Width: 2
Flags: W
LayerCount: 2
Fore
SplineSet
-846 -271 m 2,0,1
 -890 -257 -890 -257 -918 -249.5 c 128,-1,2
 -946 -242 -946 -242 -972 -242 c 0,3,4
 -1004 -242 -1004 -242 -1030.5 -256 c 128,-1,5
 -1057 -270 -1057 -270 -1088 -306 c 0,6,7
 -1093 -312 -1093 -312 -1098 -317.5 c 128,-1,8
 -1103 -323 -1103 -323 -1109 -329 c 0,9,10
 -1120 -334 -1120 -334 -1124 -327.5 c 128,-1,11
 -1128 -321 -1128 -321 -1126 -311 c 0,12,13
 -1115 -274 -1115 -274 -1099 -244 c 0,14,15
 -1060 -171 -1060 -171 -1000 -132.5 c 128,-1,16
 -940 -94 -940 -94 -872 -94 c 0,17,18
 -850 -94 -850 -94 -828 -97.5 c 128,-1,19
 -806 -101 -806 -101 -785 -107 c 2,20,-1
 -566 -172 l 2,21,22
 -523 -186 -523 -186 -494.5 -193.5 c 128,-1,23
 -466 -201 -466 -201 -440 -201 c 0,24,25
 -408 -201 -408 -201 -381.5 -187 c 128,-1,26
 -355 -173 -355 -173 -325 -137 c 0,27,28
 -319 -131 -319 -131 -314 -125.5 c 128,-1,29
 -309 -120 -309 -120 -303 -114 c 0,30,31
 -293 -109 -293 -109 -289 -115.5 c 128,-1,32
 -285 -122 -285 -122 -287 -132 c 0,33,34
 -292 -149 -292 -149 -299 -167 c 128,-1,35
 -306 -185 -306 -185 -314 -199 c 0,36,37
 -352 -272 -352 -272 -412 -310.5 c 128,-1,38
 -472 -349 -472 -349 -540 -349 c 0,39,40
 -562 -349 -562 -349 -584 -345.5 c 128,-1,41
 -606 -342 -606 -342 -627 -336 c 2,42,-1
 -846 -271 l 2,0,1
EndSplineSet
Validated: 1
EndChar

StartChar: uni603C
Encoding: 24636 24636 28

Width: 1381
Flags: W
LayerCount: 2
Fore
SplineSet
1014 188 m 1,0,1
 1004 225 1004 225 1000.5 261 c 128,-1,2
 997 297 997 297 993 333 c 0,3,4
 985 418 985 418 957.5 498.5 c 128,-1,5
 930 579 930 579 870 645 c 0,6,7
 822 698 822 698 760 729.5 c 128,-1,8
 698 761 698 761 624 761 c 0,9,10
 558 761 558 761 506.5 735.5 c 128,-1,11
 455 710 455 710 419.5 667.5 c 128,-1,12
 384 625 384 625 365.5 569.5 c 128,-1,13
 347 514 347 514 347 454 c 0,14,15
 347 365 347 365 379 297 c 128,-1,16
 411 229 411 229 489 188 c 1,17,-1
 1014 188 l 1,0,1
995 682 m 1,18,-1
 995 1181 l 2,19,20
 995 1209 995 1209 995 1233.5 c 128,-1,21
 995 1258 995 1258 994.5 1282 c 128,-1,22
 994 1306 994 1306 993 1331 c 128,-1,23
 992 1356 992 1356 991 1385 c 0,24,25
 989 1410 989 1410 985.5 1438.5 c 128,-1,26
 982 1467 982 1467 973 1495.5 c 128,-1,27
 964 1524 964 1524 948.5 1550.5 c 128,-1,28
 933 1577 933 1577 909 1599 c 0,29,30
 905 1602 905 1602 903 1607 c 128,-1,31
 901 1612 901 1612 906 1620 c 1,32,33
 935 1632 935 1632 964 1648.5 c 128,-1,34
 993 1665 993 1665 1019 1682.5 c 128,-1,35
 1045 1700 1045 1700 1067.5 1718 c 128,-1,36
 1090 1736 1090 1736 1107 1753 c 0,37,38
 1116 1758 1116 1758 1125 1753 c 0,39,40
 1147 1731 1147 1731 1164.5 1698 c 128,-1,41
 1182 1665 1182 1665 1194 1627 c 0,42,43
 1208 1582 1208 1582 1210.5 1541 c 128,-1,44
 1213 1500 1213 1500 1213 1454 c 2,45,-1
 1213 773 l 2,46,47
 1213 709 1213 709 1213 636 c 128,-1,48
 1213 563 1213 563 1217 486.5 c 128,-1,49
 1221 410 1221 410 1230 332.5 c 128,-1,50
 1239 255 1239 255 1258 182.5 c 128,-1,51
 1277 110 1277 110 1306.5 45 c 128,-1,52
 1336 -20 1336 -20 1381 -72 c 1,53,54
 1370 -74 1370 -74 1358.5 -74 c 128,-1,55
 1347 -74 1347 -74 1336 -72 c 0,56,57
 1310 -68 1310 -68 1285 -60 c 128,-1,58
 1260 -52 1260 -52 1234 -42 c 0,59,60
 1212 -33 1212 -33 1190 -22.5 c 128,-1,61
 1168 -12 1168 -12 1146 0 c 1,62,-1
 922 0 l 1,63,-1
 396 0 l 2,64,65
 310 0 310 0 244 8 c 128,-1,66
 178 16 178 16 130.5 41.5 c 128,-1,67
 83 67 83 67 53 114.5 c 128,-1,68
 23 162 23 162 9 240 c 0,69,70
 7 253 7 253 4.5 267.5 c 128,-1,71
 2 282 2 282 0 296 c 1,72,73
 5 306 5 306 15 303 c 1,74,75
 60 260 60 260 111.5 239.5 c 128,-1,76
 163 219 163 219 220 209 c 1,77,78
 166 262 166 262 138 335 c 128,-1,79
 110 408 110 408 110 482 c 0,80,81
 110 575 110 575 146 652 c 128,-1,82
 182 729 182 729 244 784.5 c 128,-1,83
 306 840 306 840 388.5 871 c 128,-1,84
 471 902 471 902 563 902 c 0,85,86
 626 902 626 902 686 886.5 c 128,-1,87
 746 871 746 871 801.5 842.5 c 128,-1,88
 857 814 857 814 906 773.5 c 128,-1,89
 955 733 955 733 995 682 c 1,18,-1
EndSplineSet
Validated: 1
EndChar

StartChar: uni2E31
Encoding: 11825 11825 29

Width: 526
Flags: W
LayerCount: 2
Fore
SplineSet
120 472 m 256,0,1
 120 495 120 495 129 515.5 c 128,-1,2
 138 536 138 536 153.5 551.5 c 128,-1,3
 169 567 169 567 189.5 576 c 128,-1,4
 210 585 210 585 233 585 c 256,5,6
 256 585 256 585 276.5 576 c 128,-1,7
 297 567 297 567 312.5 551.5 c 128,-1,8
 328 536 328 536 337 515.5 c 128,-1,9
 346 495 346 495 346 472 c 256,10,11
 346 449 346 449 337 428.5 c 128,-1,12
 328 408 328 408 312.5 392.5 c 128,-1,13
 297 377 297 377 276.5 368 c 128,-1,14
 256 359 256 359 233 359 c 256,15,16
 210 359 210 359 189.5 368 c 128,-1,17
 169 377 169 377 153.5 392.5 c 128,-1,18
 138 408 138 408 129 428.5 c 128,-1,19
 120 449 120 449 120 472 c 256,0,1
EndSplineSet
Validated: 1
EndChar

StartChar: uni603F
Encoding: 24639 24639 30

Width: 2
Flags: W
LayerCount: 2
Fore
SplineSet
-1170 -814 m 2,0,1
 -1235 -799 -1235 -799 -1278 -790 c 128,-1,2
 -1321 -781 -1321 -781 -1358 -781 c 0,3,4
 -1407 -781 -1407 -781 -1446.5 -798 c 128,-1,5
 -1486 -815 -1486 -815 -1532 -855 c 0,6,7
 -1540 -862 -1540 -862 -1547.5 -868 c 128,-1,8
 -1555 -874 -1555 -874 -1564 -881 c 0,9,10
 -1579 -886 -1579 -886 -1585 -879 c 128,-1,11
 -1591 -872 -1591 -872 -1589 -861 c 0,12,13
 -1581 -841 -1581 -841 -1571 -821 c 128,-1,14
 -1561 -801 -1561 -801 -1549 -784 c 0,15,16
 -1521 -742 -1521 -742 -1483 -710.5 c 128,-1,17
 -1445 -679 -1445 -679 -1400.5 -657.5 c 128,-1,18
 -1356 -636 -1356 -636 -1307 -625 c 128,-1,19
 -1258 -614 -1258 -614 -1207 -614 c 0,20,21
 -1144 -614 -1144 -614 -1078 -629 c 2,22,-1
 -749 -704 l 2,23,24
 -684 -719 -684 -719 -641 -728 c 128,-1,25
 -598 -737 -598 -737 -561 -737 c 0,26,27
 -513 -737 -513 -737 -473 -720.5 c 128,-1,28
 -433 -704 -433 -704 -387 -663 c 0,29,30
 -379 -656 -379 -656 -371.5 -650 c 128,-1,31
 -364 -644 -364 -644 -355 -637 c 0,32,33
 -340 -632 -340 -632 -334 -639 c 128,-1,34
 -328 -646 -328 -646 -330 -657 c 0,35,36
 -338 -677 -338 -677 -348 -697 c 128,-1,37
 -358 -717 -358 -717 -370 -734 c 0,38,39
 -399 -776 -399 -776 -436.5 -807.5 c 128,-1,40
 -474 -839 -474 -839 -518.5 -860.5 c 128,-1,41
 -563 -882 -563 -882 -612 -893 c 128,-1,42
 -661 -904 -661 -904 -712 -904 c 0,43,44
 -775 -904 -775 -904 -841 -889 c 2,45,-1
 -1170 -814 l 2,0,1
EndSplineSet
Validated: 1
EndChar

StartChar: uniE01C
Encoding: 57372 57372 31

Width: 1958
Flags: W
LayerCount: 2
Fore
SplineSet
365 682 m 1,0,1
 399 731 399 731 444.5 772 c 128,-1,2
 490 813 490 813 543.5 841.5 c 128,-1,3
 597 870 597 870 655 886 c 128,-1,4
 713 902 713 902 773 902 c 0,5,6
 884 902 884 902 974.5 852.5 c 128,-1,7
 1065 803 1065 803 1120 718 c 1,8,9
 1155 760 1155 760 1199 794 c 128,-1,10
 1243 828 1243 828 1292.5 852 c 128,-1,11
 1342 876 1342 876 1395 889 c 128,-1,12
 1448 902 1448 902 1502 902 c 0,13,14
 1590 902 1590 902 1666 870 c 128,-1,15
 1742 838 1742 838 1798 782 c 128,-1,16
 1854 726 1854 726 1886 649.5 c 128,-1,17
 1918 573 1918 573 1918 483 c 0,18,19
 1918 405 1918 405 1890.5 329 c 128,-1,20
 1863 253 1863 253 1812 188 c 0,21,22
 1781 149 1781 149 1742.5 114.5 c 128,-1,23
 1704 80 1704 80 1659 54.5 c 128,-1,24
 1614 29 1614 29 1565 14.5 c 128,-1,25
 1516 0 1516 0 1464 0 c 0,26,27
 1432 0 1432 0 1402 9 c 128,-1,28
 1372 18 1372 18 1349 36 c 128,-1,29
 1326 54 1326 54 1312.5 81.5 c 128,-1,30
 1299 109 1299 109 1299 147 c 0,31,32
 1299 170 1299 170 1308.5 191.5 c 128,-1,33
 1318 213 1318 213 1334 229 c 128,-1,34
 1350 245 1350 245 1372 254.5 c 128,-1,35
 1394 264 1394 264 1418 264 c 0,36,37
 1447 264 1447 264 1468 255.5 c 128,-1,38
 1489 247 1489 247 1504.5 233.5 c 128,-1,39
 1520 220 1520 220 1531.5 205 c 128,-1,40
 1543 190 1543 190 1553.5 176.5 c 128,-1,41
 1564 163 1564 163 1575.5 154.5 c 128,-1,42
 1587 146 1587 146 1603 146 c 0,43,44
 1624 146 1624 146 1639.5 159 c 128,-1,45
 1655 172 1655 172 1665.5 192 c 128,-1,46
 1676 212 1676 212 1683 237.5 c 128,-1,47
 1690 263 1690 263 1693.5 287.5 c 128,-1,48
 1697 312 1697 312 1698.5 334 c 128,-1,49
 1700 356 1700 356 1700 370 c 0,50,51
 1700 429 1700 429 1684.5 497 c 128,-1,52
 1669 565 1669 565 1636 623 c 128,-1,53
 1603 681 1603 681 1551.5 719.5 c 128,-1,54
 1500 758 1500 758 1429 758 c 0,55,56
 1388 758 1388 758 1351.5 744 c 128,-1,57
 1315 730 1315 730 1283.5 706 c 128,-1,58
 1252 682 1252 682 1225.5 649 c 128,-1,59
 1199 616 1199 616 1178 578 c 1,60,61
 1189 531 1189 531 1189 483 c 0,62,63
 1189 405 1189 405 1161.5 329 c 128,-1,64
 1134 253 1134 253 1083 188 c 0,65,66
 1052 149 1052 149 1013.5 114.5 c 128,-1,67
 975 80 975 80 930 54.5 c 128,-1,68
 885 29 885 29 836 14.5 c 128,-1,69
 787 0 787 0 735 0 c 0,70,71
 703 0 703 0 673 9 c 128,-1,72
 643 18 643 18 620 36 c 128,-1,73
 597 54 597 54 583.5 81.5 c 128,-1,74
 570 109 570 109 570 147 c 0,75,76
 570 170 570 170 579.5 191.5 c 128,-1,77
 589 213 589 213 605 229 c 128,-1,78
 621 245 621 245 643 254.5 c 128,-1,79
 665 264 665 264 689 264 c 0,80,81
 718 264 718 264 739 255.5 c 128,-1,82
 760 247 760 247 775.5 233.5 c 128,-1,83
 791 220 791 220 802.5 205 c 128,-1,84
 814 190 814 190 824.5 176.5 c 128,-1,85
 835 163 835 163 846.5 154.5 c 128,-1,86
 858 146 858 146 874 146 c 0,87,88
 895 146 895 146 910.5 159 c 128,-1,89
 926 172 926 172 936.5 192 c 128,-1,90
 947 212 947 212 954 237.5 c 128,-1,91
 961 263 961 263 964.5 287.5 c 128,-1,92
 968 312 968 312 969.5 334 c 128,-1,93
 971 356 971 356 971 370 c 0,94,95
 971 429 971 429 955.5 497 c 128,-1,96
 940 565 940 565 907 623 c 128,-1,97
 874 681 874 681 822.5 719.5 c 128,-1,98
 771 758 771 758 700 758 c 0,99,100
 645 758 645 758 599 734.5 c 128,-1,101
 553 711 553 711 516 671.5 c 128,-1,102
 479 632 479 632 450.5 581 c 128,-1,103
 422 530 422 530 403 474 c 128,-1,104
 384 418 384 418 374.5 362 c 128,-1,105
 365 306 365 306 365 257 c 2,106,-1
 365 -601 l 2,107,108
 365 -626 365 -626 371.5 -641.5 c 128,-1,109
 378 -657 378 -657 386.5 -668 c 128,-1,110
 395 -679 395 -679 402 -687.5 c 128,-1,111
 409 -696 409 -696 410 -706 c 0,112,113
 412 -726 412 -726 400 -747.5 c 128,-1,114
 388 -769 388 -769 377 -783 c 0,115,116
 350 -818 350 -818 320.5 -850 c 128,-1,117
 291 -882 291 -882 256 -915 c 0,118,119
 204 -964 204 -964 145.5 -1004.5 c 128,-1,120
 87 -1045 87 -1045 33 -1067 c 0,121,122
 2 -1080 2 -1080 -26 -1085.5 c 128,-1,123
 -54 -1091 -54 -1091 -80 -1086 c 1,124,125
 0 -957 0 -957 45.5 -814 c 128,-1,126
 91 -671 91 -671 113.5 -523.5 c 128,-1,127
 136 -376 136 -376 141.5 -230 c 128,-1,128
 147 -84 147 -84 147 50 c 2,129,-1
 147 1181 l 2,130,131
 147 1209 147 1209 147 1233.5 c 128,-1,132
 147 1258 147 1258 146.5 1282 c 128,-1,133
 146 1306 146 1306 145 1331 c 128,-1,134
 144 1356 144 1356 143 1385 c 0,135,136
 141 1410 141 1410 137.5 1438.5 c 128,-1,137
 134 1467 134 1467 125 1495.5 c 128,-1,138
 116 1524 116 1524 100.5 1550.5 c 128,-1,139
 85 1577 85 1577 61 1599 c 0,140,141
 57 1602 57 1602 55 1607 c 128,-1,142
 53 1612 53 1612 58 1620 c 1,143,144
 87 1632 87 1632 116 1648.5 c 128,-1,145
 145 1665 145 1665 171 1682.5 c 128,-1,146
 197 1700 197 1700 219.5 1718 c 128,-1,147
 242 1736 242 1736 259 1753 c 0,148,149
 268 1758 268 1758 277 1753 c 0,150,151
 299 1731 299 1731 316.5 1698 c 128,-1,152
 334 1665 334 1665 346 1627 c 0,153,154
 360 1582 360 1582 362.5 1541 c 128,-1,155
 365 1500 365 1500 365 1454 c 2,156,-1
 365 682 l 1,0,1
EndSplineSet
Validated: 1
EndChar

StartChar: uniE01A
Encoding: 57370 57370 32

Width: 1268
Flags: W
LayerCount: 2
Fore
SplineSet
944 220 m 1,0,1
 904 169 904 169 855 128.5 c 128,-1,2
 806 88 806 88 751 59.5 c 128,-1,3
 696 31 696 31 636 15.5 c 128,-1,4
 576 0 576 0 513 0 c 0,5,6
 419 0 419 0 336.5 31 c 128,-1,7
 254 62 254 62 192.5 118 c 128,-1,8
 131 174 131 174 95.5 252.5 c 128,-1,9
 60 331 60 331 60 426 c 0,10,11
 60 494 60 494 80.5 559.5 c 128,-1,12
 101 625 101 625 139 685 c 0,13,14
 201 781 201 781 306 840 c 0,15,16
 361 870 361 870 423.5 886 c 128,-1,17
 486 902 486 902 560 902 c 0,18,19
 596 902 596 902 628 893 c 128,-1,20
 660 884 660 884 684.5 866 c 128,-1,21
 709 848 709 848 723 820.5 c 128,-1,22
 737 793 737 793 737 755 c 0,23,24
 737 732 737 732 727.5 710.5 c 128,-1,25
 718 689 718 689 702 673 c 128,-1,26
 686 657 686 657 664 647.5 c 128,-1,27
 642 638 642 638 618 638 c 0,28,29
 572 638 572 638 547 658 c 128,-1,30
 522 678 522 678 504.5 702 c 128,-1,31
 487 726 487 726 469.5 746 c 128,-1,32
 452 766 452 766 421 766 c 0,33,34
 382 766 382 766 356 739.5 c 128,-1,35
 330 713 330 713 314.5 674 c 128,-1,36
 299 635 299 635 292.5 591.5 c 128,-1,37
 286 548 286 548 286 515 c 0,38,39
 286 448 286 448 304 381 c 128,-1,40
 322 314 322 314 358 261 c 128,-1,41
 394 208 394 208 448 174.5 c 128,-1,42
 502 141 502 141 574 141 c 0,43,44
 636 141 636 141 688 162.5 c 128,-1,45
 740 184 740 184 781 220.5 c 128,-1,46
 822 257 822 257 852.5 306.5 c 128,-1,47
 883 356 883 356 903.5 412 c 128,-1,48
 924 468 924 468 934 527.5 c 128,-1,49
 944 587 944 587 944 645 c 2,50,-1
 944 1181 l 2,51,52
 944 1209 944 1209 944 1233.5 c 128,-1,53
 944 1258 944 1258 943.5 1282 c 128,-1,54
 943 1306 943 1306 942 1331 c 128,-1,55
 941 1356 941 1356 940 1385 c 0,56,57
 938 1410 938 1410 934.5 1438.5 c 128,-1,58
 931 1467 931 1467 922 1495.5 c 128,-1,59
 913 1524 913 1524 897.5 1550.5 c 128,-1,60
 882 1577 882 1577 858 1599 c 0,61,62
 854 1602 854 1602 852 1607 c 128,-1,63
 850 1612 850 1612 855 1620 c 1,64,65
 884 1632 884 1632 913 1648.5 c 128,-1,66
 942 1665 942 1665 968 1682.5 c 128,-1,67
 994 1700 994 1700 1016.5 1718 c 128,-1,68
 1039 1736 1039 1736 1056 1753 c 0,69,70
 1065 1758 1065 1758 1074 1753 c 0,71,72
 1096 1731 1096 1731 1113.5 1698 c 128,-1,73
 1131 1665 1131 1665 1143 1627 c 0,74,75
 1157 1582 1157 1582 1159.5 1541 c 128,-1,76
 1162 1500 1162 1500 1162 1454 c 2,77,-1
 1162 -601 l 2,78,79
 1162 -626 1162 -626 1168.5 -641.5 c 128,-1,80
 1175 -657 1175 -657 1183.5 -668 c 128,-1,81
 1192 -679 1192 -679 1199 -687.5 c 128,-1,82
 1206 -696 1206 -696 1207 -706 c 0,83,84
 1209 -726 1209 -726 1197 -747.5 c 128,-1,85
 1185 -769 1185 -769 1174 -783 c 0,86,87
 1147 -818 1147 -818 1117.5 -850 c 128,-1,88
 1088 -882 1088 -882 1053 -915 c 0,89,90
 1001 -964 1001 -964 942.5 -1004.5 c 128,-1,91
 884 -1045 884 -1045 830 -1067 c 0,92,93
 799 -1080 799 -1080 771 -1085.5 c 128,-1,94
 743 -1091 743 -1091 717 -1086 c 1,95,96
 797 -957 797 -957 842.5 -814 c 128,-1,97
 888 -671 888 -671 910.5 -523.5 c 128,-1,98
 933 -376 933 -376 938.5 -230 c 128,-1,99
 944 -84 944 -84 944 50 c 2,100,-1
 944 220 l 1,0,1
EndSplineSet
Validated: 1
EndChar

StartChar: uniEC60
Encoding: 60512 60512 33

Width: 2
Flags: W
LayerCount: 2
Fore
SplineSet
-423 1452 m 256,0,1
 -423 1475 -423 1475 -414 1495.5 c 128,-1,2
 -405 1516 -405 1516 -389.5 1531.5 c 128,-1,3
 -374 1547 -374 1547 -353.5 1556 c 128,-1,4
 -333 1565 -333 1565 -310 1565 c 256,5,6
 -287 1565 -287 1565 -266.5 1556 c 128,-1,7
 -246 1547 -246 1547 -230.5 1531.5 c 128,-1,8
 -215 1516 -215 1516 -206 1495.5 c 128,-1,9
 -197 1475 -197 1475 -197 1452 c 256,10,11
 -197 1429 -197 1429 -206 1408.5 c 128,-1,12
 -215 1388 -215 1388 -230.5 1372.5 c 128,-1,13
 -246 1357 -246 1357 -266.5 1348 c 128,-1,14
 -287 1339 -287 1339 -310 1339 c 256,15,16
 -333 1339 -333 1339 -353.5 1348 c 128,-1,17
 -374 1357 -374 1357 -389.5 1372.5 c 128,-1,18
 -405 1388 -405 1388 -414 1408.5 c 128,-1,19
 -423 1429 -423 1429 -423 1452 c 256,0,1
EndSplineSet
Validated: 1
EndChar

StartChar: uniEC40
Encoding: 60480 60480 34

Width: 2
Flags: W
LayerCount: 2
Fore
SplineSet
-336 1334 m 0,0,1
 -336 1376 -336 1376 -336.5 1405 c 128,-1,2
 -337 1434 -337 1434 -337.5 1455 c 128,-1,3
 -338 1476 -338 1476 -339.5 1490 c 128,-1,4
 -341 1504 -341 1504 -342 1515 c 0,5,6
 -348 1558 -348 1558 -379 1618 c 1,7,8
 -348 1693 -348 1693 -298 1705 c 1,9,10
 -248 1693 -248 1693 -216 1618 c 1,11,12
 -247 1558 -247 1558 -253 1515 c 0,13,14
 -255 1504 -255 1504 -256 1490 c 128,-1,15
 -257 1476 -257 1476 -257.5 1455 c 128,-1,16
 -258 1434 -258 1434 -258.5 1405 c 128,-1,17
 -259 1376 -259 1376 -259 1334 c 0,18,19
 -259 1285 -259 1285 -298 1285 c 256,20,21
 -337 1285 -337 1285 -336 1334 c 0,0,1
-360 1261 m 0,22,23
 -360 1219 -360 1219 -398 1219 c 0,24,25
 -425 1219 -425 1219 -443 1278 c 0,26,27
 -456 1320 -456 1320 -475.5 1358 c 128,-1,28
 -495 1396 -495 1396 -524 1425 c 0,29,30
 -555 1456 -555 1456 -595 1471 c 1,31,32
 -579 1529 -579 1529 -512 1529 c 0,33,34
 -476 1529 -476 1529 -450.5 1507 c 128,-1,35
 -425 1485 -425 1485 -407 1453 c 0,36,37
 -379 1403 -379 1403 -369.5 1358.5 c 128,-1,38
 -360 1314 -360 1314 -360 1261 c 0,22,23
-236 1261 m 0,39,40
 -236 1219 -236 1219 -198 1219 c 0,41,42
 -171 1219 -171 1219 -153 1278 c 0,43,44
 -140 1320 -140 1320 -120.5 1358 c 128,-1,45
 -101 1396 -101 1396 -72 1425 c 0,46,47
 -41 1456 -41 1456 -1 1471 c 1,48,49
 -17 1529 -17 1529 -84 1529 c 0,50,51
 -120 1529 -120 1529 -145.5 1507 c 128,-1,52
 -171 1485 -171 1485 -189 1453 c 0,53,54
 -217 1403 -217 1403 -226.5 1358.5 c 128,-1,55
 -236 1314 -236 1314 -236 1261 c 0,39,40
EndSplineSet
Validated: 9
EndChar

StartChar: uniEC41
Encoding: 60481 60481 35

Width: 2
Flags: W
LayerCount: 2
Fore
SplineSet
-559 1334 m 0,0,1
 -559 1376 -559 1376 -559.5 1405 c 128,-1,2
 -560 1434 -560 1434 -560.5 1455 c 128,-1,3
 -561 1476 -561 1476 -562.5 1490 c 128,-1,4
 -564 1504 -564 1504 -565 1515 c 0,5,6
 -571 1558 -571 1558 -602 1618 c 1,7,8
 -571 1693 -571 1693 -521 1705 c 1,9,10
 -471 1693 -471 1693 -439 1618 c 1,11,12
 -470 1558 -470 1558 -476 1515 c 0,13,14
 -478 1504 -478 1504 -479 1490 c 128,-1,15
 -480 1476 -480 1476 -480.5 1455 c 128,-1,16
 -481 1434 -481 1434 -481.5 1405 c 128,-1,17
 -482 1376 -482 1376 -482 1334 c 0,18,19
 -482 1285 -482 1285 -521 1285 c 256,20,21
 -560 1285 -560 1285 -559 1334 c 0,0,1
-583 1261 m 0,22,23
 -583 1219 -583 1219 -621 1219 c 0,24,25
 -648 1219 -648 1219 -666 1278 c 0,26,27
 -679 1320 -679 1320 -698.5 1358 c 128,-1,28
 -718 1396 -718 1396 -747 1425 c 0,29,30
 -778 1456 -778 1456 -818 1471 c 1,31,32
 -802 1529 -802 1529 -735 1529 c 0,33,34
 -699 1529 -699 1529 -673.5 1507 c 128,-1,35
 -648 1485 -648 1485 -630 1453 c 0,36,37
 -602 1403 -602 1403 -592.5 1358.5 c 128,-1,38
 -583 1314 -583 1314 -583 1261 c 0,22,23
-459 1261 m 0,39,40
 -459 1219 -459 1219 -421 1219 c 0,41,42
 -394 1219 -394 1219 -376 1278 c 0,43,44
 -363 1320 -363 1320 -343.5 1358 c 128,-1,45
 -324 1396 -324 1396 -295 1425 c 0,46,47
 -264 1456 -264 1456 -224 1471 c 1,48,49
 -240 1529 -240 1529 -307 1529 c 0,50,51
 -343 1529 -343 1529 -368.5 1507 c 128,-1,52
 -394 1485 -394 1485 -412 1453 c 0,53,54
 -440 1403 -440 1403 -449.5 1358.5 c 128,-1,55
 -459 1314 -459 1314 -459 1261 c 0,39,40
EndSplineSet
Validated: 9
EndChar

StartChar: uniEC42
Encoding: 60482 60482 36

Width: 2
Flags: W
LayerCount: 2
Fore
SplineSet
-784 1334 m 0,0,1
 -784 1376 -784 1376 -784.5 1405 c 128,-1,2
 -785 1434 -785 1434 -785.5 1455 c 128,-1,3
 -786 1476 -786 1476 -787.5 1490 c 128,-1,4
 -789 1504 -789 1504 -790 1515 c 0,5,6
 -796 1558 -796 1558 -827 1618 c 1,7,8
 -796 1693 -796 1693 -746 1705 c 1,9,10
 -696 1693 -696 1693 -664 1618 c 1,11,12
 -695 1558 -695 1558 -701 1515 c 0,13,14
 -703 1504 -703 1504 -704 1490 c 128,-1,15
 -705 1476 -705 1476 -705.5 1455 c 128,-1,16
 -706 1434 -706 1434 -706.5 1405 c 128,-1,17
 -707 1376 -707 1376 -707 1334 c 0,18,19
 -707 1285 -707 1285 -746 1285 c 256,20,21
 -785 1285 -785 1285 -784 1334 c 0,0,1
-808 1261 m 0,22,23
 -808 1219 -808 1219 -846 1219 c 0,24,25
 -873 1219 -873 1219 -891 1278 c 0,26,27
 -904 1320 -904 1320 -923.5 1358 c 128,-1,28
 -943 1396 -943 1396 -972 1425 c 0,29,30
 -1003 1456 -1003 1456 -1043 1471 c 1,31,32
 -1027 1529 -1027 1529 -960 1529 c 0,33,34
 -924 1529 -924 1529 -898.5 1507 c 128,-1,35
 -873 1485 -873 1485 -855 1453 c 0,36,37
 -827 1403 -827 1403 -817.5 1358.5 c 128,-1,38
 -808 1314 -808 1314 -808 1261 c 0,22,23
-684 1261 m 0,39,40
 -684 1219 -684 1219 -646 1219 c 0,41,42
 -619 1219 -619 1219 -601 1278 c 0,43,44
 -588 1320 -588 1320 -568.5 1358 c 128,-1,45
 -549 1396 -549 1396 -520 1425 c 0,46,47
 -489 1456 -489 1456 -449 1471 c 1,48,49
 -465 1529 -465 1529 -532 1529 c 0,50,51
 -568 1529 -568 1529 -593.5 1507 c 128,-1,52
 -619 1485 -619 1485 -637 1453 c 0,53,54
 -665 1403 -665 1403 -674.5 1358.5 c 128,-1,55
 -684 1314 -684 1314 -684 1261 c 0,39,40
EndSplineSet
Validated: 9
EndChar

StartChar: uniEC51
Encoding: 60497 60497 37

Width: 2
Flags: W
LayerCount: 2
Fore
SplineSet
-341 1690 m 1,0,1
 -320 1679 -320 1679 -306.5 1657 c 128,-1,2
 -293 1635 -293 1635 -287.5 1608.5 c 128,-1,3
 -282 1582 -282 1582 -287 1554.5 c 128,-1,4
 -292 1527 -292 1527 -308 1505 c 1,5,6
 -333 1483 -333 1483 -372 1456 c 128,-1,7
 -411 1429 -411 1429 -456 1400.5 c 128,-1,8
 -501 1372 -501 1372 -548 1344.5 c 128,-1,9
 -595 1317 -595 1317 -636 1293.5 c 128,-1,10
 -677 1270 -677 1270 -707.5 1253.5 c 128,-1,11
 -738 1237 -738 1237 -750 1232 c 0,12,13
 -784 1229 -784 1229 -767 1260 c 1,14,-1
 -446 1542 l 2,15,16
 -426 1560 -426 1560 -408 1580.5 c 128,-1,17
 -390 1601 -390 1601 -376 1620.5 c 128,-1,18
 -362 1640 -362 1640 -353 1658 c 128,-1,19
 -344 1676 -344 1676 -341 1690 c 1,0,1
EndSplineSet
Validated: 1
EndChar

StartChar: uniEC61
Encoding: 60513 60513 38

Width: 2
Flags: W
LayerCount: 2
Fore
SplineSet
-684 1452 m 256,0,1
 -684 1475 -684 1475 -675 1495.5 c 128,-1,2
 -666 1516 -666 1516 -650.5 1531.5 c 128,-1,3
 -635 1547 -635 1547 -614.5 1556 c 128,-1,4
 -594 1565 -594 1565 -571 1565 c 256,5,6
 -548 1565 -548 1565 -527.5 1556 c 128,-1,7
 -507 1547 -507 1547 -491.5 1531.5 c 128,-1,8
 -476 1516 -476 1516 -467 1495.5 c 128,-1,9
 -458 1475 -458 1475 -458 1452 c 256,10,11
 -458 1429 -458 1429 -467 1408.5 c 128,-1,12
 -476 1388 -476 1388 -491.5 1372.5 c 128,-1,13
 -507 1357 -507 1357 -527.5 1348 c 128,-1,14
 -548 1339 -548 1339 -571 1339 c 256,15,16
 -594 1339 -594 1339 -614.5 1348 c 128,-1,17
 -635 1357 -635 1357 -650.5 1372.5 c 128,-1,18
 -666 1388 -666 1388 -675 1408.5 c 128,-1,19
 -684 1429 -684 1429 -684 1452 c 256,0,1
EndSplineSet
Validated: 1
EndChar

StartChar: uniEC71
Encoding: 60529 60529 39

Width: 2
Flags: W
LayerCount: 2
Fore
SplineSet
-222 1503 m 0,0,1
 -222 1472 -222 1472 -232 1442 c 128,-1,2
 -242 1412 -242 1412 -262 1389 c 128,-1,3
 -282 1366 -282 1366 -311 1351.5 c 128,-1,4
 -340 1337 -340 1337 -376 1337 c 0,5,6
 -398 1337 -398 1337 -418 1343 c 128,-1,7
 -438 1349 -438 1349 -453 1360.5 c 128,-1,8
 -468 1372 -468 1372 -476.5 1389.5 c 128,-1,9
 -485 1407 -485 1407 -485 1430 c 0,10,11
 -485 1444 -485 1444 -479.5 1457 c 128,-1,12
 -474 1470 -474 1470 -464.5 1480.5 c 128,-1,13
 -455 1491 -455 1491 -441 1497 c 128,-1,14
 -427 1503 -427 1503 -412 1503 c 0,15,16
 -399 1503 -399 1503 -386 1497.5 c 128,-1,17
 -373 1492 -373 1492 -363 1482.5 c 128,-1,18
 -353 1473 -353 1473 -346.5 1460.5 c 128,-1,19
 -340 1448 -340 1448 -340 1431 c 0,20,21
 -340 1419 -340 1419 -343 1411 c 128,-1,22
 -346 1403 -346 1403 -351 1393 c 1,23,24
 -297 1415 -297 1415 -297 1474 c 0,25,26
 -297 1497 -297 1497 -305.5 1516.5 c 128,-1,27
 -314 1536 -314 1536 -329 1550.5 c 128,-1,28
 -344 1565 -344 1565 -363.5 1573.5 c 128,-1,29
 -383 1582 -383 1582 -406 1582 c 0,30,31
 -435 1582 -435 1582 -461 1573 c 128,-1,32
 -487 1564 -487 1564 -511 1549 c 128,-1,33
 -535 1534 -535 1534 -555 1513 c 128,-1,34
 -575 1492 -575 1492 -592 1469 c 0,35,36
 -639 1396 -639 1396 -680 1317.5 c 128,-1,37
 -721 1239 -721 1239 -755 1152 c 0,38,39
 -760 1138 -760 1138 -782 1138 c 0,40,41
 -819 1138 -819 1138 -811 1170 c 0,42,43
 -798 1211 -798 1211 -785 1251.5 c 128,-1,44
 -772 1292 -772 1292 -760 1333 c 0,45,46
 -728 1422 -728 1422 -683 1496 c 0,47,48
 -629 1580 -629 1580 -559.5 1629 c 128,-1,49
 -490 1678 -490 1678 -402 1678 c 0,50,51
 -365 1678 -365 1678 -332 1664.5 c 128,-1,52
 -299 1651 -299 1651 -274.5 1627.5 c 128,-1,53
 -250 1604 -250 1604 -236 1572 c 128,-1,54
 -222 1540 -222 1540 -222 1503 c 0,0,1
EndSplineSet
Validated: 1
EndChar

StartChar: uniE03E
Encoding: 57406 57406 40
Width: 1411
Flags: W
LayerCount: 2
Fore
SplineSet
327 260 m 0,0,1
 327 234 327 234 317.5 212 c 128,-1,2
 308 190 308 190 292.5 173.5 c 128,-1,3
 277 157 277 157 257 147 c 128,-1,4
 237 137 237 137 216 135 c 0,5,6
 168 131 168 131 137 152 c 128,-1,7
 106 173 106 173 89 208 c 0,8,9
 74 239 74 239 67 273 c 128,-1,10
 60 307 60 307 60 344 c 0,11,12
 60 462 60 462 106.5 563.5 c 128,-1,13
 153 665 153 665 234.5 740 c 128,-1,14
 316 815 316 815 427.5 858 c 128,-1,15
 539 901 539 901 669 902 c 0,16,17
 778 903 778 903 869 877.5 c 128,-1,18
 960 852 960 852 1033.5 805.5 c 128,-1,19
 1107 759 1107 759 1162 693.5 c 128,-1,20
 1217 628 1217 628 1254.5 550 c 128,-1,21
 1292 472 1292 472 1310.5 383 c 128,-1,22
 1329 294 1329 294 1330 200 c 0,23,24
 1331 86 1331 86 1311 -24.5 c 128,-1,25
 1291 -135 1291 -135 1253 -238.5 c 128,-1,26
 1215 -342 1215 -342 1160 -437 c 128,-1,27
 1105 -532 1105 -532 1036 -616 c 0,28,29
 958 -711 958 -711 864 -788.5 c 128,-1,30
 770 -866 770 -866 662 -924 c 0,31,32
 585 -966 585 -966 495.5 -998 c 128,-1,33
 406 -1030 406 -1030 319 -1047 c 1,34,35
 301 -1046 301 -1046 289.5 -1033.5 c 128,-1,36
 278 -1021 278 -1021 272.5 -1004 c 128,-1,37
 267 -987 267 -987 268.5 -969.5 c 128,-1,38
 270 -952 270 -952 278 -940 c 1,39,40
 317 -926 317 -926 365.5 -909 c 128,-1,41
 414 -892 414 -892 455 -875 c 0,42,43
 518 -848 518 -848 579.5 -813.5 c 128,-1,44
 641 -779 641 -779 698 -737.5 c 128,-1,45
 755 -696 755 -696 807 -648.5 c 128,-1,46
 859 -601 859 -601 903 -548 c 0,47,48
 1010 -419 1010 -419 1071 -257 c 128,-1,49
 1132 -95 1132 -95 1132 94 c 0,50,51
 1132 194 1132 194 1106.5 290 c 128,-1,52
 1081 386 1081 386 1022 471 c 0,53,54
 959 561 959 561 861 612.5 c 128,-1,55
 763 664 763 664 636 665 c 0,56,57
 589 665 589 665 539 657.5 c 128,-1,58
 489 650 489 650 441.5 635.5 c 128,-1,59
 394 621 394 621 351.5 599.5 c 128,-1,60
 309 578 309 578 276 551 c 0,61,62
 244 525 244 525 221.5 495 c 128,-1,63
 199 465 199 465 197 432 c 0,64,65
 196 418 196 418 203.5 408.5 c 128,-1,66
 211 399 211 399 221.5 391.5 c 128,-1,67
 232 384 232 384 244.5 378.5 c 128,-1,68
 257 373 257 373 266 367 c 0,69,70
 295 350 295 350 311 322.5 c 128,-1,71
 327 295 327 295 327 260 c 0,0,1
EndSplineSet
Validated: 33
EndChar

StartChar: uniEC81
Encoding: 60545 60545 41

Width: 2
Flags: W
LayerCount: 2
Fore
SplineSet
-347 1510 m 0,0,1
 -347 1531 -347 1531 -355.5 1550 c 128,-1,2
 -364 1569 -364 1569 -378.5 1582.5 c 128,-1,3
 -393 1596 -393 1596 -412.5 1604 c 128,-1,4
 -432 1612 -432 1612 -455 1612 c 0,5,6
 -514 1612 -514 1612 -536 1562 c 1,7,8
 -526 1567 -526 1567 -518 1569.5 c 128,-1,9
 -510 1572 -510 1572 -498 1572 c 0,10,11
 -465 1572 -465 1572 -446.5 1550 c 128,-1,12
 -428 1528 -428 1528 -428 1502 c 0,13,14
 -428 1472 -428 1472 -449 1452.5 c 128,-1,15
 -470 1433 -470 1433 -498 1433 c 0,16,17
 -521 1433 -521 1433 -538.5 1441.5 c 128,-1,18
 -556 1450 -556 1450 -567.5 1464.5 c 128,-1,19
 -579 1479 -579 1479 -585.5 1498.5 c 128,-1,20
 -592 1518 -592 1518 -592 1538 c 0,21,22
 -592 1573 -592 1573 -577.5 1599.5 c 128,-1,23
 -563 1626 -563 1626 -540 1644.5 c 128,-1,24
 -517 1663 -517 1663 -487 1673 c 128,-1,25
 -457 1683 -457 1683 -426 1683 c 0,26,27
 -389 1683 -389 1683 -357 1669.5 c 128,-1,28
 -325 1656 -325 1656 -301.5 1633.5 c 128,-1,29
 -278 1611 -278 1611 -264.5 1580 c 128,-1,30
 -251 1549 -251 1549 -251 1513 c 0,31,32
 -251 1431 -251 1431 -300 1368 c 128,-1,33
 -349 1305 -349 1305 -433 1255 c 0,34,35
 -470 1233 -470 1233 -510 1216.5 c 128,-1,36
 -550 1200 -550 1200 -592 1185.5 c 128,-1,37
 -634 1171 -634 1171 -676 1158.5 c 128,-1,38
 -718 1146 -718 1146 -759 1134 c 0,39,40
 -776 1130 -776 1130 -784.5 1135 c 128,-1,41
 -793 1140 -793 1140 -797 1152 c 0,42,43
 -803 1168 -803 1168 -793.5 1176.5 c 128,-1,44
 -784 1185 -784 1185 -777 1187 c 0,45,46
 -690 1219 -690 1219 -611.5 1257.5 c 128,-1,47
 -533 1296 -533 1296 -460 1341 c 0,48,49
 -437 1356 -437 1356 -416 1374 c 128,-1,50
 -395 1392 -395 1392 -380 1413 c 128,-1,51
 -365 1434 -365 1434 -356 1458.5 c 128,-1,52
 -347 1483 -347 1483 -347 1510 c 0,0,1
EndSplineSet
Validated: 1
EndChar

StartChar: uniECBF
Encoding: 60607 60607 42

Width: 2
Flags: W
LayerCount: 2
Fore
SplineSet
-896 178 m 256,0,1
 -896 201 -896 201 -887 221.5 c 128,-1,2
 -878 242 -878 242 -862.5 257.5 c 128,-1,3
 -847 273 -847 273 -826.5 282 c 128,-1,4
 -806 291 -806 291 -783 291 c 256,5,6
 -760 291 -760 291 -739.5 282 c 128,-1,7
 -719 273 -719 273 -703.5 257.5 c 128,-1,8
 -688 242 -688 242 -679 221.5 c 128,-1,9
 -670 201 -670 201 -670 178 c 256,10,11
 -670 155 -670 155 -679 134.5 c 128,-1,12
 -688 114 -688 114 -703.5 98.5 c 128,-1,13
 -719 83 -719 83 -739.5 74 c 128,-1,14
 -760 65 -760 65 -783 65 c 256,15,16
 -806 65 -806 65 -826.5 74 c 128,-1,17
 -847 83 -847 83 -862.5 98.5 c 128,-1,18
 -878 114 -878 114 -887 134.5 c 128,-1,19
 -896 155 -896 155 -896 178 c 256,0,1
EndSplineSet
Validated: 1
EndChar

StartChar: uniEC80
Encoding: 60544 60544 43

Width: 2
Flags: W
LayerCount: 2
Fore
SplineSet
-96 1510 m 0,0,1
 -96 1531 -96 1531 -104.5 1550 c 128,-1,2
 -113 1569 -113 1569 -127.5 1582.5 c 128,-1,3
 -142 1596 -142 1596 -161.5 1604 c 128,-1,4
 -181 1612 -181 1612 -204 1612 c 0,5,6
 -263 1612 -263 1612 -285 1562 c 1,7,8
 -275 1567 -275 1567 -267 1569.5 c 128,-1,9
 -259 1572 -259 1572 -247 1572 c 0,10,11
 -214 1572 -214 1572 -195.5 1550 c 128,-1,12
 -177 1528 -177 1528 -177 1502 c 0,13,14
 -177 1472 -177 1472 -198 1452.5 c 128,-1,15
 -219 1433 -219 1433 -247 1433 c 0,16,17
 -270 1433 -270 1433 -287.5 1441.5 c 128,-1,18
 -305 1450 -305 1450 -316.5 1464.5 c 128,-1,19
 -328 1479 -328 1479 -334.5 1498.5 c 128,-1,20
 -341 1518 -341 1518 -341 1538 c 0,21,22
 -341 1573 -341 1573 -326.5 1599.5 c 128,-1,23
 -312 1626 -312 1626 -289 1644.5 c 128,-1,24
 -266 1663 -266 1663 -236 1673 c 128,-1,25
 -206 1683 -206 1683 -175 1683 c 0,26,27
 -138 1683 -138 1683 -106 1669.5 c 128,-1,28
 -74 1656 -74 1656 -50.5 1633.5 c 128,-1,29
 -27 1611 -27 1611 -13.5 1580 c 128,-1,30
 0 1549 0 1549 0 1513 c 0,31,32
 0 1431 0 1431 -49 1368 c 128,-1,33
 -98 1305 -98 1305 -182 1255 c 0,34,35
 -219 1233 -219 1233 -259 1216.5 c 128,-1,36
 -299 1200 -299 1200 -341 1185.5 c 128,-1,37
 -383 1171 -383 1171 -425 1158.5 c 128,-1,38
 -467 1146 -467 1146 -508 1134 c 0,39,40
 -525 1130 -525 1130 -533.5 1135 c 128,-1,41
 -542 1140 -542 1140 -546 1152 c 0,42,43
 -552 1168 -552 1168 -542.5 1176.5 c 128,-1,44
 -533 1185 -533 1185 -526 1187 c 0,45,46
 -439 1219 -439 1219 -360.5 1257.5 c 128,-1,47
 -282 1296 -282 1296 -209 1341 c 0,48,49
 -186 1356 -186 1356 -165 1374 c 128,-1,50
 -144 1392 -144 1392 -129 1413 c 128,-1,51
 -114 1434 -114 1434 -105 1458.5 c 128,-1,52
 -96 1483 -96 1483 -96 1510 c 0,0,1
EndSplineSet
Validated: 1
EndChar

StartChar: uniEC70
Encoding: 60528 60528 44

Width: 2
Flags: W
LayerCount: 2
Fore
SplineSet
0 1503 m 0,0,1
 0 1472 0 1472 -10 1442 c 128,-1,2
 -20 1412 -20 1412 -40 1389 c 128,-1,3
 -60 1366 -60 1366 -89 1351.5 c 128,-1,4
 -118 1337 -118 1337 -154 1337 c 0,5,6
 -176 1337 -176 1337 -196 1343 c 128,-1,7
 -216 1349 -216 1349 -231 1360.5 c 128,-1,8
 -246 1372 -246 1372 -254.5 1389.5 c 128,-1,9
 -263 1407 -263 1407 -263 1430 c 0,10,11
 -263 1444 -263 1444 -257.5 1457 c 128,-1,12
 -252 1470 -252 1470 -242.5 1480.5 c 128,-1,13
 -233 1491 -233 1491 -219 1497 c 128,-1,14
 -205 1503 -205 1503 -190 1503 c 0,15,16
 -177 1503 -177 1503 -164 1497.5 c 128,-1,17
 -151 1492 -151 1492 -141 1482.5 c 128,-1,18
 -131 1473 -131 1473 -124.5 1460.5 c 128,-1,19
 -118 1448 -118 1448 -118 1431 c 0,20,21
 -118 1419 -118 1419 -121 1411 c 128,-1,22
 -124 1403 -124 1403 -129 1393 c 1,23,24
 -75 1415 -75 1415 -75 1474 c 0,25,26
 -75 1497 -75 1497 -83.5 1516.5 c 128,-1,27
 -92 1536 -92 1536 -107 1550.5 c 128,-1,28
 -122 1565 -122 1565 -141.5 1573.5 c 128,-1,29
 -161 1582 -161 1582 -184 1582 c 0,30,31
 -213 1582 -213 1582 -239 1573 c 128,-1,32
 -265 1564 -265 1564 -289 1549 c 128,-1,33
 -313 1534 -313 1534 -333 1513 c 128,-1,34
 -353 1492 -353 1492 -370 1469 c 0,35,36
 -417 1396 -417 1396 -458 1317.5 c 128,-1,37
 -499 1239 -499 1239 -533 1152 c 0,38,39
 -538 1138 -538 1138 -560 1138 c 0,40,41
 -597 1138 -597 1138 -589 1170 c 0,42,43
 -576 1211 -576 1211 -563 1251.5 c 128,-1,44
 -550 1292 -550 1292 -538 1333 c 0,45,46
 -506 1422 -506 1422 -461 1496 c 0,47,48
 -407 1580 -407 1580 -337.5 1629 c 128,-1,49
 -268 1678 -268 1678 -180 1678 c 0,50,51
 -143 1678 -143 1678 -110 1664.5 c 128,-1,52
 -77 1651 -77 1651 -52.5 1627.5 c 128,-1,53
 -28 1604 -28 1604 -14 1572 c 128,-1,54
 0 1540 0 1540 0 1503 c 0,0,1
EndSplineSet
Validated: 1
EndChar

StartChar: uni604F
Encoding: 24655 24655 45
Width: 2
Flags: W
LayerCount: 2
Fore
SplineSet
-753 -536 m 256,0,1
 -753 -513 -753 -513 -744 -492.5 c 128,-1,2
 -735 -472 -735 -472 -719.5 -456.5 c 128,-1,3
 -704 -441 -704 -441 -683.5 -432 c 128,-1,4
 -663 -423 -663 -423 -640 -423 c 256,5,6
 -617 -423 -617 -423 -596.5 -432 c 128,-1,7
 -576 -441 -576 -441 -560.5 -456.5 c 128,-1,8
 -545 -472 -545 -472 -536 -492.5 c 128,-1,9
 -527 -513 -527 -513 -527 -536 c 256,10,11
 -527 -559 -527 -559 -536 -579.5 c 128,-1,12
 -545 -600 -545 -600 -560.5 -615.5 c 128,-1,13
 -576 -631 -576 -631 -596.5 -640 c 128,-1,14
 -617 -649 -617 -649 -640 -649 c 256,15,16
 -663 -649 -663 -649 -683.5 -640 c 128,-1,17
 -704 -631 -704 -631 -719.5 -615.5 c 128,-1,18
 -735 -600 -735 -600 -744 -579.5 c 128,-1,19
 -753 -559 -753 -559 -753 -536 c 256,0,1
EndSplineSet
Validated: 1
EndChar

StartChar: uniEC32
Encoding: 60466 60466 46

Width: 2
Flags: W
LayerCount: 2
Fore
SplineSet
-1170 1164 m 2,0,1
 -1235 1179 -1235 1179 -1278 1188 c 128,-1,2
 -1321 1197 -1321 1197 -1358 1197 c 0,3,4
 -1407 1197 -1407 1197 -1446.5 1180 c 128,-1,5
 -1486 1163 -1486 1163 -1532 1123 c 0,6,7
 -1540 1116 -1540 1116 -1547.5 1110 c 128,-1,8
 -1555 1104 -1555 1104 -1564 1097 c 0,9,10
 -1579 1092 -1579 1092 -1585 1099 c 128,-1,11
 -1591 1106 -1591 1106 -1589 1117 c 0,12,13
 -1581 1137 -1581 1137 -1571 1157 c 128,-1,14
 -1561 1177 -1561 1177 -1549 1194 c 0,15,16
 -1521 1236 -1521 1236 -1483 1267.5 c 128,-1,17
 -1445 1299 -1445 1299 -1400.5 1320.5 c 128,-1,18
 -1356 1342 -1356 1342 -1307 1353 c 128,-1,19
 -1258 1364 -1258 1364 -1207 1364 c 0,20,21
 -1144 1364 -1144 1364 -1078 1349 c 2,22,-1
 -749 1274 l 2,23,24
 -684 1259 -684 1259 -641 1250 c 128,-1,25
 -598 1241 -598 1241 -561 1241 c 0,26,27
 -513 1241 -513 1241 -473 1257.5 c 128,-1,28
 -433 1274 -433 1274 -387 1315 c 0,29,30
 -379 1322 -379 1322 -371.5 1328 c 128,-1,31
 -364 1334 -364 1334 -355 1341 c 0,32,33
 -340 1346 -340 1346 -334 1339 c 128,-1,34
 -328 1332 -328 1332 -330 1321 c 0,35,36
 -338 1301 -338 1301 -348 1281 c 128,-1,37
 -358 1261 -358 1261 -370 1244 c 0,38,39
 -399 1202 -399 1202 -436.5 1170.5 c 128,-1,40
 -474 1139 -474 1139 -518.5 1117.5 c 128,-1,41
 -563 1096 -563 1096 -612 1085 c 128,-1,42
 -661 1074 -661 1074 -712 1074 c 0,43,44
 -775 1074 -775 1074 -841 1089 c 2,45,-1
 -1170 1164 l 2,0,1
EndSplineSet
Validated: 1
EndChar

StartChar: uniE019
Encoding: 57369 57369 47

Width: 1379
Flags: W
LayerCount: 2
Fore
SplineSet
870 188 m 1,0,1
 948 229 948 229 980 297 c 128,-1,2
 1012 365 1012 365 1012 454 c 0,3,4
 1012 514 1012 514 993.5 569.5 c 128,-1,5
 975 625 975 625 939.5 667.5 c 128,-1,6
 904 710 904 710 852.5 735.5 c 128,-1,7
 801 761 801 761 735 761 c 0,8,9
 673 761 673 761 621 739.5 c 128,-1,10
 569 718 569 718 528 681.5 c 128,-1,11
 487 645 487 645 456.5 595.5 c 128,-1,12
 426 546 426 546 405.5 490 c 128,-1,13
 385 434 385 434 375 374.5 c 128,-1,14
 365 315 365 315 365 257 c 2,15,-1
 365 188 l 1,16,-1
 870 188 l 1,0,1
365 682 m 1,17,18
 405 733 405 733 454 773.5 c 128,-1,19
 503 814 503 814 558 842.5 c 128,-1,20
 613 871 613 871 673 886.5 c 128,-1,21
 733 902 733 902 796 902 c 0,22,23
 888 902 888 902 970.5 871 c 128,-1,24
 1053 840 1053 840 1115 784.5 c 128,-1,25
 1177 729 1177 729 1213 652 c 128,-1,26
 1249 575 1249 575 1249 482 c 0,27,28
 1249 408 1249 408 1221 335 c 128,-1,29
 1193 262 1193 262 1139 209 c 1,30,31
 1196 219 1196 219 1247.5 239.5 c 128,-1,32
 1299 260 1299 260 1344 303 c 1,33,34
 1354 306 1354 306 1359 296 c 1,35,36
 1357 282 1357 282 1354.5 267.5 c 128,-1,37
 1352 253 1352 253 1350 240 c 0,38,39
 1336 162 1336 162 1306 114.5 c 128,-1,40
 1276 67 1276 67 1228.5 41.5 c 128,-1,41
 1181 16 1181 16 1115 8 c 128,-1,42
 1049 0 1049 0 963 0 c 2,43,-1
 365 0 l 1,44,-1
 365 -601 l 2,45,46
 365 -626 365 -626 371.5 -641.5 c 128,-1,47
 378 -657 378 -657 386.5 -668 c 128,-1,48
 395 -679 395 -679 402 -687.5 c 128,-1,49
 409 -696 409 -696 410 -706 c 0,50,51
 412 -726 412 -726 400 -747.5 c 128,-1,52
 388 -769 388 -769 377 -783 c 0,53,54
 350 -818 350 -818 320.5 -850 c 128,-1,55
 291 -882 291 -882 256 -915 c 0,56,57
 204 -964 204 -964 145.5 -1004.5 c 128,-1,58
 87 -1045 87 -1045 33 -1067 c 0,59,60
 2 -1080 2 -1080 -26 -1085.5 c 128,-1,61
 -54 -1091 -54 -1091 -80 -1086 c 1,62,63
 0 -957 0 -957 45.5 -814 c 128,-1,64
 91 -671 91 -671 113.5 -523.5 c 128,-1,65
 136 -376 136 -376 141.5 -230 c 128,-1,66
 147 -84 147 -84 147 50 c 2,67,-1
 147 1181 l 2,68,69
 147 1209 147 1209 147 1233.5 c 128,-1,70
 147 1258 147 1258 146.5 1282 c 128,-1,71
 146 1306 146 1306 145 1331 c 128,-1,72
 144 1356 144 1356 143 1385 c 0,73,74
 141 1410 141 1410 137.5 1438.5 c 128,-1,75
 134 1467 134 1467 125 1495.5 c 128,-1,76
 116 1524 116 1524 100.5 1550.5 c 128,-1,77
 85 1577 85 1577 61 1599 c 0,78,79
 57 1602 57 1602 55 1607 c 128,-1,80
 53 1612 53 1612 58 1620 c 1,81,82
 87 1632 87 1632 116 1648.5 c 128,-1,83
 145 1665 145 1665 171 1682.5 c 128,-1,84
 197 1700 197 1700 219.5 1718 c 128,-1,85
 242 1736 242 1736 259 1753 c 0,86,87
 268 1758 268 1758 277 1753 c 0,88,89
 299 1731 299 1731 316.5 1698 c 128,-1,90
 334 1665 334 1665 346 1627 c 0,91,92
 360 1582 360 1582 362.5 1541 c 128,-1,93
 365 1500 365 1500 365 1454 c 2,94,-1
 365 682 l 1,17,18
EndSplineSet
Validated: 1
EndChar

StartChar: uniEC52
Encoding: 60498 60498 48

Width: 2
Flags: W
LayerCount: 2
Fore
SplineSet
-550 1690 m 1,0,1
 -529 1679 -529 1679 -515.5 1657 c 128,-1,2
 -502 1635 -502 1635 -496.5 1608.5 c 128,-1,3
 -491 1582 -491 1582 -496 1554.5 c 128,-1,4
 -501 1527 -501 1527 -517 1505 c 1,5,6
 -542 1483 -542 1483 -581 1456 c 128,-1,7
 -620 1429 -620 1429 -665 1400.5 c 128,-1,8
 -710 1372 -710 1372 -757 1344.5 c 128,-1,9
 -804 1317 -804 1317 -845 1293.5 c 128,-1,10
 -886 1270 -886 1270 -916.5 1253.5 c 128,-1,11
 -947 1237 -947 1237 -959 1232 c 0,12,13
 -993 1229 -993 1229 -976 1260 c 1,14,-1
 -655 1542 l 2,15,16
 -635 1560 -635 1560 -617 1580.5 c 128,-1,17
 -599 1601 -599 1601 -585 1620.5 c 128,-1,18
 -571 1640 -571 1640 -562 1658 c 128,-1,19
 -553 1676 -553 1676 -550 1690 c 1,0,1
EndSplineSet
Validated: 1
EndChar

StartChar: uniE01E
Encoding: 57374 57374 49

Width: 1937
Flags: W
LayerCount: 2
Fore
SplineSet
1613 220 m 1,0,1
 1579 170 1579 170 1533.5 129.5 c 128,-1,2
 1488 89 1488 89 1434.5 60.5 c 128,-1,3
 1381 32 1381 32 1323 16 c 128,-1,4
 1265 0 1265 0 1205 0 c 0,5,6
 1094 0 1094 0 1003.5 49.5 c 128,-1,7
 913 99 913 99 858 184 c 1,8,9
 823 142 823 142 779 108 c 128,-1,10
 735 74 735 74 685.5 50 c 128,-1,11
 636 26 636 26 583 13 c 128,-1,12
 530 0 530 0 476 0 c 0,13,14
 388 0 388 0 312 32 c 128,-1,15
 236 64 236 64 180 120 c 128,-1,16
 124 176 124 176 92 252.5 c 128,-1,17
 60 329 60 329 60 419 c 0,18,19
 60 497 60 497 87.5 573 c 128,-1,20
 115 649 115 649 166 714 c 0,21,22
 197 753 197 753 235.5 787.5 c 128,-1,23
 274 822 274 822 319 847.5 c 128,-1,24
 364 873 364 873 413 887.5 c 128,-1,25
 462 902 462 902 514 902 c 0,26,27
 546 902 546 902 576 893 c 128,-1,28
 606 884 606 884 629 866 c 128,-1,29
 652 848 652 848 665.5 820.5 c 128,-1,30
 679 793 679 793 679 755 c 0,31,32
 679 732 679 732 669.5 710.5 c 128,-1,33
 660 689 660 689 644 673 c 128,-1,34
 628 657 628 657 606 647.5 c 128,-1,35
 584 638 584 638 560 638 c 0,36,37
 530 638 530 638 509.5 646.5 c 128,-1,38
 489 655 489 655 473.5 668.5 c 128,-1,39
 458 682 458 682 446.5 697 c 128,-1,40
 435 712 435 712 424.5 725.5 c 128,-1,41
 414 739 414 739 402.5 747.5 c 128,-1,42
 391 756 391 756 375 756 c 0,43,44
 354 756 354 756 338.5 743 c 128,-1,45
 323 730 323 730 312.5 710 c 128,-1,46
 302 690 302 690 295 664.5 c 128,-1,47
 288 639 288 639 284.5 614.5 c 128,-1,48
 281 590 281 590 279.5 568 c 128,-1,49
 278 546 278 546 278 532 c 0,50,51
 278 473 278 473 293.5 405 c 128,-1,52
 309 337 309 337 342 279 c 128,-1,53
 375 221 375 221 426.5 182.5 c 128,-1,54
 478 144 478 144 549 144 c 0,55,56
 590 144 590 144 626.5 158 c 128,-1,57
 663 172 663 172 694.5 196 c 128,-1,58
 726 220 726 220 752.5 253 c 128,-1,59
 779 286 779 286 800 324 c 1,60,61
 789 371 789 371 789 419 c 0,62,63
 789 497 789 497 816.5 573 c 128,-1,64
 844 649 844 649 895 714 c 0,65,66
 926 753 926 753 964.5 787.5 c 128,-1,67
 1003 822 1003 822 1048 847.5 c 128,-1,68
 1093 873 1093 873 1142 887.5 c 128,-1,69
 1191 902 1191 902 1243 902 c 0,70,71
 1275 902 1275 902 1305 893 c 128,-1,72
 1335 884 1335 884 1358 866 c 128,-1,73
 1381 848 1381 848 1394.5 820.5 c 128,-1,74
 1408 793 1408 793 1408 755 c 0,75,76
 1408 732 1408 732 1398.5 710.5 c 128,-1,77
 1389 689 1389 689 1373 673 c 128,-1,78
 1357 657 1357 657 1335 647.5 c 128,-1,79
 1313 638 1313 638 1289 638 c 0,80,81
 1259 638 1259 638 1238.5 646.5 c 128,-1,82
 1218 655 1218 655 1202.5 668.5 c 128,-1,83
 1187 682 1187 682 1175.5 697 c 128,-1,84
 1164 712 1164 712 1153.5 725.5 c 128,-1,85
 1143 739 1143 739 1131.5 747.5 c 128,-1,86
 1120 756 1120 756 1104 756 c 0,87,88
 1083 756 1083 756 1067.5 743 c 128,-1,89
 1052 730 1052 730 1041.5 710 c 128,-1,90
 1031 690 1031 690 1024 664.5 c 128,-1,91
 1017 639 1017 639 1013.5 614.5 c 128,-1,92
 1010 590 1010 590 1008.5 568 c 128,-1,93
 1007 546 1007 546 1007 532 c 0,94,95
 1007 473 1007 473 1022.5 405 c 128,-1,96
 1038 337 1038 337 1071 279 c 128,-1,97
 1104 221 1104 221 1155.5 182.5 c 128,-1,98
 1207 144 1207 144 1278 144 c 0,99,100
 1332 144 1332 144 1378.5 167.5 c 128,-1,101
 1425 191 1425 191 1462 230.5 c 128,-1,102
 1499 270 1499 270 1527.5 321 c 128,-1,103
 1556 372 1556 372 1575 428 c 128,-1,104
 1594 484 1594 484 1603.5 540 c 128,-1,105
 1613 596 1613 596 1613 645 c 2,106,-1
 1613 1181 l 2,107,108
 1613 1209 1613 1209 1613 1233.5 c 128,-1,109
 1613 1258 1613 1258 1612.5 1282 c 128,-1,110
 1612 1306 1612 1306 1611 1331 c 128,-1,111
 1610 1356 1610 1356 1609 1385 c 0,112,113
 1607 1410 1607 1410 1603.5 1438.5 c 128,-1,114
 1600 1467 1600 1467 1591 1495.5 c 128,-1,115
 1582 1524 1582 1524 1566.5 1550.5 c 128,-1,116
 1551 1577 1551 1577 1527 1599 c 0,117,118
 1523 1602 1523 1602 1521 1607 c 128,-1,119
 1519 1612 1519 1612 1524 1620 c 1,120,121
 1553 1632 1553 1632 1582 1648.5 c 128,-1,122
 1611 1665 1611 1665 1637 1682.5 c 128,-1,123
 1663 1700 1663 1700 1685.5 1718 c 128,-1,124
 1708 1736 1708 1736 1725 1753 c 0,125,126
 1734 1758 1734 1758 1743 1753 c 0,127,128
 1765 1731 1765 1731 1782.5 1698 c 128,-1,129
 1800 1665 1800 1665 1812 1627 c 0,130,131
 1826 1582 1826 1582 1828.5 1541 c 128,-1,132
 1831 1500 1831 1500 1831 1454 c 2,133,-1
 1831 -601 l 2,134,135
 1831 -626 1831 -626 1837.5 -641.5 c 128,-1,136
 1844 -657 1844 -657 1852.5 -668 c 128,-1,137
 1861 -679 1861 -679 1868 -687.5 c 128,-1,138
 1875 -696 1875 -696 1876 -706 c 0,139,140
 1878 -726 1878 -726 1866 -747.5 c 128,-1,141
 1854 -769 1854 -769 1843 -783 c 0,142,143
 1816 -818 1816 -818 1786.5 -850 c 128,-1,144
 1757 -882 1757 -882 1722 -915 c 0,145,146
 1670 -964 1670 -964 1611.5 -1004.5 c 128,-1,147
 1553 -1045 1553 -1045 1499 -1067 c 0,148,149
 1468 -1080 1468 -1080 1440 -1085.5 c 128,-1,150
 1412 -1091 1412 -1091 1386 -1086 c 1,151,152
 1466 -957 1466 -957 1511.5 -814 c 128,-1,153
 1557 -671 1557 -671 1579.5 -523.5 c 128,-1,154
 1602 -376 1602 -376 1607.5 -230 c 128,-1,155
 1613 -84 1613 -84 1613 50 c 2,156,-1
 1613 220 l 1,0,1
EndSplineSet
Validated: 1
EndChar

StartChar: uniEC62
Encoding: 60514 60514 50

Width: 2
Flags: W
LayerCount: 2
Fore
SplineSet
-851 1452 m 256,0,1
 -851 1475 -851 1475 -842 1495.5 c 128,-1,2
 -833 1516 -833 1516 -817.5 1531.5 c 128,-1,3
 -802 1547 -802 1547 -781.5 1556 c 128,-1,4
 -761 1565 -761 1565 -738 1565 c 256,5,6
 -715 1565 -715 1565 -694.5 1556 c 128,-1,7
 -674 1547 -674 1547 -658.5 1531.5 c 128,-1,8
 -643 1516 -643 1516 -634 1495.5 c 128,-1,9
 -625 1475 -625 1475 -625 1452 c 256,10,11
 -625 1429 -625 1429 -634 1408.5 c 128,-1,12
 -643 1388 -643 1388 -658.5 1372.5 c 128,-1,13
 -674 1357 -674 1357 -694.5 1348 c 128,-1,14
 -715 1339 -715 1339 -738 1339 c 256,15,16
 -761 1339 -761 1339 -781.5 1348 c 128,-1,17
 -802 1357 -802 1357 -817.5 1372.5 c 128,-1,18
 -833 1388 -833 1388 -842 1408.5 c 128,-1,19
 -851 1429 -851 1429 -851 1452 c 256,0,1
EndSplineSet
Validated: 1
EndChar

StartChar: uniEC82
Encoding: 60546 60546 51

Width: 2
Flags: W
LayerCount: 2
Fore
SplineSet
-547 1510 m 0,0,1
 -547 1531 -547 1531 -555.5 1550 c 128,-1,2
 -564 1569 -564 1569 -578.5 1582.5 c 128,-1,3
 -593 1596 -593 1596 -612.5 1604 c 128,-1,4
 -632 1612 -632 1612 -655 1612 c 0,5,6
 -714 1612 -714 1612 -736 1562 c 1,7,8
 -726 1567 -726 1567 -718 1569.5 c 128,-1,9
 -710 1572 -710 1572 -698 1572 c 0,10,11
 -665 1572 -665 1572 -646.5 1550 c 128,-1,12
 -628 1528 -628 1528 -628 1502 c 0,13,14
 -628 1472 -628 1472 -649 1452.5 c 128,-1,15
 -670 1433 -670 1433 -698 1433 c 0,16,17
 -721 1433 -721 1433 -738.5 1441.5 c 128,-1,18
 -756 1450 -756 1450 -767.5 1464.5 c 128,-1,19
 -779 1479 -779 1479 -785.5 1498.5 c 128,-1,20
 -792 1518 -792 1518 -792 1538 c 0,21,22
 -792 1573 -792 1573 -777.5 1599.5 c 128,-1,23
 -763 1626 -763 1626 -740 1644.5 c 128,-1,24
 -717 1663 -717 1663 -687 1673 c 128,-1,25
 -657 1683 -657 1683 -626 1683 c 0,26,27
 -589 1683 -589 1683 -557 1669.5 c 128,-1,28
 -525 1656 -525 1656 -501.5 1633.5 c 128,-1,29
 -478 1611 -478 1611 -464.5 1580 c 128,-1,30
 -451 1549 -451 1549 -451 1513 c 0,31,32
 -451 1431 -451 1431 -500 1368 c 128,-1,33
 -549 1305 -549 1305 -633 1255 c 0,34,35
 -670 1233 -670 1233 -710 1216.5 c 128,-1,36
 -750 1200 -750 1200 -792 1185.5 c 128,-1,37
 -834 1171 -834 1171 -876 1158.5 c 128,-1,38
 -918 1146 -918 1146 -959 1134 c 0,39,40
 -976 1130 -976 1130 -984.5 1135 c 128,-1,41
 -993 1140 -993 1140 -997 1152 c 0,42,43
 -1003 1168 -1003 1168 -993.5 1176.5 c 128,-1,44
 -984 1185 -984 1185 -977 1187 c 0,45,46
 -890 1219 -890 1219 -811.5 1257.5 c 128,-1,47
 -733 1296 -733 1296 -660 1341 c 0,48,49
 -637 1356 -637 1356 -616 1374 c 128,-1,50
 -595 1392 -595 1392 -580 1413 c 128,-1,51
 -565 1434 -565 1434 -556 1458.5 c 128,-1,52
 -547 1483 -547 1483 -547 1510 c 0,0,1
EndSplineSet
Validated: 1
EndChar

StartChar: uniEC50
Encoding: 60496 60496 52

Width: 2
Flags: W
LayerCount: 2
Fore
SplineSet
-113 1690 m 1,0,1
 -92 1679 -92 1679 -78.5 1657 c 128,-1,2
 -65 1635 -65 1635 -59.5 1608.5 c 128,-1,3
 -54 1582 -54 1582 -59 1554.5 c 128,-1,4
 -64 1527 -64 1527 -80 1505 c 1,5,6
 -105 1483 -105 1483 -144 1456 c 128,-1,7
 -183 1429 -183 1429 -228 1400.5 c 128,-1,8
 -273 1372 -273 1372 -320 1344.5 c 128,-1,9
 -367 1317 -367 1317 -408 1293.5 c 128,-1,10
 -449 1270 -449 1270 -479.5 1253.5 c 128,-1,11
 -510 1237 -510 1237 -522 1232 c 0,12,13
 -556 1229 -556 1229 -539 1260 c 1,14,-1
 -218 1542 l 2,15,16
 -198 1560 -198 1560 -180 1580.5 c 128,-1,17
 -162 1601 -162 1601 -148 1620.5 c 128,-1,18
 -134 1640 -134 1640 -125 1658 c 128,-1,19
 -116 1676 -116 1676 -113 1690 c 1,0,1
EndSplineSet
Validated: 1
EndChar

StartChar: uniE01D
Encoding: 57373 57373 53

Width: 2048
Flags: W
LayerCount: 2
Fore
SplineSet
865 188 m 1,0,1
 916 230 916 230 937.5 291.5 c 128,-1,2
 959 353 959 353 959 430 c 0,3,4
 959 488 959 488 943 547 c 128,-1,5
 927 606 927 606 895 652.5 c 128,-1,6
 863 699 863 699 814.5 728.5 c 128,-1,7
 766 758 766 758 700 758 c 0,8,9
 657 758 657 758 618 743 c 128,-1,10
 579 728 579 728 544.5 702.5 c 128,-1,11
 510 677 510 677 481.5 641.5 c 128,-1,12
 453 606 453 606 432 566 c 0,13,14
 413 529 413 529 400 489.5 c 128,-1,15
 387 450 387 450 379.5 410 c 128,-1,16
 372 370 372 370 368.5 331 c 128,-1,17
 365 292 365 292 365 257 c 2,18,-1
 365 188 l 1,19,-1
 865 188 l 1,0,1
1178 578 m 1,20,21
 1189 531 1189 531 1189 483 c 0,22,23
 1189 444 1189 444 1180.5 402.5 c 128,-1,24
 1172 361 1172 361 1156.5 321.5 c 128,-1,25
 1141 282 1141 282 1117.5 247.5 c 128,-1,26
 1094 213 1094 213 1064 188 c 1,27,-1
 1597 188 l 1,28,29
 1648 230 1648 230 1669.5 291.5 c 128,-1,30
 1691 353 1691 353 1691 430 c 0,31,32
 1691 495 1691 495 1676 554.5 c 128,-1,33
 1661 614 1661 614 1629 659 c 128,-1,34
 1597 704 1597 704 1547.5 731 c 128,-1,35
 1498 758 1498 758 1429 758 c 0,36,37
 1388 758 1388 758 1351.5 744 c 128,-1,38
 1315 730 1315 730 1283.5 706 c 128,-1,39
 1252 682 1252 682 1225.5 649 c 128,-1,40
 1199 616 1199 616 1178 578 c 1,20,21
365 682 m 1,41,42
 399 731 399 731 444.5 772 c 128,-1,43
 490 813 490 813 543.5 841.5 c 128,-1,44
 597 870 597 870 655 886 c 128,-1,45
 713 902 713 902 773 902 c 0,46,47
 884 902 884 902 974.5 852.5 c 128,-1,48
 1065 803 1065 803 1120 718 c 1,49,50
 1155 760 1155 760 1199 794 c 128,-1,51
 1243 828 1243 828 1292.5 852 c 128,-1,52
 1342 876 1342 876 1395 889 c 128,-1,53
 1448 902 1448 902 1502 902 c 0,54,55
 1591 902 1591 902 1667 870 c 128,-1,56
 1743 838 1743 838 1799 781.5 c 128,-1,57
 1855 725 1855 725 1887 648.5 c 128,-1,58
 1919 572 1919 572 1919 483 c 0,59,60
 1919 448 1919 448 1912.5 411.5 c 128,-1,61
 1906 375 1906 375 1893 339 c 128,-1,62
 1880 303 1880 303 1861 270 c 128,-1,63
 1842 237 1842 237 1818 211 c 1,64,65
 1872 221 1872 221 1921.5 241.5 c 128,-1,66
 1971 262 1971 262 2013 303 c 1,67,68
 2023 306 2023 306 2028 296 c 1,69,70
 2026 282 2026 282 2023.5 267.5 c 128,-1,71
 2021 253 2021 253 2019 240 c 0,72,73
 2005 162 2005 162 1975 114.5 c 128,-1,74
 1945 67 1945 67 1897.5 41.5 c 128,-1,75
 1850 16 1850 16 1784 8 c 128,-1,76
 1718 0 1718 0 1632 0 c 2,77,-1
 365 0 l 1,78,-1
 365 -601 l 2,79,80
 365 -626 365 -626 371.5 -641.5 c 128,-1,81
 378 -657 378 -657 386.5 -668 c 128,-1,82
 395 -679 395 -679 402 -687.5 c 128,-1,83
 409 -696 409 -696 410 -706 c 0,84,85
 412 -726 412 -726 400 -747.5 c 128,-1,86
 388 -769 388 -769 377 -783 c 0,87,88
 350 -818 350 -818 320.5 -850 c 128,-1,89
 291 -882 291 -882 256 -915 c 0,90,91
 204 -964 204 -964 145.5 -1004.5 c 128,-1,92
 87 -1045 87 -1045 33 -1067 c 0,93,94
 2 -1080 2 -1080 -26 -1085.5 c 128,-1,95
 -54 -1091 -54 -1091 -80 -1086 c 1,96,97
 0 -957 0 -957 45.5 -814 c 128,-1,98
 91 -671 91 -671 113.5 -523.5 c 128,-1,99
 136 -376 136 -376 141.5 -230 c 128,-1,100
 147 -84 147 -84 147 50 c 2,101,-1
 147 1181 l 2,102,103
 147 1209 147 1209 147 1233.5 c 128,-1,104
 147 1258 147 1258 146.5 1282 c 128,-1,105
 146 1306 146 1306 145 1331 c 128,-1,106
 144 1356 144 1356 143 1385 c 0,107,108
 141 1410 141 1410 137.5 1438.5 c 128,-1,109
 134 1467 134 1467 125 1495.5 c 128,-1,110
 116 1524 116 1524 100.5 1550.5 c 128,-1,111
 85 1577 85 1577 61 1599 c 0,112,113
 57 1602 57 1602 55 1607 c 128,-1,114
 53 1612 53 1612 58 1620 c 1,115,116
 87 1632 87 1632 116 1648.5 c 128,-1,117
 145 1665 145 1665 171 1682.5 c 128,-1,118
 197 1700 197 1700 219.5 1718 c 128,-1,119
 242 1736 242 1736 259 1753 c 0,120,121
 268 1758 268 1758 277 1753 c 0,122,123
 299 1731 299 1731 316.5 1698 c 128,-1,124
 334 1665 334 1665 346 1627 c 0,125,126
 360 1582 360 1582 362.5 1541 c 128,-1,127
 365 1500 365 1500 365 1454 c 2,128,-1
 365 682 l 1,41,42
EndSplineSet
Validated: 1
EndChar

StartChar: uniE01F
Encoding: 57375 57375 54

Width: 1933
Flags: W
LayerCount: 2
Fore
SplineSet
1022 672 m 1,0,1
 1016 653 1016 653 1012.5 632.5 c 128,-1,2
 1009 612 1009 612 1006.5 593.5 c 128,-1,3
 1004 575 1004 575 1003.5 559 c 128,-1,4
 1003 543 1003 543 1003 532 c 0,5,6
 1003 473 1003 473 1018.5 405 c 128,-1,7
 1034 337 1034 337 1067 279 c 128,-1,8
 1100 221 1100 221 1151.5 182.5 c 128,-1,9
 1203 144 1203 144 1274 144 c 0,10,11
 1328 144 1328 144 1374.5 167.5 c 128,-1,12
 1421 191 1421 191 1458 230.5 c 128,-1,13
 1495 270 1495 270 1523.5 321 c 128,-1,14
 1552 372 1552 372 1571 428 c 128,-1,15
 1590 484 1590 484 1599.5 540 c 128,-1,16
 1609 596 1609 596 1609 645 c 2,17,-1
 1609 683 l 1,18,19
 1531 679 1531 679 1449.5 677.5 c 128,-1,20
 1368 676 1368 676 1280 674 c 0,21,22
 1217 672 1217 672 1152.5 672 c 128,-1,23
 1088 672 1088 672 1022 672 c 1,0,1
300 692 m 1,24,25
 292 672 292 672 287 649 c 128,-1,26
 282 626 282 626 279 604 c 128,-1,27
 276 582 276 582 275 563 c 128,-1,28
 274 544 274 544 274 532 c 0,29,30
 274 473 274 473 289.5 405 c 128,-1,31
 305 337 305 337 338 279 c 128,-1,32
 371 221 371 221 422.5 182.5 c 128,-1,33
 474 144 474 144 545 144 c 0,34,35
 586 144 586 144 622.5 158 c 128,-1,36
 659 172 659 172 690.5 196 c 128,-1,37
 722 220 722 220 748.5 253 c 128,-1,38
 775 286 775 286 796 324 c 1,39,40
 785 371 785 371 785 419 c 0,41,42
 785 485 785 485 804.5 549.5 c 128,-1,43
 824 614 824 614 861 672 c 1,44,45
 780 672 780 672 706.5 672 c 128,-1,46
 633 672 633 672 555 675 c 0,47,48
 530 676 530 676 498 677 c 128,-1,49
 466 678 466 678 432 680 c 128,-1,50
 398 682 398 682 363.5 684.5 c 128,-1,51
 329 687 329 687 300 692 c 1,24,25
1609 879 m 1,52,-1
 1609 1181 l 2,53,54
 1609 1209 1609 1209 1609 1233.5 c 128,-1,55
 1609 1258 1609 1258 1608.5 1282 c 128,-1,56
 1608 1306 1608 1306 1607 1331 c 128,-1,57
 1606 1356 1606 1356 1605 1385 c 0,58,59
 1603 1410 1603 1410 1599.5 1438.5 c 128,-1,60
 1596 1467 1596 1467 1587 1495.5 c 128,-1,61
 1578 1524 1578 1524 1562.5 1550.5 c 128,-1,62
 1547 1577 1547 1577 1523 1599 c 0,63,64
 1519 1602 1519 1602 1517 1607 c 128,-1,65
 1515 1612 1515 1612 1520 1620 c 1,66,67
 1549 1632 1549 1632 1578 1648.5 c 128,-1,68
 1607 1665 1607 1665 1633 1682.5 c 128,-1,69
 1659 1700 1659 1700 1681.5 1718 c 128,-1,70
 1704 1736 1704 1736 1721 1753 c 0,71,72
 1730 1758 1730 1758 1739 1753 c 0,73,74
 1761 1731 1761 1731 1778.5 1698 c 128,-1,75
 1796 1665 1796 1665 1808 1627 c 0,76,77
 1822 1582 1822 1582 1824.5 1541 c 128,-1,78
 1827 1500 1827 1500 1827 1454 c 2,79,-1
 1827 -601 l 2,80,81
 1827 -626 1827 -626 1833.5 -641.5 c 128,-1,82
 1840 -657 1840 -657 1848.5 -668 c 128,-1,83
 1857 -679 1857 -679 1864 -687.5 c 128,-1,84
 1871 -696 1871 -696 1872 -706 c 0,85,86
 1874 -726 1874 -726 1862 -747.5 c 128,-1,87
 1850 -769 1850 -769 1839 -783 c 0,88,89
 1812 -818 1812 -818 1782.5 -850 c 128,-1,90
 1753 -882 1753 -882 1718 -915 c 0,91,92
 1666 -964 1666 -964 1607.5 -1004.5 c 128,-1,93
 1549 -1045 1549 -1045 1495 -1067 c 0,94,95
 1464 -1080 1464 -1080 1436 -1085.5 c 128,-1,96
 1408 -1091 1408 -1091 1382 -1086 c 1,97,98
 1462 -957 1462 -957 1507.5 -814 c 128,-1,99
 1553 -671 1553 -671 1575.5 -523.5 c 128,-1,100
 1598 -376 1598 -376 1603.5 -230 c 128,-1,101
 1609 -84 1609 -84 1609 50 c 2,102,-1
 1609 220 l 1,103,104
 1575 170 1575 170 1529.5 129.5 c 128,-1,105
 1484 89 1484 89 1430.5 60.5 c 128,-1,106
 1377 32 1377 32 1319 16 c 128,-1,107
 1261 0 1261 0 1201 0 c 0,108,109
 1090 0 1090 0 999.5 49.5 c 128,-1,110
 909 99 909 99 854 184 c 1,111,112
 819 142 819 142 775 108 c 128,-1,113
 731 74 731 74 681.5 50 c 128,-1,114
 632 26 632 26 579 13 c 128,-1,115
 526 0 526 0 472 0 c 0,116,117
 384 0 384 0 308 32 c 128,-1,118
 232 64 232 64 176 120 c 128,-1,119
 120 176 120 176 88 252.5 c 128,-1,120
 56 329 56 329 56 419 c 0,121,122
 56 500 56 500 85.5 577.5 c 128,-1,123
 115 655 115 655 165 718 c 1,124,125
 154 721 154 721 146.5 723.5 c 128,-1,126
 139 726 139 726 131 729 c 0,127,128
 108 738 108 738 89 748.5 c 128,-1,129
 70 759 70 759 59 770 c 0,130,131
 45 793 45 793 34.5 831.5 c 128,-1,132
 24 870 24 870 21.5 909.5 c 128,-1,133
 19 949 19 949 25 982 c 128,-1,134
 31 1015 31 1015 50 1028 c 1,135,136
 102 989 102 989 164.5 961.5 c 128,-1,137
 227 934 227 934 294.5 916 c 128,-1,138
 362 898 362 898 432.5 888 c 128,-1,139
 503 878 503 878 572 874 c 0,140,141
 603 872 603 872 633 871 c 128,-1,142
 663 870 663 870 692 870 c 0,143,144
 740 870 740 870 808.5 870 c 128,-1,145
 877 870 877 870 957 870.5 c 128,-1,146
 1037 871 1037 871 1124.5 871.5 c 128,-1,147
 1212 872 1212 872 1298 873 c 128,-1,148
 1384 874 1384 874 1464 875.5 c 128,-1,149
 1544 877 1544 877 1609 879 c 1,52,-1
EndSplineSet
Validated: 33
EndChar

StartChar: uniEC72
Encoding: 60530 60530 55

Width: 2
Flags: W
LayerCount: 2
Fore
SplineSet
-467 1503 m 0,0,1
 -467 1472 -467 1472 -477 1442 c 128,-1,2
 -487 1412 -487 1412 -507 1389 c 128,-1,3
 -527 1366 -527 1366 -556 1351.5 c 128,-1,4
 -585 1337 -585 1337 -621 1337 c 0,5,6
 -643 1337 -643 1337 -663 1343 c 128,-1,7
 -683 1349 -683 1349 -698 1360.5 c 128,-1,8
 -713 1372 -713 1372 -721.5 1389.5 c 128,-1,9
 -730 1407 -730 1407 -730 1430 c 0,10,11
 -730 1444 -730 1444 -724.5 1457 c 128,-1,12
 -719 1470 -719 1470 -709.5 1480.5 c 128,-1,13
 -700 1491 -700 1491 -686 1497 c 128,-1,14
 -672 1503 -672 1503 -657 1503 c 0,15,16
 -644 1503 -644 1503 -631 1497.5 c 128,-1,17
 -618 1492 -618 1492 -608 1482.5 c 128,-1,18
 -598 1473 -598 1473 -591.5 1460.5 c 128,-1,19
 -585 1448 -585 1448 -585 1431 c 0,20,21
 -585 1419 -585 1419 -588 1411 c 128,-1,22
 -591 1403 -591 1403 -596 1393 c 1,23,24
 -542 1415 -542 1415 -542 1474 c 0,25,26
 -542 1497 -542 1497 -550.5 1516.5 c 128,-1,27
 -559 1536 -559 1536 -574 1550.5 c 128,-1,28
 -589 1565 -589 1565 -608.5 1573.5 c 128,-1,29
 -628 1582 -628 1582 -651 1582 c 0,30,31
 -680 1582 -680 1582 -706 1573 c 128,-1,32
 -732 1564 -732 1564 -756 1549 c 128,-1,33
 -780 1534 -780 1534 -800 1513 c 128,-1,34
 -820 1492 -820 1492 -837 1469 c 0,35,36
 -884 1396 -884 1396 -925 1317.5 c 128,-1,37
 -966 1239 -966 1239 -1000 1152 c 0,38,39
 -1005 1138 -1005 1138 -1027 1138 c 0,40,41
 -1064 1138 -1064 1138 -1056 1170 c 0,42,43
 -1043 1211 -1043 1211 -1030 1251.5 c 128,-1,44
 -1017 1292 -1017 1292 -1005 1333 c 0,45,46
 -973 1422 -973 1422 -928 1496 c 0,47,48
 -874 1580 -874 1580 -804.5 1629 c 128,-1,49
 -735 1678 -735 1678 -647 1678 c 0,50,51
 -610 1678 -610 1678 -577 1664.5 c 128,-1,52
 -544 1651 -544 1651 -519.5 1627.5 c 128,-1,53
 -495 1604 -495 1604 -481 1572 c 128,-1,54
 -467 1540 -467 1540 -467 1503 c 0,0,1
EndSplineSet
Validated: 1
EndChar

StartChar: uniE01B
Encoding: 57371 57371 56

Width: 1283
Flags: W
LayerCount: 2
Fore
SplineSet
959 683 m 1,0,1
 893 678 893 678 817 675 c 128,-1,2
 741 672 741 672 659 672 c 0,3,4
 624 672 624 672 585 673 c 128,-1,5
 546 674 546 674 504 676 c 128,-1,6
 462 678 462 678 419 681 c 128,-1,7
 376 684 376 684 334 689 c 1,8,9
 314 648 314 648 307.5 600.5 c 128,-1,10
 301 553 301 553 301 515 c 0,11,12
 301 448 301 448 319 381 c 128,-1,13
 337 314 337 314 373 261 c 128,-1,14
 409 208 409 208 463 174.5 c 128,-1,15
 517 141 517 141 589 141 c 0,16,17
 651 141 651 141 703 162.5 c 128,-1,18
 755 184 755 184 796 220.5 c 128,-1,19
 837 257 837 257 867.5 306.5 c 128,-1,20
 898 356 898 356 918.5 412 c 128,-1,21
 939 468 939 468 949 527.5 c 128,-1,22
 959 587 959 587 959 645 c 2,23,-1
 959 683 l 1,0,1
959 874 m 1,24,-1
 959 1181 l 2,25,26
 959 1209 959 1209 959 1233.5 c 128,-1,27
 959 1258 959 1258 958.5 1282 c 128,-1,28
 958 1306 958 1306 957 1331 c 128,-1,29
 956 1356 956 1356 955 1385 c 0,30,31
 953 1410 953 1410 949.5 1438.5 c 128,-1,32
 946 1467 946 1467 937 1495.5 c 128,-1,33
 928 1524 928 1524 912.5 1550.5 c 128,-1,34
 897 1577 897 1577 873 1599 c 0,35,36
 869 1602 869 1602 867 1607 c 128,-1,37
 865 1612 865 1612 870 1620 c 1,38,39
 899 1632 899 1632 928 1648.5 c 128,-1,40
 957 1665 957 1665 983 1682.5 c 128,-1,41
 1009 1700 1009 1700 1031.5 1718 c 128,-1,42
 1054 1736 1054 1736 1071 1753 c 0,43,44
 1080 1758 1080 1758 1089 1753 c 0,45,46
 1111 1731 1111 1731 1128.5 1698 c 128,-1,47
 1146 1665 1146 1665 1158 1627 c 0,48,49
 1172 1582 1172 1582 1174.5 1541 c 128,-1,50
 1177 1500 1177 1500 1177 1454 c 2,51,-1
 1177 -601 l 2,52,53
 1177 -626 1177 -626 1183.5 -641.5 c 128,-1,54
 1190 -657 1190 -657 1198.5 -668 c 128,-1,55
 1207 -679 1207 -679 1214 -687.5 c 128,-1,56
 1221 -696 1221 -696 1222 -706 c 0,57,58
 1224 -726 1224 -726 1212 -747.5 c 128,-1,59
 1200 -769 1200 -769 1189 -783 c 0,60,61
 1162 -818 1162 -818 1132.5 -850 c 128,-1,62
 1103 -882 1103 -882 1068 -915 c 0,63,64
 1016 -964 1016 -964 957.5 -1004.5 c 128,-1,65
 899 -1045 899 -1045 845 -1067 c 0,66,67
 814 -1080 814 -1080 786 -1085.5 c 128,-1,68
 758 -1091 758 -1091 732 -1086 c 1,69,70
 812 -957 812 -957 857.5 -814 c 128,-1,71
 903 -671 903 -671 925.5 -523.5 c 128,-1,72
 948 -376 948 -376 953.5 -230 c 128,-1,73
 959 -84 959 -84 959 50 c 2,74,-1
 959 220 l 1,75,76
 919 169 919 169 870 128.5 c 128,-1,77
 821 88 821 88 766 59.5 c 128,-1,78
 711 31 711 31 651 15.5 c 128,-1,79
 591 0 591 0 528 0 c 0,80,81
 434 0 434 0 351.5 31 c 128,-1,82
 269 62 269 62 207.5 118 c 128,-1,83
 146 174 146 174 110.5 252.5 c 128,-1,84
 75 331 75 331 75 426 c 0,85,86
 75 503 75 503 101.5 578 c 128,-1,87
 128 653 128 653 176 716 c 1,88,89
 136 727 136 727 106 740 c 128,-1,90
 76 753 76 753 59 770 c 1,91,92
 45 793 45 793 34.5 831.5 c 128,-1,93
 24 870 24 870 21.5 909.5 c 128,-1,94
 19 949 19 949 25 982 c 128,-1,95
 31 1015 31 1015 50 1028 c 1,96,97
 114 980 114 980 192 950 c 128,-1,98
 270 920 270 920 354 902.5 c 128,-1,99
 438 885 438 885 524.5 878 c 128,-1,100
 611 871 611 871 692 870 c 0,101,102
 759 869 759 869 826.5 870 c 128,-1,103
 894 871 894 871 959 874 c 1,24,-1
EndSplineSet
Validated: 33
EndChar

StartChar: uniEC21
Encoding: 60449 60449 57

Width: 2
Flags: W
LayerCount: 2
Fore
SplineSet
-1160 1029 m 1,0,1
 -1180 1034 -1180 1034 -1190.5 1052.5 c 128,-1,2
 -1201 1071 -1201 1071 -1201 1092 c 0,3,4
 -1201 1112 -1201 1112 -1191 1129.5 c 128,-1,5
 -1181 1147 -1181 1147 -1160 1154 c 1,6,-1
 -329 1154 l 1,7,8
 -308 1147 -308 1147 -298 1129.5 c 128,-1,9
 -288 1112 -288 1112 -288 1092 c 0,10,11
 -288 1071 -288 1071 -298.5 1052.5 c 128,-1,12
 -309 1034 -309 1034 -329 1029 c 1,13,-1
 -1160 1029 l 1,0,1
EndSplineSet
Validated: 1
EndChar

StartChar: uni605C
Encoding: 24668 24668 58
Width: 1169
Flags: W
LayerCount: 2
Fore
SplineSet
444 451 m 2,0,1
 399 465 399 465 370 473 c 128,-1,2
 341 481 341 481 317 481 c 0,3,4
 284 481 284 481 256 466 c 128,-1,5
 228 451 228 451 199 408 c 0,6,7
 194 400 194 400 189 394.5 c 128,-1,8
 184 389 184 389 179 383 c 0,9,10
 169 378 169 378 164.5 384.5 c 128,-1,11
 160 391 160 391 162 401 c 0,12,13
 167 421 167 421 173 440.5 c 128,-1,14
 179 460 179 460 187 477 c 0,15,16
 224 561 224 561 285.5 603.5 c 128,-1,17
 347 646 347 646 416 648 c 0,18,19
 437 649 437 649 458.5 645.5 c 128,-1,20
 480 642 480 642 503 635 c 2,21,-1
 726 567 l 2,22,23
 771 553 771 553 799.5 545 c 128,-1,24
 828 537 828 537 853 537 c 0,25,26
 885 537 885 537 913 552.5 c 128,-1,27
 941 568 941 568 970 610 c 0,28,29
 975 618 975 618 979.5 623.5 c 128,-1,30
 984 629 984 629 989 635 c 0,31,32
 1000 640 1000 640 1004.5 633.5 c 128,-1,33
 1009 627 1009 627 1007 616 c 0,34,35
 996 576 996 576 981 541 c 0,36,37
 946 458 946 458 884.5 414.5 c 128,-1,38
 823 371 823 371 753 370 c 0,39,40
 732 369 732 369 710.5 372.5 c 128,-1,41
 689 376 689 376 666 383 c 2,42,-1
 444 451 l 2,0,1
EndSplineSet
Validated: 1
EndChar

StartChar: uniE032
Encoding: 57394 57394 59

Width: 1110
Flags: W
LayerCount: 2
Fore
SplineSet
638 792 m 0,0,1
 568 792 568 792 506 765 c 128,-1,2
 444 738 444 738 397.5 692.5 c 128,-1,3
 351 647 351 647 324 586 c 128,-1,4
 297 525 297 525 297 456 c 0,5,6
 297 389 297 389 323 328 c 128,-1,7
 349 267 349 267 394.5 221 c 128,-1,8
 440 175 440 175 501 148 c 128,-1,9
 562 121 562 121 632 121 c 0,10,11
 704 121 704 121 776.5 142.5 c 128,-1,12
 849 164 849 164 909 209 c 0,13,14
 944 236 944 236 973.5 273 c 128,-1,15
 1003 310 1003 310 1024 349 c 1,16,17
 1034 330 1034 330 1036.5 304.5 c 128,-1,18
 1039 279 1039 279 1039 258 c 0,19,20
 1039 230 1039 230 1035 207 c 128,-1,21
 1031 184 1031 184 1023 159 c 1,22,23
 932 71 932 71 819.5 31.5 c 128,-1,24
 707 -8 707 -8 578 -8 c 0,25,26
 477 -8 477 -8 383.5 19.5 c 128,-1,27
 290 47 290 47 218 101 c 128,-1,28
 146 155 146 155 103 236 c 128,-1,29
 60 317 60 317 60 424 c 0,30,31
 60 496 60 496 82.5 560 c 128,-1,32
 105 624 105 624 144 677 c 128,-1,33
 183 730 183 730 236.5 772 c 128,-1,34
 290 814 290 814 352 842.5 c 128,-1,35
 414 871 414 871 483 886.5 c 128,-1,36
 552 902 552 902 621 902 c 0,37,38
 651 902 651 902 687.5 899 c 128,-1,39
 724 896 724 896 762 888.5 c 128,-1,40
 800 881 800 881 835.5 868 c 128,-1,41
 871 855 871 855 899 835 c 128,-1,42
 927 815 927 815 944 786 c 128,-1,43
 961 757 961 757 961 719 c 0,44,45
 961 694 961 694 950.5 672 c 128,-1,46
 940 650 940 650 922.5 633.5 c 128,-1,47
 905 617 905 617 882.5 607 c 128,-1,48
 860 597 860 597 836 597 c 0,49,50
 796 597 796 597 761.5 621 c 128,-1,51
 727 645 727 645 715 683 c 0,52,53
 711 695 711 695 709 707.5 c 128,-1,54
 707 720 707 720 705 732 c 128,-1,55
 703 744 703 744 699.5 754.5 c 128,-1,56
 696 765 696 765 689 774 c 0,57,58
 672 792 672 792 638 792 c 0,0,1
EndSplineSet
Validated: 1
EndChar

StartChar: uniEC73
Encoding: 60531 60531 60

Width: 2
Flags: W
LayerCount: 2
Fore
SplineSet
-692 1503 m 0,0,1
 -692 1472 -692 1472 -702 1442 c 128,-1,2
 -712 1412 -712 1412 -732 1389 c 128,-1,3
 -752 1366 -752 1366 -781 1351.5 c 128,-1,4
 -810 1337 -810 1337 -846 1337 c 0,5,6
 -868 1337 -868 1337 -888 1343 c 128,-1,7
 -908 1349 -908 1349 -923 1360.5 c 128,-1,8
 -938 1372 -938 1372 -946.5 1389.5 c 128,-1,9
 -955 1407 -955 1407 -955 1430 c 0,10,11
 -955 1444 -955 1444 -949.5 1457 c 128,-1,12
 -944 1470 -944 1470 -934.5 1480.5 c 128,-1,13
 -925 1491 -925 1491 -911 1497 c 128,-1,14
 -897 1503 -897 1503 -882 1503 c 0,15,16
 -869 1503 -869 1503 -856 1497.5 c 128,-1,17
 -843 1492 -843 1492 -833 1482.5 c 128,-1,18
 -823 1473 -823 1473 -816.5 1460.5 c 128,-1,19
 -810 1448 -810 1448 -810 1431 c 0,20,21
 -810 1419 -810 1419 -813 1411 c 128,-1,22
 -816 1403 -816 1403 -821 1393 c 1,23,24
 -767 1415 -767 1415 -767 1474 c 0,25,26
 -767 1497 -767 1497 -775.5 1516.5 c 128,-1,27
 -784 1536 -784 1536 -799 1550.5 c 128,-1,28
 -814 1565 -814 1565 -833.5 1573.5 c 128,-1,29
 -853 1582 -853 1582 -876 1582 c 0,30,31
 -905 1582 -905 1582 -931 1573 c 128,-1,32
 -957 1564 -957 1564 -981 1549 c 128,-1,33
 -1005 1534 -1005 1534 -1025 1513 c 128,-1,34
 -1045 1492 -1045 1492 -1062 1469 c 0,35,36
 -1109 1396 -1109 1396 -1150 1317.5 c 128,-1,37
 -1191 1239 -1191 1239 -1225 1152 c 0,38,39
 -1230 1138 -1230 1138 -1252 1138 c 0,40,41
 -1289 1138 -1289 1138 -1281 1170 c 0,42,43
 -1268 1211 -1268 1211 -1255 1251.5 c 128,-1,44
 -1242 1292 -1242 1292 -1230 1333 c 0,45,46
 -1198 1422 -1198 1422 -1153 1496 c 0,47,48
 -1099 1580 -1099 1580 -1029.5 1629 c 128,-1,49
 -960 1678 -960 1678 -872 1678 c 0,50,51
 -835 1678 -835 1678 -802 1664.5 c 128,-1,52
 -769 1651 -769 1651 -744.5 1627.5 c 128,-1,53
 -720 1604 -720 1604 -706 1572 c 128,-1,54
 -692 1540 -692 1540 -692 1503 c 0,0,1
EndSplineSet
Validated: 1
EndChar

StartChar: uniEBD9
Encoding: 60377 60377 61
Width: 517
Flags: W
LayerCount: 2
Fore
SplineSet
-239 0 m 1,0,1
 -265 58 -265 58 -265 112 c 0,2,3
 -265 162 -265 162 -242 216 c 1,4,-1
 -22 216 l 2,5,6
 65 216 65 216 152.5 202 c 128,-1,7
 240 188 240 188 314 147 c 0,8,9
 407 96 407 96 462 11.5 c 128,-1,10
 517 -73 517 -73 517 -181 c 0,11,12
 517 -252 517 -252 489 -321 c 128,-1,13
 461 -390 461 -390 410 -444.5 c 128,-1,14
 359 -499 359 -499 287 -532.5 c 128,-1,15
 215 -566 215 -566 127 -566 c 0,16,17
 91 -566 91 -566 48.5 -558.5 c 128,-1,18
 6 -551 6 -551 -30.5 -533.5 c 128,-1,19
 -67 -516 -67 -516 -91 -487.5 c 128,-1,20
 -115 -459 -115 -459 -115 -416 c 0,21,22
 -115 -394 -115 -394 -106 -373.5 c 128,-1,23
 -97 -353 -97 -353 -82 -337.5 c 128,-1,24
 -67 -322 -67 -322 -47 -312.5 c 128,-1,25
 -27 -303 -27 -303 -4 -303 c 256,26,27
 19 -303 19 -303 42.5 -312.5 c 128,-1,28
 66 -322 66 -322 80 -342 c 0,29,30
 91 -357 91 -357 98 -378.5 c 128,-1,31
 105 -400 105 -400 112 -419 c 0,32,33
 120 -443 120 -443 135.5 -453 c 128,-1,34
 151 -463 151 -463 169 -463 c 0,35,36
 206 -463 206 -463 236 -443 c 128,-1,37
 266 -423 266 -423 288 -391 c 128,-1,38
 310 -359 310 -359 322 -319 c 128,-1,39
 334 -279 334 -279 334 -239 c 0,40,41
 334 -187 334 -187 317 -148.5 c 128,-1,42
 300 -110 300 -110 271 -83.5 c 128,-1,43
 242 -57 242 -57 203.5 -40.5 c 128,-1,44
 165 -24 165 -24 123 -15 c 128,-1,45
 81 -6 81 -6 37 -3 c 128,-1,46
 -7 0 -7 0 -46 0 c 2,47,-1
 -239 0 l 1,0,1
EndSplineSet
Validated: 1
EndChar

StartChar: uniE02E
Encoding: 57390 57390 62

Width: 567
Flags: W
LayerCount: 2
Fore
SplineSet
207 374 m 0,0,1
 207 413 207 413 206.5 450 c 128,-1,2
 206 487 206 487 204 532 c 0,3,4
 202 557 202 557 198.5 585.5 c 128,-1,5
 195 614 195 614 186 642.5 c 128,-1,6
 177 671 177 671 161.5 697.5 c 128,-1,7
 146 724 146 724 122 746 c 0,8,9
 118 749 118 749 116 754 c 128,-1,10
 114 759 114 759 119 767 c 1,11,12
 148 779 148 779 177 795.5 c 128,-1,13
 206 812 206 812 232 829.5 c 128,-1,14
 258 847 258 847 280.5 865 c 128,-1,15
 303 883 303 883 320 900 c 0,16,17
 329 905 329 905 338 900 c 0,18,19
 360 878 360 878 377.5 845 c 128,-1,20
 395 812 395 812 407 774 c 0,21,22
 421 729 421 729 423.5 688 c 128,-1,23
 426 647 426 647 426 601 c 2,24,-1
 426 210 l 2,25,26
 426 183 426 183 433.5 162.5 c 128,-1,27
 441 142 441 142 441 117 c 0,28,29
 441 86 441 86 424 65 c 0,30,31
 413 49 413 49 400 36.5 c 128,-1,32
 387 24 387 24 371 11 c 0,33,34
 349 -6 349 -6 324.5 -24.5 c 128,-1,35
 300 -43 300 -43 274 -59 c 0,36,37
 225 -91 225 -91 169 -115.5 c 128,-1,38
 113 -140 113 -140 56 -151 c 0,39,40
 33 -156 33 -156 11 -151 c 1,41,42
 54 -102 54 -102 90 -41.5 c 128,-1,43
 126 19 126 19 152 86.5 c 128,-1,44
 178 154 178 154 192.5 227 c 128,-1,45
 207 300 207 300 207 374 c 0,0,1
EndSplineSet
Validated: 1
EndChar

StartChar: uniE002
Encoding: 57346 57346 63

Width: 1277
Flags: W
LayerCount: 2
Fore
SplineSet
944 220 m 1,0,1
 904 169 904 169 855 128.5 c 128,-1,2
 806 88 806 88 751 59.5 c 128,-1,3
 696 31 696 31 636 15.5 c 128,-1,4
 576 0 576 0 513 0 c 0,5,6
 419 0 419 0 336.5 31 c 128,-1,7
 254 62 254 62 192.5 118 c 128,-1,8
 131 174 131 174 95.5 252.5 c 128,-1,9
 60 331 60 331 60 426 c 0,10,11
 60 494 60 494 80.5 559.5 c 128,-1,12
 101 625 101 625 139 685 c 0,13,14
 201 781 201 781 306 840 c 0,15,16
 361 870 361 870 423.5 886 c 128,-1,17
 486 902 486 902 560 902 c 0,18,19
 596 902 596 902 628 893 c 128,-1,20
 660 884 660 884 684.5 866 c 128,-1,21
 709 848 709 848 723 820.5 c 128,-1,22
 737 793 737 793 737 755 c 0,23,24
 737 732 737 732 727.5 710.5 c 128,-1,25
 718 689 718 689 702 673 c 128,-1,26
 686 657 686 657 664 647.5 c 128,-1,27
 642 638 642 638 618 638 c 0,28,29
 572 638 572 638 547 658 c 128,-1,30
 522 678 522 678 504.5 702 c 128,-1,31
 487 726 487 726 469.5 746 c 128,-1,32
 452 766 452 766 421 766 c 0,33,34
 382 766 382 766 356 739.5 c 128,-1,35
 330 713 330 713 314.5 674 c 128,-1,36
 299 635 299 635 292.5 591.5 c 128,-1,37
 286 548 286 548 286 515 c 0,38,39
 286 448 286 448 304 381 c 128,-1,40
 322 314 322 314 358 261 c 128,-1,41
 394 208 394 208 448 174.5 c 128,-1,42
 502 141 502 141 574 141 c 0,43,44
 659 141 659 141 724 179.5 c 128,-1,45
 789 218 789 218 835 280 c 128,-1,46
 881 342 881 342 907 421 c 128,-1,47
 933 500 933 500 941 580 c 0,48,49
 942 588 942 588 942.5 605 c 128,-1,50
 943 622 943 622 943.5 641 c 128,-1,51
 944 660 944 660 944 676.5 c 128,-1,52
 944 693 944 693 944 701 c 2,53,-1
 944 738 l 1,54,55
 953 768 953 768 977 792 c 128,-1,56
 1001 816 1001 816 1028 835 c 0,57,58
 1056 855 1056 855 1087.5 870 c 128,-1,59
 1119 885 1119 885 1148 896 c 0,60,61
 1180 907 1180 907 1209.5 916.5 c 128,-1,62
 1239 926 1239 926 1268 930 c 0,63,64
 1273 928 1273 928 1275.5 920.5 c 128,-1,65
 1278 913 1278 913 1275 910 c 0,66,67
 1224 835 1224 835 1199.5 763 c 128,-1,68
 1175 691 1175 691 1167 617.5 c 128,-1,69
 1159 544 1159 544 1160.5 468 c 128,-1,70
 1162 392 1162 392 1162 310 c 2,71,-1
 1162 -601 l 2,72,73
 1162 -626 1162 -626 1168.5 -641.5 c 128,-1,74
 1175 -657 1175 -657 1183.5 -668 c 128,-1,75
 1192 -679 1192 -679 1199 -687.5 c 128,-1,76
 1206 -696 1206 -696 1207 -706 c 0,77,78
 1209 -726 1209 -726 1197 -747.5 c 128,-1,79
 1185 -769 1185 -769 1174 -783 c 0,80,81
 1147 -818 1147 -818 1117.5 -850 c 128,-1,82
 1088 -882 1088 -882 1053 -915 c 0,83,84
 1001 -964 1001 -964 942.5 -1004.5 c 128,-1,85
 884 -1045 884 -1045 830 -1067 c 0,86,87
 799 -1080 799 -1080 771 -1085.5 c 128,-1,88
 743 -1091 743 -1091 717 -1086 c 1,89,90
 797 -957 797 -957 842.5 -814 c 128,-1,91
 888 -671 888 -671 910.5 -523.5 c 128,-1,92
 933 -376 933 -376 938.5 -230 c 128,-1,93
 944 -84 944 -84 944 50 c 2,94,-1
 944 220 l 1,95,-1
 944 220 l 1,0,1
EndSplineSet
Validated: 37
EndChar

StartChar: uniE013
Encoding: 57363 57363 64

Width: 1995
Flags: W
LayerCount: 2
Fore
SplineSet
1022 672 m 1,0,1
 1016 653 1016 653 1012.5 632.5 c 128,-1,2
 1009 612 1009 612 1006.5 593.5 c 128,-1,3
 1004 575 1004 575 1003.5 559 c 128,-1,4
 1003 543 1003 543 1003 532 c 0,5,6
 1003 473 1003 473 1018.5 405 c 128,-1,7
 1034 337 1034 337 1067 279 c 128,-1,8
 1100 221 1100 221 1151.5 182.5 c 128,-1,9
 1203 144 1203 144 1274 144 c 0,10,11
 1328 144 1328 144 1374.5 167.5 c 128,-1,12
 1421 191 1421 191 1458 230.5 c 128,-1,13
 1495 270 1495 270 1523.5 321 c 128,-1,14
 1552 372 1552 372 1571 428 c 128,-1,15
 1590 484 1590 484 1599.5 540 c 128,-1,16
 1609 596 1609 596 1609 645 c 2,17,-1
 1609 683 l 1,18,19
 1531 679 1531 679 1449.5 678 c 128,-1,20
 1368 677 1368 677 1280 674 c 0,21,22
 1217 672 1217 672 1152.5 672 c 128,-1,23
 1088 672 1088 672 1022 672 c 1,0,1
300 692 m 1,24,25
 292 672 292 672 287 649 c 128,-1,26
 282 626 282 626 279 604 c 128,-1,27
 276 582 276 582 275 563 c 128,-1,28
 274 544 274 544 274 532 c 0,29,30
 274 473 274 473 289.5 405 c 128,-1,31
 305 337 305 337 338 279 c 128,-1,32
 371 221 371 221 422.5 182.5 c 128,-1,33
 474 144 474 144 545 144 c 0,34,35
 586 144 586 144 622.5 158 c 128,-1,36
 659 172 659 172 690.5 196 c 128,-1,37
 722 220 722 220 748.5 253 c 128,-1,38
 775 286 775 286 796 324 c 1,39,40
 785 371 785 371 785 419 c 0,41,42
 785 485 785 485 804.5 549.5 c 128,-1,43
 824 614 824 614 861 672 c 1,44,45
 780 672 780 672 706.5 672 c 128,-1,46
 633 672 633 672 555 675 c 0,47,48
 530 676 530 676 498 677 c 128,-1,49
 466 678 466 678 432 680 c 128,-1,50
 398 682 398 682 363.5 684.5 c 128,-1,51
 329 687 329 687 300 692 c 1,24,25
1590 197 m 1,52,53
 1555 153 1555 153 1510.5 117 c 128,-1,54
 1466 81 1466 81 1416 55 c 128,-1,55
 1366 29 1366 29 1311 14.5 c 128,-1,56
 1256 0 1256 0 1201 0 c 0,57,58
 1090 0 1090 0 999.5 49.5 c 128,-1,59
 909 99 909 99 854 184 c 1,60,61
 819 142 819 142 775 108 c 128,-1,62
 731 74 731 74 681.5 50 c 128,-1,63
 632 26 632 26 579 13 c 128,-1,64
 526 0 526 0 472 0 c 0,65,66
 384 0 384 0 308 32 c 128,-1,67
 232 64 232 64 176 120 c 128,-1,68
 120 176 120 176 88 252.5 c 128,-1,69
 56 329 56 329 56 419 c 0,70,71
 56 500 56 500 85.5 577.5 c 128,-1,72
 115 655 115 655 165 718 c 1,73,74
 154 721 154 721 146.5 723.5 c 128,-1,75
 139 726 139 726 131 729 c 0,76,77
 108 738 108 738 89 748.5 c 128,-1,78
 70 759 70 759 59 770 c 0,79,80
 45 793 45 793 34.5 831.5 c 128,-1,81
 24 870 24 870 21.5 909.5 c 128,-1,82
 19 949 19 949 25 982 c 128,-1,83
 31 1015 31 1015 50 1028 c 1,84,85
 102 989 102 989 164.5 961.5 c 128,-1,86
 227 934 227 934 294.5 916 c 128,-1,87
 362 898 362 898 432.5 888 c 128,-1,88
 503 878 503 878 572 874 c 0,89,90
 603 872 603 872 633 871 c 128,-1,91
 663 870 663 870 692 870 c 0,92,93
 740 870 740 870 813 870 c 128,-1,94
 886 870 886 870 972.5 870.5 c 128,-1,95
 1059 871 1059 871 1152 871.5 c 128,-1,96
 1245 872 1245 872 1332.5 873 c 128,-1,97
 1420 874 1420 874 1495.5 875.5 c 128,-1,98
 1571 877 1571 877 1622 880 c 0,99,100
 1693 884 1693 884 1758 887 c 128,-1,101
 1823 890 1823 890 1880 899 c 0,102,103
 1885 900 1885 900 1890 900.5 c 128,-1,104
 1895 901 1895 901 1900 901 c 0,105,106
 1911 895 1911 895 1916.5 881.5 c 128,-1,107
 1922 868 1922 868 1917 851 c 1,108,109
 1894 825 1894 825 1879.5 808 c 128,-1,110
 1865 791 1865 791 1852 764 c 0,111,112
 1841 741 1841 741 1834 709 c 128,-1,113
 1827 677 1827 677 1827 632 c 2,114,-1
 1827 527 l 2,115,116
 1827 447 1827 447 1832 366.5 c 128,-1,117
 1837 286 1837 286 1854.5 209.5 c 128,-1,118
 1872 133 1872 133 1905 62 c 128,-1,119
 1938 -9 1938 -9 1995 -72 c 1,120,121
 1984 -74 1984 -74 1972.5 -74 c 128,-1,122
 1961 -74 1961 -74 1950 -72 c 0,123,124
 1924 -68 1924 -68 1899 -60 c 128,-1,125
 1874 -52 1874 -52 1848 -42 c 0,126,127
 1816 -29 1816 -29 1784 -13 c 128,-1,128
 1752 3 1752 3 1722 23 c 0,129,130
 1690 45 1690 45 1659 70 c 128,-1,131
 1628 95 1628 95 1607 127 c 0,132,133
 1590 156 1590 156 1590 197 c 1,52,53
EndSplineSet
Validated: 33
EndChar

StartChar: uniE00B
Encoding: 57355 57355 65

Width: 1344
Flags: W
LayerCount: 2
Fore
SplineSet
334 690 m 1,0,1
 314 649 314 649 307 601 c 128,-1,2
 300 553 300 553 300 515 c 0,3,4
 300 448 300 448 318 381 c 128,-1,5
 336 314 336 314 372 261 c 128,-1,6
 408 208 408 208 462 174.5 c 128,-1,7
 516 141 516 141 588 141 c 0,8,9
 650 141 650 141 702 162.5 c 128,-1,10
 754 184 754 184 795 220.5 c 128,-1,11
 836 257 836 257 866.5 306.5 c 128,-1,12
 897 356 897 356 917.5 412 c 128,-1,13
 938 468 938 468 948 527.5 c 128,-1,14
 958 587 958 587 958 645 c 2,15,-1
 958 683 l 1,16,17
 892 678 892 678 816 675 c 128,-1,18
 740 672 740 672 658 672 c 0,19,20
 577 672 577 672 496 676 c 128,-1,21
 415 680 415 680 334 690 c 1,0,1
958 875 m 1,22,-1
 958 1181 l 2,23,24
 958 1209 958 1209 958 1233.5 c 128,-1,25
 958 1258 958 1258 957.5 1282 c 128,-1,26
 957 1306 957 1306 956 1331 c 128,-1,27
 955 1356 955 1356 954 1385 c 0,28,29
 952 1410 952 1410 948.5 1438.5 c 128,-1,30
 945 1467 945 1467 936 1495.5 c 128,-1,31
 927 1524 927 1524 911.5 1550.5 c 128,-1,32
 896 1577 896 1577 872 1599 c 0,33,34
 868 1602 868 1602 866 1607 c 128,-1,35
 864 1612 864 1612 869 1620 c 1,36,37
 898 1632 898 1632 927 1648.5 c 128,-1,38
 956 1665 956 1665 982 1682.5 c 128,-1,39
 1008 1700 1008 1700 1030.5 1718 c 128,-1,40
 1053 1736 1053 1736 1070 1753 c 0,41,42
 1079 1758 1079 1758 1088 1753 c 0,43,44
 1110 1731 1110 1731 1127.5 1698 c 128,-1,45
 1145 1665 1145 1665 1157 1627 c 0,46,47
 1171 1582 1171 1582 1173.5 1541 c 128,-1,48
 1176 1500 1176 1500 1176 1454 c 2,49,-1
 1176 773 l 2,50,51
 1176 709 1176 709 1176 636 c 128,-1,52
 1176 563 1176 563 1180 486.5 c 128,-1,53
 1184 410 1184 410 1193 332.5 c 128,-1,54
 1202 255 1202 255 1221 182.5 c 128,-1,55
 1240 110 1240 110 1269.5 45 c 128,-1,56
 1299 -20 1299 -20 1344 -72 c 1,57,58
 1333 -74 1333 -74 1321.5 -74 c 128,-1,59
 1310 -74 1310 -74 1299 -72 c 0,60,61
 1273 -68 1273 -68 1248 -60 c 128,-1,62
 1223 -52 1223 -52 1197 -42 c 0,63,64
 1165 -29 1165 -29 1133 -13 c 128,-1,65
 1101 3 1101 3 1071 23 c 0,66,67
 1039 45 1039 45 1008 70 c 128,-1,68
 977 95 977 95 956 127 c 0,69,70
 947 142 947 142 942.5 159 c 128,-1,71
 938 176 938 176 939 197 c 1,72,73
 900 152 900 152 852 115.5 c 128,-1,74
 804 79 804 79 751 53.5 c 128,-1,75
 698 28 698 28 641.5 14 c 128,-1,76
 585 0 585 0 527 0 c 0,77,78
 433 0 433 0 350.5 31 c 128,-1,79
 268 62 268 62 206.5 118 c 128,-1,80
 145 174 145 174 109.5 252.5 c 128,-1,81
 74 331 74 331 74 426 c 0,82,83
 74 494 74 494 94.5 559.5 c 128,-1,84
 115 625 115 625 153 685 c 0,85,86
 163 701 163 701 176 717 c 1,87,88
 136 728 136 728 106 741 c 128,-1,89
 76 754 76 754 59 771 c 1,90,91
 45 794 45 794 34.5 832.5 c 128,-1,92
 24 871 24 871 21.5 910.5 c 128,-1,93
 19 950 19 950 25 983 c 128,-1,94
 31 1016 31 1016 50 1029 c 1,95,96
 114 981 114 981 192 951 c 128,-1,97
 270 921 270 921 354 903.5 c 128,-1,98
 438 886 438 886 524.5 879 c 128,-1,99
 611 872 611 872 692 871 c 0,100,101
 759 870 759 870 826 871 c 128,-1,102
 893 872 893 872 958 875 c 1,22,-1
EndSplineSet
Validated: 33
EndChar

StartChar: uniE00A
Encoding: 57354 57354 66

Width: 1330
Flags: W
LayerCount: 2
Fore
SplineSet
944 1181 m 2,0,1
 944 1209 944 1209 944 1233.5 c 128,-1,2
 944 1258 944 1258 943.5 1282 c 128,-1,3
 943 1306 943 1306 942 1331 c 128,-1,4
 941 1356 941 1356 940 1385 c 0,5,6
 938 1410 938 1410 934.5 1438.5 c 128,-1,7
 931 1467 931 1467 922 1495.5 c 128,-1,8
 913 1524 913 1524 897.5 1550.5 c 128,-1,9
 882 1577 882 1577 858 1599 c 0,10,11
 854 1602 854 1602 852 1607 c 128,-1,12
 850 1612 850 1612 855 1620 c 1,13,14
 884 1632 884 1632 913 1648.5 c 128,-1,15
 942 1665 942 1665 968 1682.5 c 128,-1,16
 994 1700 994 1700 1016.5 1718 c 128,-1,17
 1039 1736 1039 1736 1056 1753 c 0,18,19
 1065 1758 1065 1758 1074 1753 c 0,20,21
 1096 1731 1096 1731 1113.5 1698 c 128,-1,22
 1131 1665 1131 1665 1143 1627 c 0,23,24
 1157 1582 1157 1582 1159.5 1541 c 128,-1,25
 1162 1500 1162 1500 1162 1454 c 2,26,-1
 1162 773 l 2,27,28
 1162 709 1162 709 1162 636 c 128,-1,29
 1162 563 1162 563 1166 486.5 c 128,-1,30
 1170 410 1170 410 1179 332.5 c 128,-1,31
 1188 255 1188 255 1207 182.5 c 128,-1,32
 1226 110 1226 110 1255.5 45 c 128,-1,33
 1285 -20 1285 -20 1330 -72 c 1,34,35
 1319 -74 1319 -74 1307.5 -74 c 128,-1,36
 1296 -74 1296 -74 1285 -72 c 0,37,38
 1259 -68 1259 -68 1234 -60 c 128,-1,39
 1209 -52 1209 -52 1183 -42 c 0,40,41
 1151 -29 1151 -29 1119 -13 c 128,-1,42
 1087 3 1087 3 1057 23 c 0,43,44
 1025 45 1025 45 994 70 c 128,-1,45
 963 95 963 95 942 127 c 0,46,47
 933 142 933 142 928.5 159 c 128,-1,48
 924 176 924 176 925 197 c 1,49,50
 885 152 885 152 838 115.5 c 128,-1,51
 791 79 791 79 738.5 53.5 c 128,-1,52
 686 28 686 28 629 14 c 128,-1,53
 572 0 572 0 513 0 c 0,54,55
 419 0 419 0 336.5 31 c 128,-1,56
 254 62 254 62 192.5 118 c 128,-1,57
 131 174 131 174 95.5 252.5 c 128,-1,58
 60 331 60 331 60 426 c 0,59,60
 60 494 60 494 80.5 559.5 c 128,-1,61
 101 625 101 625 139 685 c 0,62,63
 201 781 201 781 306 840 c 0,64,65
 361 870 361 870 423.5 886 c 128,-1,66
 486 902 486 902 560 902 c 0,67,68
 596 902 596 902 628 893 c 128,-1,69
 660 884 660 884 684.5 866 c 128,-1,70
 709 848 709 848 723 820.5 c 128,-1,71
 737 793 737 793 737 755 c 0,72,73
 737 732 737 732 727.5 710.5 c 128,-1,74
 718 689 718 689 702 673 c 128,-1,75
 686 657 686 657 664 647.5 c 128,-1,76
 642 638 642 638 618 638 c 0,77,78
 572 638 572 638 547 658 c 128,-1,79
 522 678 522 678 504.5 702 c 128,-1,80
 487 726 487 726 469.5 746 c 128,-1,81
 452 766 452 766 421 766 c 0,82,83
 382 766 382 766 356 739.5 c 128,-1,84
 330 713 330 713 314.5 674 c 128,-1,85
 299 635 299 635 292.5 591.5 c 128,-1,86
 286 548 286 548 286 515 c 0,87,88
 286 448 286 448 304 381 c 128,-1,89
 322 314 322 314 358 261 c 128,-1,90
 394 208 394 208 448 174.5 c 128,-1,91
 502 141 502 141 574 141 c 0,92,93
 636 141 636 141 688 162.5 c 128,-1,94
 740 184 740 184 781 220.5 c 128,-1,95
 822 257 822 257 852.5 306.5 c 128,-1,96
 883 356 883 356 903.5 412 c 128,-1,97
 924 468 924 468 934 527.5 c 128,-1,98
 944 587 944 587 944 645 c 2,99,-1
 944 1181 l 2,0,1
EndSplineSet
Validated: 1
EndChar

StartChar: uniE009
Encoding: 57353 57353 67

Width: 1429
Flags: W
LayerCount: 2
Fore
SplineSet
920 188 m 1,0,1
 998 229 998 229 1030 297 c 128,-1,2
 1062 365 1062 365 1062 454 c 0,3,4
 1062 514 1062 514 1043.5 569.5 c 128,-1,5
 1025 625 1025 625 989.5 667.5 c 128,-1,6
 954 710 954 710 902.5 735.5 c 128,-1,7
 851 761 851 761 785 761 c 0,8,9
 711 761 711 761 649 729.5 c 128,-1,10
 587 698 587 698 539 645 c 0,11,12
 479 579 479 579 451.5 498.5 c 128,-1,13
 424 418 424 418 416 333 c 0,14,15
 412 297 412 297 408.5 261 c 128,-1,16
 405 225 405 225 395 188 c 1,17,-1
 920 188 l 1,0,1
414 682 m 1,18,19
 454 733 454 733 503 773.5 c 128,-1,20
 552 814 552 814 607.5 842.5 c 128,-1,21
 663 871 663 871 723 886.5 c 128,-1,22
 783 902 783 902 846 902 c 0,23,24
 938 902 938 902 1020.5 871 c 128,-1,25
 1103 840 1103 840 1165 784.5 c 128,-1,26
 1227 729 1227 729 1263 652 c 128,-1,27
 1299 575 1299 575 1299 482 c 0,28,29
 1299 408 1299 408 1271 335 c 128,-1,30
 1243 262 1243 262 1189 209 c 1,31,32
 1246 219 1246 219 1297.5 239.5 c 128,-1,33
 1349 260 1349 260 1394 303 c 1,34,35
 1404 306 1404 306 1409 296 c 1,36,37
 1407 282 1407 282 1404.5 267.5 c 128,-1,38
 1402 253 1402 253 1400 240 c 0,39,40
 1386 162 1386 162 1356 114.5 c 128,-1,41
 1326 67 1326 67 1278.5 41.5 c 128,-1,42
 1231 16 1231 16 1165 8 c 128,-1,43
 1099 0 1099 0 1013 0 c 2,44,-1
 487 0 l 1,45,-1
 220 0 l 1,46,47
 178 -26 178 -26 134 -46 c 128,-1,48
 90 -66 90 -66 45 -74 c 0,49,50
 22 -79 22 -79 0 -74 c 1,51,52
 47 -4 47 -4 80 74.5 c 128,-1,53
 113 153 113 153 135 236.5 c 128,-1,54
 157 320 157 320 169.5 407 c 128,-1,55
 182 494 182 494 188 581 c 0,56,57
 197 706 197 706 196.5 828 c 128,-1,58
 196 950 196 950 196 1062 c 2,59,-1
 196 1181 l 2,60,61
 196 1209 196 1209 196 1233.5 c 128,-1,62
 196 1258 196 1258 195.5 1282 c 128,-1,63
 195 1306 195 1306 194 1331 c 128,-1,64
 193 1356 193 1356 192 1385 c 0,65,66
 190 1410 190 1410 186.5 1438.5 c 128,-1,67
 183 1467 183 1467 174 1495.5 c 128,-1,68
 165 1524 165 1524 149.5 1550.5 c 128,-1,69
 134 1577 134 1577 110 1599 c 0,70,71
 106 1602 106 1602 104 1607 c 128,-1,72
 102 1612 102 1612 107 1620 c 1,73,74
 136 1632 136 1632 165 1648.5 c 128,-1,75
 194 1665 194 1665 220 1682.5 c 128,-1,76
 246 1700 246 1700 268.5 1718 c 128,-1,77
 291 1736 291 1736 308 1753 c 0,78,79
 317 1758 317 1758 326 1753 c 0,80,81
 348 1731 348 1731 365.5 1698 c 128,-1,82
 383 1665 383 1665 395 1627 c 0,83,84
 409 1582 409 1582 411.5 1541 c 128,-1,85
 414 1500 414 1500 414 1454 c 2,86,-1
 414 682 l 1,18,19
EndSplineSet
Validated: 33
EndChar

StartChar: uniE00E
Encoding: 57358 57358 68

Width: 1999
Flags: W
LayerCount: 2
Fore
SplineSet
1831 773 m 2,0,1
 1831 709 1831 709 1831 636 c 128,-1,2
 1831 563 1831 563 1835 486.5 c 128,-1,3
 1839 410 1839 410 1848 332.5 c 128,-1,4
 1857 255 1857 255 1876 182.5 c 128,-1,5
 1895 110 1895 110 1924.5 45 c 128,-1,6
 1954 -20 1954 -20 1999 -72 c 1,7,8
 1988 -74 1988 -74 1976.5 -74 c 128,-1,9
 1965 -74 1965 -74 1954 -72 c 0,10,11
 1928 -68 1928 -68 1903 -60 c 128,-1,12
 1878 -52 1878 -52 1852 -42 c 0,13,14
 1820 -29 1820 -29 1788 -13 c 128,-1,15
 1756 3 1756 3 1726 23 c 0,16,17
 1694 45 1694 45 1663 70 c 128,-1,18
 1632 95 1632 95 1611 127 c 0,19,20
 1593 156 1593 156 1594 194 c 1,21,22
 1559 150 1559 150 1514.5 114.5 c 128,-1,23
 1470 79 1470 79 1420 53.5 c 128,-1,24
 1370 28 1370 28 1315 14 c 128,-1,25
 1260 0 1260 0 1205 0 c 0,26,27
 1094 0 1094 0 1003.5 49.5 c 128,-1,28
 913 99 913 99 858 184 c 1,29,30
 823 142 823 142 779 108 c 128,-1,31
 735 74 735 74 685.5 50 c 128,-1,32
 636 26 636 26 583 13 c 128,-1,33
 530 0 530 0 476 0 c 0,34,35
 388 0 388 0 312 32 c 128,-1,36
 236 64 236 64 180 120 c 128,-1,37
 124 176 124 176 92 252.5 c 128,-1,38
 60 329 60 329 60 419 c 0,39,40
 60 497 60 497 87.5 573 c 128,-1,41
 115 649 115 649 166 714 c 0,42,43
 197 753 197 753 235.5 787.5 c 128,-1,44
 274 822 274 822 319 847.5 c 128,-1,45
 364 873 364 873 413 887.5 c 128,-1,46
 462 902 462 902 514 902 c 0,47,48
 546 902 546 902 576 893 c 128,-1,49
 606 884 606 884 629 866 c 128,-1,50
 652 848 652 848 665.5 820.5 c 128,-1,51
 679 793 679 793 679 755 c 0,52,53
 679 732 679 732 669.5 710.5 c 128,-1,54
 660 689 660 689 644 673 c 128,-1,55
 628 657 628 657 606 647.5 c 128,-1,56
 584 638 584 638 560 638 c 0,57,58
 530 638 530 638 509.5 646.5 c 128,-1,59
 489 655 489 655 473.5 668.5 c 128,-1,60
 458 682 458 682 446.5 697 c 128,-1,61
 435 712 435 712 424.5 725.5 c 128,-1,62
 414 739 414 739 402.5 747.5 c 128,-1,63
 391 756 391 756 375 756 c 0,64,65
 354 756 354 756 338.5 743 c 128,-1,66
 323 730 323 730 312.5 710 c 128,-1,67
 302 690 302 690 295 664.5 c 128,-1,68
 288 639 288 639 284.5 614.5 c 128,-1,69
 281 590 281 590 279.5 568 c 128,-1,70
 278 546 278 546 278 532 c 0,71,72
 278 473 278 473 293.5 405 c 128,-1,73
 309 337 309 337 342 279 c 128,-1,74
 375 221 375 221 426.5 182.5 c 128,-1,75
 478 144 478 144 549 144 c 0,76,77
 590 144 590 144 626.5 158 c 128,-1,78
 663 172 663 172 694.5 196 c 128,-1,79
 726 220 726 220 752.5 253 c 128,-1,80
 779 286 779 286 800 324 c 1,81,82
 789 371 789 371 789 419 c 0,83,84
 789 497 789 497 816.5 573 c 128,-1,85
 844 649 844 649 895 714 c 0,86,87
 926 753 926 753 964.5 787.5 c 128,-1,88
 1003 822 1003 822 1048 847.5 c 128,-1,89
 1093 873 1093 873 1142 887.5 c 128,-1,90
 1191 902 1191 902 1243 902 c 0,91,92
 1275 902 1275 902 1305 893 c 128,-1,93
 1335 884 1335 884 1358 866 c 128,-1,94
 1381 848 1381 848 1394.5 820.5 c 128,-1,95
 1408 793 1408 793 1408 755 c 0,96,97
 1408 732 1408 732 1398.5 710.5 c 128,-1,98
 1389 689 1389 689 1373 673 c 128,-1,99
 1357 657 1357 657 1335 647.5 c 128,-1,100
 1313 638 1313 638 1289 638 c 0,101,102
 1259 638 1259 638 1238.5 646.5 c 128,-1,103
 1218 655 1218 655 1202.5 668.5 c 128,-1,104
 1187 682 1187 682 1175.5 697 c 128,-1,105
 1164 712 1164 712 1153.5 725.5 c 128,-1,106
 1143 739 1143 739 1131.5 747.5 c 128,-1,107
 1120 756 1120 756 1104 756 c 0,108,109
 1083 756 1083 756 1067.5 743 c 128,-1,110
 1052 730 1052 730 1041.5 710 c 128,-1,111
 1031 690 1031 690 1024 664.5 c 128,-1,112
 1017 639 1017 639 1013.5 614.5 c 128,-1,113
 1010 590 1010 590 1008.5 568 c 128,-1,114
 1007 546 1007 546 1007 532 c 0,115,116
 1007 473 1007 473 1022.5 405 c 128,-1,117
 1038 337 1038 337 1071 279 c 128,-1,118
 1104 221 1104 221 1155.5 182.5 c 128,-1,119
 1207 144 1207 144 1278 144 c 0,120,121
 1332 144 1332 144 1378.5 167.5 c 128,-1,122
 1425 191 1425 191 1462 230.5 c 128,-1,123
 1499 270 1499 270 1527.5 321 c 128,-1,124
 1556 372 1556 372 1575 428 c 128,-1,125
 1594 484 1594 484 1603.5 540 c 128,-1,126
 1613 596 1613 596 1613 645 c 2,127,-1
 1613 1181 l 2,128,129
 1613 1209 1613 1209 1613 1233.5 c 128,-1,130
 1613 1258 1613 1258 1612.5 1282 c 128,-1,131
 1612 1306 1612 1306 1611 1331 c 128,-1,132
 1610 1356 1610 1356 1609 1385 c 0,133,134
 1607 1410 1607 1410 1603.5 1438.5 c 128,-1,135
 1600 1467 1600 1467 1591 1495.5 c 128,-1,136
 1582 1524 1582 1524 1566.5 1550.5 c 128,-1,137
 1551 1577 1551 1577 1527 1599 c 0,138,139
 1523 1602 1523 1602 1521 1607 c 128,-1,140
 1519 1612 1519 1612 1524 1620 c 1,141,142
 1553 1632 1553 1632 1582 1648.5 c 128,-1,143
 1611 1665 1611 1665 1637 1682.5 c 128,-1,144
 1663 1700 1663 1700 1685.5 1718 c 128,-1,145
 1708 1736 1708 1736 1725 1753 c 0,146,147
 1734 1758 1734 1758 1743 1753 c 0,148,149
 1765 1731 1765 1731 1782.5 1698 c 128,-1,150
 1800 1665 1800 1665 1812 1627 c 0,151,152
 1826 1582 1826 1582 1828.5 1541 c 128,-1,153
 1831 1500 1831 1500 1831 1454 c 2,154,-1
 1831 773 l 2,0,1
EndSplineSet
Validated: 33
EndChar

StartChar: uniE012
Encoding: 57362 57362 69

Width: 1999
Flags: W
LayerCount: 2
Fore
SplineSet
1613 738 m 1,0,1
 1622 768 1622 768 1646 792 c 128,-1,2
 1670 816 1670 816 1697 835 c 0,3,4
 1725 855 1725 855 1756.5 870 c 128,-1,5
 1788 885 1788 885 1817 896 c 0,6,7
 1849 907 1849 907 1878.5 916.5 c 128,-1,8
 1908 926 1908 926 1937 930 c 0,9,10
 1942 928 1942 928 1944.5 920.5 c 128,-1,11
 1947 913 1947 913 1944 910 c 0,12,13
 1913 863 1913 863 1891.5 818.5 c 128,-1,14
 1870 774 1870 774 1856.5 729 c 128,-1,15
 1843 684 1843 684 1837 638 c 128,-1,16
 1831 592 1831 592 1831 542 c 0,17,18
 1831 460 1831 460 1835.5 378 c 128,-1,19
 1840 296 1840 296 1857 217 c 128,-1,20
 1874 138 1874 138 1907.5 65 c 128,-1,21
 1941 -8 1941 -8 1999 -72 c 1,22,23
 1988 -74 1988 -74 1976.5 -74 c 128,-1,24
 1965 -74 1965 -74 1954 -72 c 0,25,26
 1928 -68 1928 -68 1903 -60 c 128,-1,27
 1878 -52 1878 -52 1852 -42 c 0,28,29
 1820 -29 1820 -29 1788 -13 c 128,-1,30
 1756 3 1756 3 1726 23 c 0,31,32
 1694 45 1694 45 1663 70 c 128,-1,33
 1632 95 1632 95 1611 127 c 0,34,35
 1593 156 1593 156 1594 194 c 1,36,37
 1559 150 1559 150 1514.5 114.5 c 128,-1,38
 1470 79 1470 79 1420 53.5 c 128,-1,39
 1370 28 1370 28 1315 14 c 128,-1,40
 1260 0 1260 0 1205 0 c 0,41,42
 1094 0 1094 0 1003.5 49.5 c 128,-1,43
 913 99 913 99 858 184 c 1,44,45
 823 142 823 142 779 108 c 128,-1,46
 735 74 735 74 685.5 50 c 128,-1,47
 636 26 636 26 583 13 c 128,-1,48
 530 0 530 0 476 0 c 0,49,50
 388 0 388 0 312 32 c 128,-1,51
 236 64 236 64 180 120 c 128,-1,52
 124 176 124 176 92 252.5 c 128,-1,53
 60 329 60 329 60 419 c 0,54,55
 60 497 60 497 87.5 573 c 128,-1,56
 115 649 115 649 166 714 c 0,57,58
 197 753 197 753 235.5 787.5 c 128,-1,59
 274 822 274 822 319 847.5 c 128,-1,60
 364 873 364 873 413 887.5 c 128,-1,61
 462 902 462 902 514 902 c 0,62,63
 546 902 546 902 576 893 c 128,-1,64
 606 884 606 884 629 866 c 128,-1,65
 652 848 652 848 665.5 820.5 c 128,-1,66
 679 793 679 793 679 755 c 0,67,68
 679 732 679 732 669.5 710.5 c 128,-1,69
 660 689 660 689 644 673 c 128,-1,70
 628 657 628 657 606 647.5 c 128,-1,71
 584 638 584 638 560 638 c 0,72,73
 530 638 530 638 509.5 646.5 c 128,-1,74
 489 655 489 655 473.5 668.5 c 128,-1,75
 458 682 458 682 446.5 697 c 128,-1,76
 435 712 435 712 424.5 725.5 c 128,-1,77
 414 739 414 739 402.5 747.5 c 128,-1,78
 391 756 391 756 375 756 c 0,79,80
 354 756 354 756 338.5 743 c 128,-1,81
 323 730 323 730 312.5 710 c 128,-1,82
 302 690 302 690 295 664.5 c 128,-1,83
 288 639 288 639 284.5 614.5 c 128,-1,84
 281 590 281 590 279.5 568 c 128,-1,85
 278 546 278 546 278 532 c 0,86,87
 278 473 278 473 293.5 405 c 128,-1,88
 309 337 309 337 342 279 c 128,-1,89
 375 221 375 221 426.5 182.5 c 128,-1,90
 478 144 478 144 549 144 c 0,91,92
 590 144 590 144 626.5 158 c 128,-1,93
 663 172 663 172 694.5 196 c 128,-1,94
 726 220 726 220 752.5 253 c 128,-1,95
 779 286 779 286 800 324 c 1,96,97
 789 371 789 371 789 419 c 0,98,99
 789 497 789 497 816.5 573 c 128,-1,100
 844 649 844 649 895 714 c 0,101,102
 926 753 926 753 964.5 787.5 c 128,-1,103
 1003 822 1003 822 1048 847.5 c 128,-1,104
 1093 873 1093 873 1142 887.5 c 128,-1,105
 1191 902 1191 902 1243 902 c 0,106,107
 1275 902 1275 902 1305 893 c 128,-1,108
 1335 884 1335 884 1358 866 c 128,-1,109
 1381 848 1381 848 1394.5 820.5 c 128,-1,110
 1408 793 1408 793 1408 755 c 0,111,112
 1408 732 1408 732 1398.5 710.5 c 128,-1,113
 1389 689 1389 689 1373 673 c 128,-1,114
 1357 657 1357 657 1335 647.5 c 128,-1,115
 1313 638 1313 638 1289 638 c 0,116,117
 1259 638 1259 638 1238.5 646.5 c 128,-1,118
 1218 655 1218 655 1202.5 668.5 c 128,-1,119
 1187 682 1187 682 1175.5 697 c 128,-1,120
 1164 712 1164 712 1153.5 725.5 c 128,-1,121
 1143 739 1143 739 1131.5 747.5 c 128,-1,122
 1120 756 1120 756 1104 756 c 0,123,124
 1083 756 1083 756 1067.5 743 c 128,-1,125
 1052 730 1052 730 1041.5 710 c 128,-1,126
 1031 690 1031 690 1024 664.5 c 128,-1,127
 1017 639 1017 639 1013.5 614.5 c 128,-1,128
 1010 590 1010 590 1008.5 568 c 128,-1,129
 1007 546 1007 546 1007 532 c 0,130,131
 1007 473 1007 473 1022.5 405 c 128,-1,132
 1038 337 1038 337 1071 279 c 128,-1,133
 1104 221 1104 221 1155.5 182.5 c 128,-1,134
 1207 144 1207 144 1278 144 c 0,135,136
 1332 144 1332 144 1378.5 167.5 c 128,-1,137
 1425 191 1425 191 1462 230.5 c 128,-1,138
 1499 270 1499 270 1527.5 321 c 128,-1,139
 1556 372 1556 372 1575 428 c 128,-1,140
 1594 484 1594 484 1603.5 540 c 128,-1,141
 1613 596 1613 596 1613 645 c 2,142,-1
 1613 738 l 1,0,1
EndSplineSet
Validated: 33
EndChar

StartChar: uniE016
Encoding: 57366 57366 70

Width: 1330
Flags: W
LayerCount: 2
Fore
SplineSet
1330 -72 m 1,0,1
 1319 -74 1319 -74 1307.5 -74 c 128,-1,2
 1296 -74 1296 -74 1285 -72 c 0,3,4
 1259 -68 1259 -68 1234 -60 c 128,-1,5
 1209 -52 1209 -52 1183 -42 c 0,6,7
 1151 -29 1151 -29 1119 -13 c 128,-1,8
 1087 3 1087 3 1057 23 c 0,9,10
 1025 45 1025 45 994 70 c 128,-1,11
 963 95 963 95 942 127 c 0,12,13
 933 142 933 142 928.5 159 c 128,-1,14
 924 176 924 176 925 197 c 1,15,16
 885 152 885 152 838 115.5 c 128,-1,17
 791 79 791 79 738.5 53.5 c 128,-1,18
 686 28 686 28 629 14 c 128,-1,19
 572 0 572 0 513 0 c 0,20,21
 419 0 419 0 336.5 31 c 128,-1,22
 254 62 254 62 192.5 118 c 128,-1,23
 131 174 131 174 95.5 252.5 c 128,-1,24
 60 331 60 331 60 426 c 0,25,26
 60 494 60 494 80.5 559.5 c 128,-1,27
 101 625 101 625 139 685 c 0,28,29
 201 781 201 781 306 840 c 0,30,31
 361 870 361 870 423.5 886 c 128,-1,32
 486 902 486 902 560 902 c 0,33,34
 596 902 596 902 628 893 c 128,-1,35
 660 884 660 884 684.5 866 c 128,-1,36
 709 848 709 848 723 820.5 c 128,-1,37
 737 793 737 793 737 755 c 0,38,39
 737 732 737 732 727.5 710.5 c 128,-1,40
 718 689 718 689 702 673 c 128,-1,41
 686 657 686 657 664 647.5 c 128,-1,42
 642 638 642 638 618 638 c 0,43,44
 572 638 572 638 547 658 c 128,-1,45
 522 678 522 678 504.5 702 c 128,-1,46
 487 726 487 726 469.5 746 c 128,-1,47
 452 766 452 766 421 766 c 0,48,49
 382 766 382 766 356 739.5 c 128,-1,50
 330 713 330 713 314.5 674 c 128,-1,51
 299 635 299 635 292.5 591.5 c 128,-1,52
 286 548 286 548 286 515 c 0,53,54
 286 448 286 448 304 381 c 128,-1,55
 322 314 322 314 358 261 c 128,-1,56
 394 208 394 208 448 174.5 c 128,-1,57
 502 141 502 141 574 141 c 0,58,59
 636 141 636 141 688 162.5 c 128,-1,60
 740 184 740 184 781 220.5 c 128,-1,61
 822 257 822 257 852.5 306.5 c 128,-1,62
 883 356 883 356 903.5 412 c 128,-1,63
 924 468 924 468 934 527.5 c 128,-1,64
 944 587 944 587 944 645 c 2,65,-1
 944 738 l 1,66,67
 953 768 953 768 977 792 c 128,-1,68
 1001 816 1001 816 1028 835 c 0,69,70
 1056 855 1056 855 1087.5 870 c 128,-1,71
 1119 885 1119 885 1148 896 c 0,72,73
 1180 907 1180 907 1209.5 916.5 c 128,-1,74
 1239 926 1239 926 1268 930 c 0,75,76
 1273 928 1273 928 1275.5 920.5 c 128,-1,77
 1278 913 1278 913 1275 910 c 0,78,79
 1244 863 1244 863 1222.5 818.5 c 128,-1,80
 1201 774 1201 774 1187.5 729 c 128,-1,81
 1174 684 1174 684 1168 638 c 128,-1,82
 1162 592 1162 592 1162 542 c 0,83,84
 1162 460 1162 460 1166.5 378 c 128,-1,85
 1171 296 1171 296 1188 217 c 128,-1,86
 1205 138 1205 138 1238.5 65 c 128,-1,87
 1272 -8 1272 -8 1330 -72 c 1,0,1
EndSplineSet
Validated: 1
EndChar

StartChar: uniE025
Encoding: 57381 57381 71

Width: 1156
Flags: W
LayerCount: 2
Fore
SplineSet
60 435 m 0,0,1
 60 539 60 539 100.5 625 c 128,-1,2
 141 711 141 711 210 772.5 c 128,-1,3
 279 834 279 834 370.5 868 c 128,-1,4
 462 902 462 902 563 902 c 0,5,6
 667 902 667 902 765.5 869 c 128,-1,7
 864 836 864 836 940.5 773 c 128,-1,8
 1017 710 1017 710 1061.5 619 c 128,-1,9
 1106 528 1106 528 1102 413 c 0,10,11
 1098 303 1098 303 1055.5 209 c 128,-1,12
 1013 115 1013 115 944 28 c 0,13,14
 872 -62 872 -62 780.5 -146 c 128,-1,15
 689 -230 689 -230 591 -320 c 0,16,17
 569 -340 569 -340 550.5 -357 c 128,-1,18
 532 -374 532 -374 514 -390.5 c 128,-1,19
 496 -407 496 -407 477.5 -425 c 128,-1,20
 459 -443 459 -443 437 -464 c 0,21,22
 423 -478 423 -478 402.5 -500.5 c 128,-1,23
 382 -523 382 -523 359.5 -550.5 c 128,-1,24
 337 -578 337 -578 315 -610.5 c 128,-1,25
 293 -643 293 -643 277 -676 c 0,26,27
 259 -713 259 -713 251.5 -749 c 128,-1,28
 244 -785 244 -785 246 -817 c 1,29,30
 221 -816 221 -816 199 -807 c 128,-1,31
 177 -798 177 -798 160 -782 c 128,-1,32
 143 -766 143 -766 132.5 -742 c 128,-1,33
 122 -718 122 -718 121 -686 c 0,34,35
 119 -653 119 -653 132.5 -614 c 128,-1,36
 146 -575 146 -575 179 -531 c 0,37,38
 191 -516 191 -516 201.5 -503 c 128,-1,39
 212 -490 212 -490 223 -478 c 0,40,41
 249 -449 249 -449 273.5 -425.5 c 128,-1,42
 298 -402 298 -402 326 -374 c 0,43,44
 362 -338 362 -338 398 -304.5 c 128,-1,45
 434 -271 434 -271 480 -228 c 0,46,47
 529 -182 529 -182 577 -137.5 c 128,-1,48
 625 -93 625 -93 669 -49 c 128,-1,49
 713 -5 713 -5 750.5 38.5 c 128,-1,50
 788 82 788 82 816 127 c 0,51,52
 848 179 848 179 863 232.5 c 128,-1,53
 878 286 878 286 878 339 c 0,54,55
 878 423 878 423 845.5 489.5 c 128,-1,56
 813 556 813 556 757.5 602.5 c 128,-1,57
 702 649 702 649 629 674 c 128,-1,58
 556 699 556 699 476 700 c 0,59,60
 405 701 405 701 344.5 682 c 128,-1,61
 284 663 284 663 235 614 c 0,62,63
 224 603 224 603 217 590.5 c 128,-1,64
 210 578 210 578 208 564 c 0,65,66
 206 547 206 547 216.5 535 c 128,-1,67
 227 523 227 523 242 512 c 0,68,69
 272 492 272 492 294.5 465 c 128,-1,70
 317 438 317 438 317 398 c 0,71,72
 317 369 317 369 306.5 346 c 128,-1,73
 296 323 296 323 278.5 306.5 c 128,-1,74
 261 290 261 290 239 281 c 128,-1,75
 217 272 217 272 194 272 c 0,76,77
 160 272 160 272 134.5 285.5 c 128,-1,78
 109 299 109 299 92.5 322 c 128,-1,79
 76 345 76 345 68 374 c 128,-1,80
 60 403 60 403 60 435 c 0,0,1
EndSplineSet
Validated: 33
EndChar

StartChar: uniE022
Encoding: 57378 57378 72

Width: 1674
Flags: W
LayerCount: 2
Fore
SplineSet
1709 975 m 1,0,1
 1683 898 1683 898 1638.5 837.5 c 128,-1,2
 1594 777 1594 777 1536 733.5 c 128,-1,3
 1478 690 1478 690 1408.5 664 c 128,-1,4
 1339 638 1339 638 1262 630 c 0,5,6
 1236 628 1236 628 1208.5 627 c 128,-1,7
 1181 626 1181 626 1152 626 c 0,8,9
 1124 626 1124 626 1096.5 627.5 c 128,-1,10
 1069 629 1069 629 1041 633 c 0,11,12
 1015 636 1015 636 981.5 642.5 c 128,-1,13
 948 649 948 649 911.5 657.5 c 128,-1,14
 875 666 875 666 838.5 675 c 128,-1,15
 802 684 802 684 771 693 c 0,16,17
 760 696 760 696 749.5 699 c 128,-1,18
 739 702 739 702 728 704 c 1,19,20
 641 679 641 679 571.5 622.5 c 128,-1,21
 502 566 502 566 453.5 490.5 c 128,-1,22
 405 415 405 415 379 326 c 128,-1,23
 353 237 353 237 353 147 c 0,24,25
 353 44 353 44 386.5 -39.5 c 128,-1,26
 420 -123 420 -123 479 -187 c 0,27,28
 520 -232 520 -232 571.5 -266 c 128,-1,29
 623 -300 623 -300 682 -323.5 c 128,-1,30
 741 -347 741 -347 806 -359 c 128,-1,31
 871 -371 871 -371 939 -371 c 0,32,33
 1039 -371 1039 -371 1134 -341.5 c 128,-1,34
 1229 -312 1229 -312 1304 -249 c 0,35,36
 1318 -237 1318 -237 1338.5 -217.5 c 128,-1,37
 1359 -198 1359 -198 1377.5 -175.5 c 128,-1,38
 1396 -153 1396 -153 1409 -129.5 c 128,-1,39
 1422 -106 1422 -106 1422 -85 c 0,40,41
 1422 -72 1422 -72 1412.5 -59 c 128,-1,42
 1403 -46 1403 -46 1390 -34.5 c 128,-1,43
 1377 -23 1377 -23 1363.5 -12.5 c 128,-1,44
 1350 -2 1350 -2 1342 6 c 0,45,46
 1326 23 1326 23 1316 43.5 c 128,-1,47
 1306 64 1306 64 1306 94 c 0,48,49
 1306 120 1306 120 1315.5 142 c 128,-1,50
 1325 164 1325 164 1342 180.5 c 128,-1,51
 1359 197 1359 197 1381.5 206.5 c 128,-1,52
 1404 216 1404 216 1431 216 c 0,53,54
 1462 216 1462 216 1487 204.5 c 128,-1,55
 1512 193 1512 193 1528.5 173.5 c 128,-1,56
 1545 154 1545 154 1554 128 c 128,-1,57
 1563 102 1563 102 1563 73 c 0,58,59
 1563 -52 1563 -52 1510.5 -159 c 128,-1,60
 1458 -266 1458 -266 1369 -351 c 0,61,62
 1313 -405 1313 -405 1247.5 -446 c 128,-1,63
 1182 -487 1182 -487 1111.5 -514.5 c 128,-1,64
 1041 -542 1041 -542 966 -556.5 c 128,-1,65
 891 -571 891 -571 816 -571 c 0,66,67
 743 -571 743 -571 671 -558 c 128,-1,68
 599 -545 599 -545 531 -518 c 128,-1,69
 463 -491 463 -491 401 -450.5 c 128,-1,70
 339 -410 339 -410 287 -355 c 0,71,72
 205 -270 205 -270 166.5 -166 c 128,-1,73
 128 -62 128 -62 128 49 c 0,74,75
 128 164 128 164 163.5 269.5 c 128,-1,76
 199 375 199 375 263 464 c 128,-1,77
 327 553 327 553 415.5 622 c 128,-1,78
 504 691 504 691 609 733 c 1,79,80
 584 738 584 738 559 742.5 c 128,-1,81
 534 747 534 747 506 752 c 0,82,83
 474 757 474 757 446.5 759 c 128,-1,84
 419 761 419 761 393 761 c 0,85,86
 339 761 339 761 284 752 c 0,87,88
 245 746 245 746 204.5 728.5 c 128,-1,89
 164 711 164 711 124.5 687.5 c 128,-1,90
 85 664 85 664 46.5 637 c 128,-1,91
 8 610 8 610 -26 586 c 1,92,93
 -37 584 -37 584 -37 594 c 0,94,95
 -9 666 -9 666 34 735 c 128,-1,96
 77 804 77 804 135 856 c 0,97,98
 195 910 195 910 267.5 943.5 c 128,-1,99
 340 977 340 977 416 987 c 0,100,101
 442 991 442 991 469.5 992.5 c 128,-1,102
 497 994 497 994 526 994 c 0,103,104
 576 994 576 994 641 985 c 0,105,106
 695 977 695 977 759 963 c 128,-1,107
 823 949 823 949 903 927 c 0,108,109
 984 905 984 905 1047.5 890.5 c 128,-1,110
 1111 876 1111 876 1165 868 c 0,111,112
 1228 859 1228 859 1278 859 c 0,113,114
 1331 859 1331 859 1387 868 c 0,115,116
 1467 880 1467 880 1546 910.5 c 128,-1,117
 1625 941 1625 941 1696 985 c 1,118,119
 1708 986 1708 986 1709 975 c 1,0,1
EndSplineSet
Validated: 1
EndChar

StartChar: uniE026
Encoding: 57382 57382 73

Width: 1143
Flags: W
LayerCount: 2
Fore
SplineSet
683 1130 m 0,0,1
 634 1084 634 1084 586 1039.5 c 128,-1,2
 538 995 538 995 494 951 c 128,-1,3
 450 907 450 907 412.5 863.5 c 128,-1,4
 375 820 375 820 347 775 c 0,5,6
 315 723 315 723 300 669.5 c 128,-1,7
 285 616 285 616 285 563 c 0,8,9
 285 479 285 479 317.5 412.5 c 128,-1,10
 350 346 350 346 405.5 299.5 c 128,-1,11
 461 253 461 253 534 228 c 128,-1,12
 607 203 607 203 687 202 c 0,13,14
 758 201 758 201 818.5 220 c 128,-1,15
 879 239 879 239 928 288 c 0,16,17
 939 299 939 299 946 311.5 c 128,-1,18
 953 324 953 324 955 338 c 0,19,20
 957 355 957 355 946.5 367 c 128,-1,21
 936 379 936 379 921 390 c 0,22,23
 891 410 891 410 868.5 437 c 128,-1,24
 846 464 846 464 846 504 c 0,25,26
 846 533 846 533 856.5 556 c 128,-1,27
 867 579 867 579 884.5 595.5 c 128,-1,28
 902 612 902 612 924 621 c 128,-1,29
 946 630 946 630 969 630 c 0,30,31
 1003 630 1003 630 1028.5 616.5 c 128,-1,32
 1054 603 1054 603 1070.5 580 c 128,-1,33
 1087 557 1087 557 1095 527.5 c 128,-1,34
 1103 498 1103 498 1103 467 c 0,35,36
 1103 363 1103 363 1062.5 277 c 128,-1,37
 1022 191 1022 191 953 129.5 c 128,-1,38
 884 68 884 68 792.5 34 c 128,-1,39
 701 0 701 0 600 0 c 0,40,41
 539 0 539 0 479.5 11 c 128,-1,42
 420 22 420 22 364 45 c 1,43,44
 325 -3 325 -3 304 -57.5 c 128,-1,45
 283 -112 283 -112 283 -177 c 0,46,47
 283 -262 283 -262 317 -326.5 c 128,-1,48
 351 -391 351 -391 407 -434 c 128,-1,49
 463 -477 463 -477 536 -498.5 c 128,-1,50
 609 -520 609 -520 687 -520 c 0,51,52
 755 -520 755 -520 818 -500 c 128,-1,53
 881 -480 881 -480 928 -433 c 0,54,55
 939 -422 939 -422 946 -409.5 c 128,-1,56
 953 -397 953 -397 955 -383 c 0,57,58
 957 -366 957 -366 946.5 -354 c 128,-1,59
 936 -342 936 -342 921 -331 c 0,60,61
 891 -311 891 -311 868.5 -284 c 128,-1,62
 846 -257 846 -257 846 -217 c 0,63,64
 846 -188 846 -188 856.5 -165 c 128,-1,65
 867 -142 867 -142 884.5 -125.5 c 128,-1,66
 902 -109 902 -109 924 -100 c 128,-1,67
 946 -91 946 -91 969 -91 c 0,68,69
 1003 -91 1003 -91 1028.5 -104.5 c 128,-1,70
 1054 -118 1054 -118 1070.5 -141 c 128,-1,71
 1087 -164 1087 -164 1095 -193.5 c 128,-1,72
 1103 -223 1103 -223 1103 -254 c 0,73,74
 1103 -364 1103 -364 1060 -450.5 c 128,-1,75
 1017 -537 1017 -537 945 -597 c 128,-1,76
 873 -657 873 -657 779.5 -689 c 128,-1,77
 686 -721 686 -721 584 -721 c 0,78,79
 483 -721 483 -721 384 -690 c 128,-1,80
 285 -659 285 -659 208 -592 c 0,81,82
 139 -532 139 -532 100 -445 c 128,-1,83
 61 -358 61 -358 61 -259 c 0,84,85
 61 -190 61 -190 83.5 -122.5 c 128,-1,86
 106 -55 106 -55 145 -1 c 0,87,88
 168 31 168 31 194.5 59 c 128,-1,89
 221 87 221 87 247 110 c 1,90,91
 203 141 203 141 168 181 c 128,-1,92
 133 221 133 221 108.5 268.5 c 128,-1,93
 84 316 84 316 71.5 371.5 c 128,-1,94
 59 427 59 427 61 489 c 0,95,96
 65 599 65 599 107.5 693 c 128,-1,97
 150 787 150 787 219 874 c 0,98,99
 291 964 291 964 382.5 1048 c 128,-1,100
 474 1132 474 1132 572 1222 c 0,101,102
 594 1242 594 1242 612.5 1259 c 128,-1,103
 631 1276 631 1276 649 1292.5 c 128,-1,104
 667 1309 667 1309 685.5 1327 c 128,-1,105
 704 1345 704 1345 726 1366 c 0,106,107
 740 1380 740 1380 760.5 1402.5 c 128,-1,108
 781 1425 781 1425 803.5 1452.5 c 128,-1,109
 826 1480 826 1480 847.5 1512.5 c 128,-1,110
 869 1545 869 1545 886 1578 c 0,111,112
 904 1615 904 1615 911.5 1651 c 128,-1,113
 919 1687 919 1687 917 1719 c 1,114,115
 942 1717 942 1717 964 1708.5 c 128,-1,116
 986 1700 986 1700 1003 1684 c 128,-1,117
 1020 1668 1020 1668 1030 1644 c 128,-1,118
 1040 1620 1040 1620 1042 1588 c 0,119,120
 1044 1555 1044 1555 1030.5 1516 c 128,-1,121
 1017 1477 1017 1477 984 1433 c 0,122,123
 972 1418 972 1418 961.5 1405 c 128,-1,124
 951 1392 951 1392 940 1380 c 0,125,126
 914 1351 914 1351 889.5 1327.5 c 128,-1,127
 865 1304 865 1304 837 1276 c 0,128,129
 801 1240 801 1240 765 1206.5 c 128,-1,130
 729 1173 729 1173 683 1130 c 0,0,1
EndSplineSet
Validated: 33
EndChar

StartChar: uniE02A
Encoding: 57386 57386 74

Width: 1343
Flags: W
LayerCount: 2
Fore
SplineSet
578 643 m 1,0,1
 523 749 523 749 454 747 c 0,2,3
 401 745 401 745 368 718 c 0,4,5
 360 711 360 711 350 700 c 128,-1,6
 340 689 340 689 331 677 c 128,-1,7
 322 665 322 665 314 654.5 c 128,-1,8
 306 644 306 644 302 639 c 0,9,10
 294 636 294 636 283 636.5 c 128,-1,11
 272 637 272 637 261.5 641.5 c 128,-1,12
 251 646 251 646 244 656.5 c 128,-1,13
 237 667 237 667 238 685 c 1,14,15
 246 699 246 699 254.5 713.5 c 128,-1,16
 263 728 263 728 281 755 c 0,17,18
 378 903 378 903 536 902 c 0,19,20
 646 900 646 900 708 840 c 0,21,22
 721 828 721 828 747.5 791.5 c 128,-1,23
 774 755 774 755 814 692 c 2,24,-1
 1119 217 l 2,25,26
 1139 185 1139 185 1155.5 165 c 128,-1,27
 1172 145 1172 145 1190 136.5 c 128,-1,28
 1208 128 1208 128 1230 131 c 128,-1,29
 1252 134 1252 134 1284 149 c 1,30,31
 1302 146 1302 146 1309.5 130 c 128,-1,32
 1317 114 1317 114 1318 100 c 1,33,34
 1286 67 1286 67 1228 37 c 0,35,36
 1193 20 1193 20 1166 10 c 128,-1,37
 1139 0 1139 0 1110 0 c 0,38,39
 1050 0 1050 0 999 41.5 c 128,-1,40
 948 83 948 83 903 152 c 2,41,-1
 654 529 l 1,42,43
 622 488 622 488 596.5 455 c 128,-1,44
 571 422 571 422 548 393 c 128,-1,45
 525 364 525 364 504 337.5 c 128,-1,46
 483 311 483 311 460.5 282 c 128,-1,47
 438 253 438 253 412.5 220 c 128,-1,48
 387 187 387 187 356 146 c 0,49,50
 333 116 333 116 306 89 c 128,-1,51
 279 62 279 62 248 42 c 128,-1,52
 217 22 217 22 182 10.5 c 128,-1,53
 147 -1 147 -1 109 0 c 1,54,55
 80 8 80 8 54 23 c 128,-1,56
 28 38 28 38 9 58 c 0,57,58
 -2 69 -2 69 1.5 86.5 c 128,-1,59
 5 104 5 104 15 122 c 128,-1,60
 25 140 25 140 37.5 155.5 c 128,-1,61
 50 171 50 171 57 178 c 0,62,63
 64 186 64 186 78 198 c 128,-1,64
 92 210 92 210 107.5 219 c 128,-1,65
 123 228 123 228 137.5 231.5 c 128,-1,66
 152 235 152 235 162 226 c 0,67,68
 176 214 176 214 189 204.5 c 128,-1,69
 202 195 202 195 219 193 c 0,70,71
 227 192 227 192 235.5 196.5 c 128,-1,72
 244 201 244 201 252 212 c 2,73,-1
 578 643 l 1,0,1
EndSplineSet
Validated: 33
EndChar

StartChar: uniE023
Encoding: 57379 57379 75

Width: 1674
Flags: W
LayerCount: 2
Fore
SplineSet
704 711 m 1,0,1
 653 724 653 724 607 734 c 128,-1,2
 561 744 561 744 508 752 c 0,3,4
 479 757 479 757 449.5 759 c 128,-1,5
 420 761 420 761 395 761 c 0,6,7
 341 761 341 761 286 752 c 0,8,9
 247 746 247 746 206.5 728.5 c 128,-1,10
 166 711 166 711 126.5 687.5 c 128,-1,11
 87 664 87 664 48.5 637 c 128,-1,12
 10 610 10 610 -24 586 c 1,13,14
 -35 584 -35 584 -35 594 c 0,15,16
 -7 666 -7 666 36 735 c 128,-1,17
 79 804 79 804 137 856 c 0,18,19
 197 910 197 910 269.5 943.5 c 128,-1,20
 342 977 342 977 418 987 c 0,21,22
 444 991 444 991 471.5 992.5 c 128,-1,23
 499 994 499 994 528 994 c 0,24,25
 578 994 578 994 643 985 c 0,26,27
 697 977 697 977 761 963 c 128,-1,28
 825 949 825 949 905 927 c 0,29,30
 986 905 986 905 1049.5 890.5 c 128,-1,31
 1113 876 1113 876 1167 868 c 0,32,33
 1230 859 1230 859 1280 859 c 0,34,35
 1333 859 1333 859 1389 868 c 0,36,37
 1469 880 1469 880 1548 910.5 c 128,-1,38
 1627 941 1627 941 1698 985 c 1,39,40
 1710 986 1710 986 1711 975 c 1,41,42
 1685 898 1685 898 1640.5 837.5 c 128,-1,43
 1596 777 1596 777 1538 733.5 c 128,-1,44
 1480 690 1480 690 1410.5 664 c 128,-1,45
 1341 638 1341 638 1264 630 c 0,46,47
 1238 628 1238 628 1210.5 627 c 128,-1,48
 1183 626 1183 626 1154 626 c 0,49,50
 1126 626 1126 626 1098.5 627.5 c 128,-1,51
 1071 629 1071 629 1043 633 c 0,52,53
 1007 638 1007 638 956 648 c 128,-1,54
 905 658 905 658 854 671 c 1,55,56
 799 653 799 653 736 629 c 128,-1,57
 673 605 673 605 607 573 c 0,58,59
 569 555 569 555 535.5 534 c 128,-1,60
 502 513 502 513 476.5 489.5 c 128,-1,61
 451 466 451 466 436 441 c 128,-1,62
 421 416 421 416 421 390 c 0,63,64
 421 351 421 351 451 324.5 c 128,-1,65
 481 298 481 298 533 278.5 c 128,-1,66
 585 259 585 259 654 245.5 c 128,-1,67
 723 232 723 232 800.5 219.5 c 128,-1,68
 878 207 878 207 960 194 c 128,-1,69
 1042 181 1042 181 1119.5 163.5 c 128,-1,70
 1197 146 1197 146 1265.5 121.5 c 128,-1,71
 1334 97 1334 97 1385.5 61.5 c 128,-1,72
 1437 26 1437 26 1466.5 -22.5 c 128,-1,73
 1496 -71 1496 -71 1495 -137 c 0,74,75
 1494 -208 1494 -208 1466.5 -268 c 128,-1,76
 1439 -328 1439 -328 1392 -376.5 c 128,-1,77
 1345 -425 1345 -425 1282.5 -462 c 128,-1,78
 1220 -499 1220 -499 1147.5 -523.5 c 128,-1,79
 1075 -548 1075 -548 997 -560.5 c 128,-1,80
 919 -573 919 -573 842 -573 c 0,81,82
 797 -573 797 -573 741 -566.5 c 128,-1,83
 685 -560 685 -560 628.5 -545.5 c 128,-1,84
 572 -531 572 -531 519 -508 c 128,-1,85
 466 -485 466 -485 424.5 -452 c 128,-1,86
 383 -419 383 -419 359 -375.5 c 128,-1,87
 335 -332 335 -332 336 -276 c 0,88,89
 336 -252 336 -252 346 -229.5 c 128,-1,90
 356 -207 356 -207 373 -189 c 128,-1,91
 390 -171 390 -171 413 -160 c 128,-1,92
 436 -149 436 -149 464 -149 c 0,93,94
 496 -149 496 -149 520.5 -159 c 128,-1,95
 545 -169 545 -169 562 -185.5 c 128,-1,96
 579 -202 579 -202 588 -223.5 c 128,-1,97
 597 -245 597 -245 597 -267 c 0,98,99
 597 -285 597 -285 594 -298 c 128,-1,100
 591 -311 591 -311 588 -321.5 c 128,-1,101
 585 -332 585 -332 582 -341 c 128,-1,102
 579 -350 579 -350 579 -361 c 0,103,104
 579 -381 579 -381 590.5 -396.5 c 128,-1,105
 602 -412 602 -412 622 -423 c 0,106,107
 658 -444 658 -444 711.5 -454 c 128,-1,108
 765 -464 765 -464 827 -464 c 0,109,110
 879 -464 879 -464 934 -457 c 128,-1,111
 989 -450 989 -450 1041 -437 c 128,-1,112
 1093 -424 1093 -424 1139 -404.5 c 128,-1,113
 1185 -385 1185 -385 1219.5 -360.5 c 128,-1,114
 1254 -336 1254 -336 1274 -306 c 128,-1,115
 1294 -276 1294 -276 1294 -241 c 0,116,117
 1294 -191 1294 -191 1262.5 -156 c 128,-1,118
 1231 -121 1231 -121 1177.5 -96.5 c 128,-1,119
 1124 -72 1124 -72 1052.5 -55 c 128,-1,120
 981 -38 981 -38 900.5 -24.5 c 128,-1,121
 820 -11 820 -11 735 2 c 128,-1,122
 650 15 650 15 569.5 32.5 c 128,-1,123
 489 50 489 50 417.5 73.5 c 128,-1,124
 346 97 346 97 291.5 131.5 c 128,-1,125
 237 166 237 166 205.5 214 c 128,-1,126
 174 262 174 262 173 329 c 0,127,128
 173 375 173 375 195.5 415.5 c 128,-1,129
 218 456 218 456 256 492 c 128,-1,130
 294 528 294 528 343.5 558.5 c 128,-1,131
 393 589 393 589 447 615 c 0,132,133
 513 646 513 646 579.5 669 c 128,-1,134
 646 692 646 692 704 711 c 1,0,1
EndSplineSet
Validated: 33
EndChar

StartChar: uniE017
Encoding: 57367 57367 76

Width: 1345
Flags: W
LayerCount: 2
Fore
SplineSet
335 690 m 1,0,1
 315 649 315 649 308 601 c 128,-1,2
 301 553 301 553 301 515 c 0,3,4
 301 448 301 448 319 381 c 128,-1,5
 337 314 337 314 373 261 c 128,-1,6
 409 208 409 208 463 174.5 c 128,-1,7
 517 141 517 141 589 141 c 0,8,9
 651 141 651 141 703 162.5 c 128,-1,10
 755 184 755 184 796 220.5 c 128,-1,11
 837 257 837 257 867.5 306.5 c 128,-1,12
 898 356 898 356 918.5 412 c 128,-1,13
 939 468 939 468 949 527.5 c 128,-1,14
 959 587 959 587 959 645 c 2,15,-1
 959 683 l 1,16,17
 893 678 893 678 817 675 c 128,-1,18
 741 672 741 672 659 672 c 0,19,20
 578 672 578 672 497 676 c 128,-1,21
 416 680 416 680 335 690 c 1,0,1
940 197 m 1,22,23
 901 152 901 152 853 115.5 c 128,-1,24
 805 79 805 79 752 53.5 c 128,-1,25
 699 28 699 28 642.5 14 c 128,-1,26
 586 0 586 0 528 0 c 0,27,28
 434 0 434 0 351.5 31 c 128,-1,29
 269 62 269 62 207.5 118 c 128,-1,30
 146 174 146 174 110.5 252.5 c 128,-1,31
 75 331 75 331 75 426 c 0,32,33
 75 494 75 494 95.5 559.5 c 128,-1,34
 116 625 116 625 154 685 c 0,35,36
 165 702 165 702 176 716 c 1,37,38
 136 727 136 727 106 740 c 128,-1,39
 76 753 76 753 59 770 c 1,40,41
 45 793 45 793 34.5 831.5 c 128,-1,42
 24 870 24 870 21.5 909.5 c 128,-1,43
 19 949 19 949 25 982 c 128,-1,44
 31 1015 31 1015 50 1028 c 1,45,46
 114 980 114 980 192 950 c 128,-1,47
 270 920 270 920 354 902.5 c 128,-1,48
 438 885 438 885 524.5 878 c 128,-1,49
 611 871 611 871 692 870 c 0,50,51
 763 869 763 869 833.5 870.5 c 128,-1,52
 904 872 904 872 972 875 c 0,53,54
 1043 878 1043 878 1108 884 c 128,-1,55
 1173 890 1173 890 1230 899 c 0,56,57
 1235 900 1235 900 1240 900.5 c 128,-1,58
 1245 901 1245 901 1250 901 c 0,59,60
 1261 895 1261 895 1266.5 881.5 c 128,-1,61
 1272 868 1272 868 1267 851 c 1,62,63
 1244 825 1244 825 1229.5 808 c 128,-1,64
 1215 791 1215 791 1202 764 c 0,65,66
 1191 741 1191 741 1184 709 c 128,-1,67
 1177 677 1177 677 1177 632 c 2,68,-1
 1177 527 l 2,69,70
 1177 447 1177 447 1182 366.5 c 128,-1,71
 1187 286 1187 286 1204.5 209.5 c 128,-1,72
 1222 133 1222 133 1255 62 c 128,-1,73
 1288 -9 1288 -9 1345 -72 c 1,74,75
 1334 -74 1334 -74 1322.5 -74 c 128,-1,76
 1311 -74 1311 -74 1300 -72 c 0,77,78
 1274 -68 1274 -68 1249 -60 c 128,-1,79
 1224 -52 1224 -52 1198 -42 c 0,80,81
 1166 -29 1166 -29 1134 -13 c 128,-1,82
 1102 3 1102 3 1072 23 c 0,83,84
 1040 45 1040 45 1009 70 c 128,-1,85
 978 95 978 95 957 127 c 0,86,87
 948 142 948 142 943.5 159 c 128,-1,88
 939 176 939 176 940 197 c 1,22,23
EndSplineSet
Validated: 33
EndChar

StartChar: uniE029
Encoding: 57385 57385 77

Width: 1399
Flags: W
LayerCount: 2
Fore
SplineSet
878 101 m 1,0,1
 812 53 812 53 731.5 26.5 c 128,-1,2
 651 0 651 0 560 0 c 0,3,4
 513 0 513 0 468.5 5.5 c 128,-1,5
 424 11 424 11 382 23 c 0,6,7
 310 42 310 42 251 82.5 c 128,-1,8
 192 123 192 123 149.5 178.5 c 128,-1,9
 107 234 107 234 83.5 302 c 128,-1,10
 60 370 60 370 60 445 c 0,11,12
 60 542 60 542 100 625.5 c 128,-1,13
 140 709 140 709 208.5 770 c 128,-1,14
 277 831 277 831 367.5 866 c 128,-1,15
 458 901 458 901 560 901 c 0,16,17
 648 901 648 901 726.5 876.5 c 128,-1,18
 805 852 805 852 870 807 c 1,19,-1
 870 1181 l 2,20,21
 870 1209 870 1209 870 1233.5 c 128,-1,22
 870 1258 870 1258 869.5 1282 c 128,-1,23
 869 1306 869 1306 868 1331 c 128,-1,24
 867 1356 867 1356 866 1385 c 0,25,26
 864 1410 864 1410 860.5 1438.5 c 128,-1,27
 857 1467 857 1467 848 1495.5 c 128,-1,28
 839 1524 839 1524 823.5 1550.5 c 128,-1,29
 808 1577 808 1577 784 1599 c 0,30,31
 780 1602 780 1602 778 1607 c 128,-1,32
 776 1612 776 1612 781 1620 c 1,33,34
 810 1632 810 1632 839 1648.5 c 128,-1,35
 868 1665 868 1665 894 1682.5 c 128,-1,36
 920 1700 920 1700 942.5 1718 c 128,-1,37
 965 1736 965 1736 982 1753 c 0,38,39
 991 1758 991 1758 1000 1753 c 0,40,41
 1022 1731 1022 1731 1039.5 1698 c 128,-1,42
 1057 1665 1057 1665 1069 1627 c 0,43,44
 1083 1582 1083 1582 1085.5 1541 c 128,-1,45
 1088 1500 1088 1500 1087 1454 c 2,46,-1
 1087 773 l 2,47,48
 1087 712 1087 712 1087.5 643 c 128,-1,49
 1088 574 1088 574 1090 500.5 c 128,-1,50
 1092 427 1092 427 1096.5 351.5 c 128,-1,51
 1101 276 1101 276 1109 202 c 1,52,53
 1135 210 1135 210 1159.5 214.5 c 128,-1,54
 1184 219 1184 219 1213 219 c 0,55,56
 1235 219 1235 219 1257 213.5 c 128,-1,57
 1279 208 1279 208 1301 202 c 128,-1,58
 1323 196 1323 196 1344.5 190.5 c 128,-1,59
 1366 185 1366 185 1386 185 c 0,60,61
 1413 185 1413 185 1443 195 c 0,62,63
 1458 200 1458 200 1471.5 206 c 128,-1,64
 1485 212 1485 212 1496 220 c 1,65,66
 1503 174 1503 174 1492.5 136 c 128,-1,67
 1482 98 1482 98 1462.5 70.5 c 128,-1,68
 1443 43 1443 43 1420 25.5 c 128,-1,69
 1397 8 1397 8 1380 4 c 0,70,71
 1347 -5 1347 -5 1322.5 -3 c 128,-1,72
 1298 -1 1298 -1 1276.5 4 c 128,-1,73
 1255 9 1255 9 1234.5 15 c 128,-1,74
 1214 21 1214 21 1188 21 c 0,75,76
 1166 21 1166 21 1143 16.5 c 128,-1,77
 1120 12 1120 12 1095.5 7.5 c 128,-1,78
 1071 3 1071 3 1046 0 c 128,-1,79
 1021 -3 1021 -3 996 0 c 0,80,81
 967 3 967 3 947.5 12.5 c 128,-1,82
 928 22 928 22 915 36 c 128,-1,83
 902 50 902 50 893.5 66.5 c 128,-1,84
 885 83 885 83 878 101 c 1,0,1
526 770 m 0,85,86
 472 770 472 770 426.5 748 c 128,-1,87
 381 726 381 726 348 689 c 128,-1,88
 315 652 315 652 296.5 603.5 c 128,-1,89
 278 555 278 555 278 502 c 0,90,91
 278 436 278 436 303.5 372.5 c 128,-1,92
 329 309 329 309 374 259 c 128,-1,93
 419 209 419 209 480 178.5 c 128,-1,94
 541 148 541 148 611 148 c 0,95,96
 665 148 665 148 710 168.5 c 128,-1,97
 755 189 755 189 787.5 224 c 128,-1,98
 820 259 820 259 838 306.5 c 128,-1,99
 856 354 856 354 856 407 c 0,100,101
 856 476 856 476 829.5 541 c 128,-1,102
 803 606 803 606 758 657 c 128,-1,103
 713 708 713 708 653 739 c 128,-1,104
 593 770 593 770 526 770 c 0,85,86
EndSplineSet
Validated: 33
EndChar

StartChar: uniEC31
Encoding: 60465 60465 78

Width: 2
Flags: W
LayerCount: 2
Fore
SplineSet
-846 1187 m 2,0,1
 -890 1201 -890 1201 -918 1208.5 c 128,-1,2
 -946 1216 -946 1216 -972 1216 c 0,3,4
 -1004 1216 -1004 1216 -1030.5 1202 c 128,-1,5
 -1057 1188 -1057 1188 -1088 1152 c 0,6,7
 -1093 1146 -1093 1146 -1098 1140.5 c 128,-1,8
 -1103 1135 -1103 1135 -1109 1129 c 0,9,10
 -1120 1124 -1120 1124 -1124 1130.5 c 128,-1,11
 -1128 1137 -1128 1137 -1126 1147 c 0,12,13
 -1115 1184 -1115 1184 -1099 1214 c 0,14,15
 -1060 1287 -1060 1287 -1000 1325.5 c 128,-1,16
 -940 1364 -940 1364 -872 1364 c 0,17,18
 -850 1364 -850 1364 -828 1360.5 c 128,-1,19
 -806 1357 -806 1357 -785 1351 c 2,20,-1
 -566 1286 l 2,21,22
 -523 1272 -523 1272 -494.5 1264.5 c 128,-1,23
 -466 1257 -466 1257 -440 1257 c 0,24,25
 -408 1257 -408 1257 -381.5 1271 c 128,-1,26
 -355 1285 -355 1285 -325 1321 c 0,27,28
 -319 1327 -319 1327 -314 1332.5 c 128,-1,29
 -309 1338 -309 1338 -303 1344 c 0,30,31
 -293 1349 -293 1349 -289 1342.5 c 128,-1,32
 -285 1336 -285 1336 -287 1326 c 0,33,34
 -292 1309 -292 1309 -299 1291 c 128,-1,35
 -306 1273 -306 1273 -314 1259 c 0,36,37
 -352 1186 -352 1186 -412 1147.5 c 128,-1,38
 -472 1109 -472 1109 -540 1109 c 0,39,40
 -562 1109 -562 1109 -584 1112.5 c 128,-1,41
 -606 1116 -606 1116 -627 1122 c 2,42,-1
 -846 1187 l 2,0,1
EndSplineSet
Validated: 1
EndChar

StartChar: uniE001
Encoding: 57345 57345 79

Width: 1379
Flags: W
LayerCount: 2
Fore
SplineSet
147 327 m 2,0,1
 147 355 147 355 147 379.5 c 128,-1,2
 147 404 147 404 146.5 428 c 128,-1,3
 146 452 146 452 145 477 c 128,-1,4
 144 502 144 502 143 531 c 0,5,6
 141 556 141 556 137.5 584.5 c 128,-1,7
 134 613 134 613 125 641.5 c 128,-1,8
 116 670 116 670 100.5 696.5 c 128,-1,9
 85 723 85 723 61 745 c 0,10,11
 57 748 57 748 55 753 c 128,-1,12
 53 758 53 758 58 766 c 1,13,14
 87 778 87 778 116 794.5 c 128,-1,15
 145 811 145 811 171 828.5 c 128,-1,16
 197 846 197 846 219.5 864 c 128,-1,17
 242 882 242 882 259 899 c 0,18,19
 268 904 268 904 277 899 c 0,20,21
 299 877 299 877 316.5 844 c 128,-1,22
 334 811 334 811 346 773 c 0,23,24
 354 749 354 749 358 727 c 128,-1,25
 362 705 362 705 364 682 c 1,26,27
 404 733 404 733 453 773.5 c 128,-1,28
 502 814 502 814 557.5 842.5 c 128,-1,29
 613 871 613 871 673 886.5 c 128,-1,30
 733 902 733 902 796 902 c 0,31,32
 888 902 888 902 970.5 871 c 128,-1,33
 1053 840 1053 840 1115 784.5 c 128,-1,34
 1177 729 1177 729 1213 652 c 128,-1,35
 1249 575 1249 575 1249 482 c 0,36,37
 1249 408 1249 408 1221 335 c 128,-1,38
 1193 262 1193 262 1139 209 c 1,39,40
 1196 219 1196 219 1247.5 239.5 c 128,-1,41
 1299 260 1299 260 1344 303 c 1,42,43
 1354 306 1354 306 1359 296 c 1,44,45
 1357 282 1357 282 1354.5 267.5 c 128,-1,46
 1352 253 1352 253 1350 240 c 0,47,48
 1336 162 1336 162 1306 114.5 c 128,-1,49
 1276 67 1276 67 1228.5 41.5 c 128,-1,50
 1181 16 1181 16 1115 8 c 128,-1,51
 1049 0 1049 0 963 0 c 2,52,-1
 365 0 l 1,53,-1
 365 -601 l 2,54,55
 365 -626 365 -626 371.5 -641.5 c 128,-1,56
 378 -657 378 -657 386.5 -668 c 128,-1,57
 395 -679 395 -679 402 -687.5 c 128,-1,58
 409 -696 409 -696 410 -706 c 256,59,60
 411 -716 411 -716 408 -726.5 c 128,-1,61
 405 -737 405 -737 399.5 -747 c 128,-1,62
 394 -757 394 -757 388 -766.5 c 128,-1,63
 382 -776 382 -776 377 -783 c 0,64,65
 348 -818 348 -818 319.5 -850 c 128,-1,66
 291 -882 291 -882 256 -915 c 0,67,68
 204 -964 204 -964 145.5 -1004.5 c 128,-1,69
 87 -1045 87 -1045 33 -1067 c 0,70,71
 2 -1080 2 -1080 -26 -1085.5 c 128,-1,72
 -54 -1091 -54 -1091 -80 -1086 c 1,73,74
 0 -957 0 -957 45.5 -814 c 128,-1,75
 91 -671 91 -671 113.5 -523.5 c 128,-1,76
 136 -376 136 -376 141.5 -230 c 128,-1,77
 147 -84 147 -84 147 50 c 2,78,-1
 147 327 l 2,0,1
870 188 m 1,79,80
 948 229 948 229 980 297 c 128,-1,81
 1012 365 1012 365 1012 454 c 0,82,83
 1012 514 1012 514 993.5 569.5 c 128,-1,84
 975 625 975 625 939.5 667.5 c 128,-1,85
 904 710 904 710 852.5 735.5 c 128,-1,86
 801 761 801 761 735 761 c 0,87,88
 673 761 673 761 621 739.5 c 128,-1,89
 569 718 569 718 528 681.5 c 128,-1,90
 487 645 487 645 456.5 595.5 c 128,-1,91
 426 546 426 546 405.5 490 c 128,-1,92
 385 434 385 434 375 374.5 c 128,-1,93
 365 315 365 315 365 257 c 2,94,-1
 365 188 l 1,95,-1
 870 188 l 1,79,80
EndSplineSet
Validated: 1
EndChar

StartChar: uniE00D
Encoding: 57357 57357 80

Width: 2097
Flags: W
LayerCount: 2
Fore
SplineSet
914 188 m 1,0,1
 965 230 965 230 986.5 291.5 c 128,-1,2
 1008 353 1008 353 1008 430 c 0,3,4
 1008 488 1008 488 992 547 c 128,-1,5
 976 606 976 606 944 652.5 c 128,-1,6
 912 699 912 699 863.5 728.5 c 128,-1,7
 815 758 815 758 749 758 c 0,8,9
 706 758 706 758 667 743 c 128,-1,10
 628 728 628 728 593.5 702.5 c 128,-1,11
 559 677 559 677 530.5 641.5 c 128,-1,12
 502 606 502 606 481 566 c 0,13,14
 452 511 452 511 436 450.5 c 128,-1,15
 420 390 420 390 415 333 c 0,16,17
 411 297 411 297 407.5 261 c 128,-1,18
 404 225 404 225 394 188 c 1,19,-1
 914 188 l 1,0,1
1227 578 m 1,20,21
 1238 531 1238 531 1238 483 c 0,22,23
 1238 444 1238 444 1229.5 402.5 c 128,-1,24
 1221 361 1221 361 1205.5 321.5 c 128,-1,25
 1190 282 1190 282 1166.5 247.5 c 128,-1,26
 1143 213 1143 213 1113 188 c 1,27,-1
 1646 188 l 1,28,29
 1697 230 1697 230 1718.5 291.5 c 128,-1,30
 1740 353 1740 353 1740 430 c 0,31,32
 1740 495 1740 495 1725 554.5 c 128,-1,33
 1710 614 1710 614 1678 659 c 128,-1,34
 1646 704 1646 704 1596.5 731 c 128,-1,35
 1547 758 1547 758 1478 758 c 0,36,37
 1437 758 1437 758 1400.5 744 c 128,-1,38
 1364 730 1364 730 1332.5 706 c 128,-1,39
 1301 682 1301 682 1274.5 649 c 128,-1,40
 1248 616 1248 616 1227 578 c 1,20,21
414 682 m 1,41,42
 448 731 448 731 493.5 772 c 128,-1,43
 539 813 539 813 592.5 841.5 c 128,-1,44
 646 870 646 870 704 886 c 128,-1,45
 762 902 762 902 822 902 c 0,46,47
 933 902 933 902 1023.5 852.5 c 128,-1,48
 1114 803 1114 803 1169 718 c 1,49,50
 1204 760 1204 760 1248 794 c 128,-1,51
 1292 828 1292 828 1341.5 852 c 128,-1,52
 1391 876 1391 876 1444 889 c 128,-1,53
 1497 902 1497 902 1551 902 c 0,54,55
 1640 902 1640 902 1716 870 c 128,-1,56
 1792 838 1792 838 1848 781.5 c 128,-1,57
 1904 725 1904 725 1936 648.5 c 128,-1,58
 1968 572 1968 572 1968 483 c 0,59,60
 1968 448 1968 448 1961.5 411.5 c 128,-1,61
 1955 375 1955 375 1942 339 c 128,-1,62
 1929 303 1929 303 1910 270 c 128,-1,63
 1891 237 1891 237 1867 211 c 1,64,65
 1921 221 1921 221 1970.5 241.5 c 128,-1,66
 2020 262 2020 262 2062 303 c 1,67,68
 2072 306 2072 306 2077 296 c 1,69,70
 2075 282 2075 282 2072.5 267.5 c 128,-1,71
 2070 253 2070 253 2068 240 c 0,72,73
 2054 162 2054 162 2024 114.5 c 128,-1,74
 1994 67 1994 67 1946.5 41.5 c 128,-1,75
 1899 16 1899 16 1833 8 c 128,-1,76
 1767 0 1767 0 1681 0 c 2,77,-1
 487 0 l 1,78,-1
 222 0 l 1,79,80
 180 -26 180 -26 135 -46.5 c 128,-1,81
 90 -67 90 -67 45 -75 c 0,82,83
 22 -80 22 -80 0 -75 c 1,84,85
 47 -5 47 -5 80 73.5 c 128,-1,86
 113 152 113 152 135 235.5 c 128,-1,87
 157 319 157 319 169.5 406 c 128,-1,88
 182 493 182 493 188 580 c 0,89,90
 197 705 197 705 196.5 827 c 128,-1,91
 196 949 196 949 196 1061 c 2,92,-1
 196 1181 l 2,93,94
 196 1209 196 1209 196 1233.5 c 128,-1,95
 196 1258 196 1258 195.5 1282 c 128,-1,96
 195 1306 195 1306 194 1331 c 128,-1,97
 193 1356 193 1356 192 1385 c 0,98,99
 190 1410 190 1410 186.5 1438.5 c 128,-1,100
 183 1467 183 1467 174 1495.5 c 128,-1,101
 165 1524 165 1524 149.5 1550.5 c 128,-1,102
 134 1577 134 1577 110 1599 c 0,103,104
 106 1602 106 1602 104 1607 c 128,-1,105
 102 1612 102 1612 107 1620 c 1,106,107
 136 1632 136 1632 165 1648.5 c 128,-1,108
 194 1665 194 1665 220 1682.5 c 128,-1,109
 246 1700 246 1700 268.5 1718 c 128,-1,110
 291 1736 291 1736 308 1753 c 0,111,112
 317 1758 317 1758 326 1753 c 0,113,114
 348 1731 348 1731 365.5 1698 c 128,-1,115
 383 1665 383 1665 395 1627 c 0,116,117
 409 1582 409 1582 411.5 1541 c 128,-1,118
 414 1500 414 1500 414 1454 c 2,119,-1
 414 682 l 1,41,42
EndSplineSet
Validated: 33
EndChar

StartChar: uniE006
Encoding: 57350 57350 81

Width: 1946
Flags: W
LayerCount: 2
Fore
SplineSet
1613 738 m 1,0,1
 1622 768 1622 768 1646 792 c 128,-1,2
 1670 816 1670 816 1697 835 c 0,3,4
 1725 855 1725 855 1756.5 870 c 128,-1,5
 1788 885 1788 885 1817 896 c 0,6,7
 1849 907 1849 907 1878.5 916.5 c 128,-1,8
 1908 926 1908 926 1937 930 c 0,9,10
 1942 928 1942 928 1944.5 920.5 c 128,-1,11
 1947 913 1947 913 1944 910 c 0,12,13
 1893 835 1893 835 1868.5 763 c 128,-1,14
 1844 691 1844 691 1836 617.5 c 128,-1,15
 1828 544 1828 544 1829.5 468 c 128,-1,16
 1831 392 1831 392 1831 310 c 2,17,-1
 1831 -601 l 2,18,19
 1831 -626 1831 -626 1837.5 -641.5 c 128,-1,20
 1844 -657 1844 -657 1852.5 -668 c 128,-1,21
 1861 -679 1861 -679 1868 -687.5 c 128,-1,22
 1875 -696 1875 -696 1876 -706 c 0,23,24
 1878 -726 1878 -726 1866 -747.5 c 128,-1,25
 1854 -769 1854 -769 1843 -783 c 0,26,27
 1816 -818 1816 -818 1786.5 -850 c 128,-1,28
 1757 -882 1757 -882 1722 -915 c 0,29,30
 1670 -964 1670 -964 1611.5 -1004.5 c 128,-1,31
 1553 -1045 1553 -1045 1499 -1067 c 0,32,33
 1468 -1080 1468 -1080 1440 -1085.5 c 128,-1,34
 1412 -1091 1412 -1091 1386 -1086 c 1,35,36
 1466 -957 1466 -957 1511.5 -814 c 128,-1,37
 1557 -671 1557 -671 1579.5 -523.5 c 128,-1,38
 1602 -376 1602 -376 1607.5 -230 c 128,-1,39
 1613 -84 1613 -84 1613 50 c 2,40,-1
 1613 220 l 1,41,42
 1579 170 1579 170 1533.5 129.5 c 128,-1,43
 1488 89 1488 89 1434.5 60.5 c 128,-1,44
 1381 32 1381 32 1323 16 c 128,-1,45
 1265 0 1265 0 1205 0 c 0,46,47
 1094 0 1094 0 1003.5 49.5 c 128,-1,48
 913 99 913 99 858 184 c 1,49,50
 823 142 823 142 779 108 c 128,-1,51
 735 74 735 74 685.5 50 c 128,-1,52
 636 26 636 26 583 13 c 128,-1,53
 530 0 530 0 476 0 c 0,54,55
 388 0 388 0 312 32 c 128,-1,56
 236 64 236 64 180 120 c 128,-1,57
 124 176 124 176 92 252.5 c 128,-1,58
 60 329 60 329 60 419 c 0,59,60
 60 497 60 497 87.5 573 c 128,-1,61
 115 649 115 649 166 714 c 0,62,63
 197 753 197 753 235.5 787.5 c 128,-1,64
 274 822 274 822 319 847.5 c 128,-1,65
 364 873 364 873 413 887.5 c 128,-1,66
 462 902 462 902 514 902 c 0,67,68
 546 902 546 902 576 893 c 128,-1,69
 606 884 606 884 629 866 c 128,-1,70
 652 848 652 848 665.5 820.5 c 128,-1,71
 679 793 679 793 679 755 c 0,72,73
 679 732 679 732 669.5 710.5 c 128,-1,74
 660 689 660 689 644 673 c 128,-1,75
 628 657 628 657 606 647.5 c 128,-1,76
 584 638 584 638 560 638 c 0,77,78
 530 638 530 638 509.5 646.5 c 128,-1,79
 489 655 489 655 473.5 668.5 c 128,-1,80
 458 682 458 682 446.5 697 c 128,-1,81
 435 712 435 712 424.5 725.5 c 128,-1,82
 414 739 414 739 402.5 747.5 c 128,-1,83
 391 756 391 756 375 756 c 0,84,85
 354 756 354 756 338.5 743 c 128,-1,86
 323 730 323 730 312.5 710 c 128,-1,87
 302 690 302 690 295 664.5 c 128,-1,88
 288 639 288 639 284.5 614.5 c 128,-1,89
 281 590 281 590 279.5 568 c 128,-1,90
 278 546 278 546 278 532 c 0,91,92
 278 473 278 473 293.5 405 c 128,-1,93
 309 337 309 337 342 279 c 128,-1,94
 375 221 375 221 426.5 182.5 c 128,-1,95
 478 144 478 144 549 144 c 0,96,97
 590 144 590 144 626.5 158 c 128,-1,98
 663 172 663 172 694.5 196 c 128,-1,99
 726 220 726 220 752.5 253 c 128,-1,100
 779 286 779 286 800 324 c 1,101,102
 789 371 789 371 789 419 c 0,103,104
 789 497 789 497 816.5 573 c 128,-1,105
 844 649 844 649 895 714 c 0,106,107
 926 753 926 753 964.5 787.5 c 128,-1,108
 1003 822 1003 822 1048 847.5 c 128,-1,109
 1093 873 1093 873 1142 887.5 c 128,-1,110
 1191 902 1191 902 1243 902 c 0,111,112
 1275 902 1275 902 1305 893 c 128,-1,113
 1335 884 1335 884 1358 866 c 128,-1,114
 1381 848 1381 848 1394.5 820.5 c 128,-1,115
 1408 793 1408 793 1408 755 c 0,116,117
 1408 732 1408 732 1398.5 710.5 c 128,-1,118
 1389 689 1389 689 1373 673 c 128,-1,119
 1357 657 1357 657 1335 647.5 c 128,-1,120
 1313 638 1313 638 1289 638 c 0,121,122
 1260 638 1260 638 1239 646.5 c 128,-1,123
 1218 655 1218 655 1202.5 668.5 c 128,-1,124
 1187 682 1187 682 1175.5 697 c 128,-1,125
 1164 712 1164 712 1153.5 725.5 c 128,-1,126
 1143 739 1143 739 1131.5 747.5 c 128,-1,127
 1120 756 1120 756 1104 756 c 0,128,129
 1083 756 1083 756 1067.5 743 c 128,-1,130
 1052 730 1052 730 1041.5 710 c 128,-1,131
 1031 690 1031 690 1024 664.5 c 128,-1,132
 1017 639 1017 639 1013.5 614.5 c 128,-1,133
 1010 590 1010 590 1008.5 568 c 128,-1,134
 1007 546 1007 546 1007 532 c 0,135,136
 1007 473 1007 473 1022.5 405 c 128,-1,137
 1038 337 1038 337 1071 279 c 128,-1,138
 1104 221 1104 221 1155.5 182.5 c 128,-1,139
 1207 144 1207 144 1278 144 c 0,140,141
 1332 144 1332 144 1378.5 167.5 c 128,-1,142
 1425 191 1425 191 1462 230.5 c 128,-1,143
 1499 270 1499 270 1527.5 321 c 128,-1,144
 1556 372 1556 372 1575 428 c 128,-1,145
 1594 484 1594 484 1603.5 540 c 128,-1,146
 1613 596 1613 596 1613 645 c 2,147,-1
 1613 738 l 1,0,1
EndSplineSet
Validated: 33
EndChar

StartChar: uniE011
Encoding: 57361 57361 82

Width: 2097
Flags: W
LayerCount: 2
Fore
SplineSet
914 188 m 1,0,1
 965 230 965 230 986.5 291.5 c 128,-1,2
 1008 353 1008 353 1008 430 c 0,3,4
 1008 488 1008 488 992 547 c 128,-1,5
 976 606 976 606 944 652.5 c 128,-1,6
 912 699 912 699 863.5 728.5 c 128,-1,7
 815 758 815 758 749 758 c 0,8,9
 706 758 706 758 667 743 c 128,-1,10
 628 728 628 728 593.5 702.5 c 128,-1,11
 559 677 559 677 530.5 641.5 c 128,-1,12
 502 606 502 606 481 566 c 0,13,14
 452 511 452 511 436 450.5 c 128,-1,15
 420 390 420 390 415 333 c 0,16,17
 411 297 411 297 407.5 261 c 128,-1,18
 404 225 404 225 394 188 c 1,19,-1
 914 188 l 1,0,1
1227 578 m 1,20,21
 1238 531 1238 531 1238 483 c 0,22,23
 1238 444 1238 444 1229.5 402.5 c 128,-1,24
 1221 361 1221 361 1205.5 321.5 c 128,-1,25
 1190 282 1190 282 1166.5 247.5 c 128,-1,26
 1143 213 1143 213 1113 188 c 1,27,-1
 1646 188 l 1,28,29
 1697 230 1697 230 1718.5 291.5 c 128,-1,30
 1740 353 1740 353 1740 430 c 0,31,32
 1740 495 1740 495 1725 554.5 c 128,-1,33
 1710 614 1710 614 1678 659 c 128,-1,34
 1646 704 1646 704 1596.5 731 c 128,-1,35
 1547 758 1547 758 1478 758 c 0,36,37
 1437 758 1437 758 1400.5 744 c 128,-1,38
 1364 730 1364 730 1332.5 706 c 128,-1,39
 1301 682 1301 682 1274.5 649 c 128,-1,40
 1248 616 1248 616 1227 578 c 1,20,21
414 683 m 1,41,42
 448 732 448 732 493.5 772.5 c 128,-1,43
 539 813 539 813 592.5 842 c 128,-1,44
 646 871 646 871 704 886.5 c 128,-1,45
 762 902 762 902 822 902 c 0,46,47
 933 902 933 902 1023.5 852.5 c 128,-1,48
 1114 803 1114 803 1169 718 c 1,49,50
 1204 760 1204 760 1248 794 c 128,-1,51
 1292 828 1292 828 1341.5 852 c 128,-1,52
 1391 876 1391 876 1444 889 c 128,-1,53
 1497 902 1497 902 1551 902 c 0,54,55
 1640 902 1640 902 1716 870 c 128,-1,56
 1792 838 1792 838 1848 781.5 c 128,-1,57
 1904 725 1904 725 1936 648.5 c 128,-1,58
 1968 572 1968 572 1968 483 c 0,59,60
 1968 448 1968 448 1961.5 411.5 c 128,-1,61
 1955 375 1955 375 1942 339 c 128,-1,62
 1929 303 1929 303 1910 270 c 128,-1,63
 1891 237 1891 237 1867 211 c 1,64,65
 1921 221 1921 221 1970.5 241.5 c 128,-1,66
 2020 262 2020 262 2062 303 c 1,67,68
 2072 306 2072 306 2077 296 c 1,69,70
 2075 282 2075 282 2072.5 267.5 c 128,-1,71
 2070 253 2070 253 2068 240 c 0,72,73
 2054 162 2054 162 2024 114.5 c 128,-1,74
 1994 67 1994 67 1946.5 41.5 c 128,-1,75
 1899 16 1899 16 1833 8 c 128,-1,76
 1767 0 1767 0 1681 0 c 2,77,-1
 487 0 l 1,78,-1
 234 0 l 1,79,80
 190 -26 190 -26 142 -45.5 c 128,-1,81
 94 -65 94 -65 45 -74 c 0,82,83
 22 -79 22 -79 0 -74 c 1,84,85
 43 -25 43 -25 79 35.5 c 128,-1,86
 115 96 115 96 141 163.5 c 128,-1,87
 167 231 167 231 181.5 304 c 128,-1,88
 196 377 196 377 196 451 c 0,89,90
 196 488 196 488 194 528 c 128,-1,91
 192 568 192 568 184 607 c 128,-1,92
 176 646 176 646 158.5 682 c 128,-1,93
 141 718 141 718 111 746 c 0,94,95
 107 749 107 749 105 754 c 128,-1,96
 103 759 103 759 108 767 c 1,97,98
 137 779 137 779 166 795.5 c 128,-1,99
 195 812 195 812 221 829.5 c 128,-1,100
 247 847 247 847 269.5 865 c 128,-1,101
 292 883 292 883 309 900 c 0,102,103
 318 905 318 905 327 900 c 0,104,105
 349 878 349 878 366.5 845 c 128,-1,106
 384 812 384 812 396 774 c 0,107,108
 404 750 404 750 408 728 c 128,-1,109
 412 706 412 706 414 683 c 1,41,42
EndSplineSet
Validated: 1
EndChar

StartChar: uniE00F
Encoding: 57359 57359 83

Width: 1995
Flags: W
LayerCount: 2
Fore
SplineSet
1022 672 m 1,0,1
 1016 653 1016 653 1012.5 632.5 c 128,-1,2
 1009 612 1009 612 1006.5 593.5 c 128,-1,3
 1004 575 1004 575 1003.5 559 c 128,-1,4
 1003 543 1003 543 1003 532 c 0,5,6
 1003 473 1003 473 1018.5 405 c 128,-1,7
 1034 337 1034 337 1067 279 c 128,-1,8
 1100 221 1100 221 1151.5 182.5 c 128,-1,9
 1203 144 1203 144 1274 144 c 0,10,11
 1328 144 1328 144 1374.5 167.5 c 128,-1,12
 1421 191 1421 191 1458 230.5 c 128,-1,13
 1495 270 1495 270 1523.5 321 c 128,-1,14
 1552 372 1552 372 1571 428 c 128,-1,15
 1590 484 1590 484 1599.5 540 c 128,-1,16
 1609 596 1609 596 1609 645 c 2,17,-1
 1609 683 l 1,18,19
 1531 679 1531 679 1449.5 677.5 c 128,-1,20
 1368 676 1368 676 1280 674 c 0,21,22
 1217 672 1217 672 1152.5 672 c 128,-1,23
 1088 672 1088 672 1022 672 c 1,0,1
300 692 m 1,24,25
 292 672 292 672 287 649 c 128,-1,26
 282 626 282 626 279 604 c 128,-1,27
 276 582 276 582 275 563 c 128,-1,28
 274 544 274 544 274 532 c 0,29,30
 274 473 274 473 289.5 405 c 128,-1,31
 305 337 305 337 338 279 c 128,-1,32
 371 221 371 221 422.5 182.5 c 128,-1,33
 474 144 474 144 545 144 c 0,34,35
 586 144 586 144 622.5 158 c 128,-1,36
 659 172 659 172 690.5 196 c 128,-1,37
 722 220 722 220 748.5 253 c 128,-1,38
 775 286 775 286 796 324 c 1,39,40
 785 371 785 371 785 419 c 0,41,42
 785 485 785 485 804.5 549.5 c 128,-1,43
 824 614 824 614 861 672 c 1,44,45
 780 672 780 672 706.5 672 c 128,-1,46
 633 672 633 672 555 675 c 0,47,48
 530 676 530 676 498 677 c 128,-1,49
 466 678 466 678 432 680 c 128,-1,50
 398 682 398 682 363.5 684.5 c 128,-1,51
 329 687 329 687 300 692 c 1,24,25
1609 879 m 1,52,-1
 1609 1181 l 2,53,54
 1609 1209 1609 1209 1609 1233.5 c 128,-1,55
 1609 1258 1609 1258 1608.5 1282 c 128,-1,56
 1608 1306 1608 1306 1607 1331 c 128,-1,57
 1606 1356 1606 1356 1605 1385 c 0,58,59
 1603 1410 1603 1410 1599.5 1438.5 c 128,-1,60
 1596 1467 1596 1467 1587 1495.5 c 128,-1,61
 1578 1524 1578 1524 1562.5 1550.5 c 128,-1,62
 1547 1577 1547 1577 1523 1599 c 0,63,64
 1519 1602 1519 1602 1517 1607 c 128,-1,65
 1515 1612 1515 1612 1520 1620 c 1,66,67
 1549 1632 1549 1632 1578 1648.5 c 128,-1,68
 1607 1665 1607 1665 1633 1682.5 c 128,-1,69
 1659 1700 1659 1700 1681.5 1718 c 128,-1,70
 1704 1736 1704 1736 1721 1753 c 0,71,72
 1730 1758 1730 1758 1739 1753 c 0,73,74
 1761 1731 1761 1731 1778.5 1698 c 128,-1,75
 1796 1665 1796 1665 1808 1627 c 0,76,77
 1822 1582 1822 1582 1824.5 1541 c 128,-1,78
 1827 1500 1827 1500 1827 1454 c 2,79,-1
 1827 773 l 2,80,81
 1827 709 1827 709 1827 636 c 128,-1,82
 1827 563 1827 563 1831 486.5 c 128,-1,83
 1835 410 1835 410 1844 332.5 c 128,-1,84
 1853 255 1853 255 1872 182.5 c 128,-1,85
 1891 110 1891 110 1920.5 45 c 128,-1,86
 1950 -20 1950 -20 1995 -72 c 1,87,88
 1984 -74 1984 -74 1972.5 -74 c 128,-1,89
 1961 -74 1961 -74 1950 -72 c 0,90,91
 1924 -68 1924 -68 1899 -60 c 128,-1,92
 1874 -52 1874 -52 1848 -42 c 0,93,94
 1816 -29 1816 -29 1784 -13 c 128,-1,95
 1752 3 1752 3 1722 23 c 0,96,97
 1690 45 1690 45 1659 70 c 128,-1,98
 1628 95 1628 95 1607 127 c 0,99,100
 1590 154 1590 154 1590 194 c 1,101,102
 1555 150 1555 150 1510.5 114.5 c 128,-1,103
 1466 79 1466 79 1416 53.5 c 128,-1,104
 1366 28 1366 28 1311 14 c 128,-1,105
 1256 0 1256 0 1201 0 c 0,106,107
 1090 0 1090 0 999.5 49.5 c 128,-1,108
 909 99 909 99 854 184 c 1,109,110
 819 142 819 142 775 108 c 128,-1,111
 731 74 731 74 681.5 50 c 128,-1,112
 632 26 632 26 579 13 c 128,-1,113
 526 0 526 0 472 0 c 0,114,115
 384 0 384 0 308 32 c 128,-1,116
 232 64 232 64 176 120 c 128,-1,117
 120 176 120 176 88 252.5 c 128,-1,118
 56 329 56 329 56 419 c 0,119,120
 56 500 56 500 85.5 577.5 c 128,-1,121
 115 655 115 655 165 718 c 1,122,123
 154 721 154 721 146.5 723.5 c 128,-1,124
 139 726 139 726 131 729 c 0,125,126
 108 738 108 738 89 748.5 c 128,-1,127
 70 759 70 759 59 770 c 0,128,129
 45 793 45 793 34.5 831.5 c 128,-1,130
 24 870 24 870 21.5 909.5 c 128,-1,131
 19 949 19 949 25 982 c 128,-1,132
 31 1015 31 1015 50 1028 c 1,133,134
 102 989 102 989 164.5 961.5 c 128,-1,135
 227 934 227 934 294.5 916 c 128,-1,136
 362 898 362 898 432.5 888 c 128,-1,137
 503 878 503 878 572 874 c 0,138,139
 603 872 603 872 633 871 c 128,-1,140
 663 870 663 870 692 870 c 0,141,142
 740 870 740 870 808.5 870 c 128,-1,143
 877 870 877 870 957 870.5 c 128,-1,144
 1037 871 1037 871 1124.5 871.5 c 128,-1,145
 1212 872 1212 872 1298 873 c 128,-1,146
 1384 874 1384 874 1464 875.5 c 128,-1,147
 1544 877 1544 877 1609 879 c 1,52,-1
EndSplineSet
Validated: 33
EndChar

StartChar: uniE005
Encoding: 57349 57349 84

Width: 2048
Flags: W
LayerCount: 2
Fore
SplineSet
865 188 m 1,0,1
 916 230 916 230 937.5 291.5 c 128,-1,2
 959 353 959 353 959 430 c 0,3,4
 959 488 959 488 943 547 c 128,-1,5
 927 606 927 606 895 652.5 c 128,-1,6
 863 699 863 699 814.5 728.5 c 128,-1,7
 766 758 766 758 700 758 c 0,8,9
 657 758 657 758 618 743 c 128,-1,10
 579 728 579 728 544.5 702.5 c 128,-1,11
 510 677 510 677 481.5 641.5 c 128,-1,12
 453 606 453 606 432 566 c 0,13,14
 413 529 413 529 400 489.5 c 128,-1,15
 387 450 387 450 379.5 410 c 128,-1,16
 372 370 372 370 368.5 331 c 128,-1,17
 365 292 365 292 365 257 c 2,18,-1
 365 188 l 1,19,-1
 865 188 l 1,0,1
1178 578 m 1,20,21
 1189 531 1189 531 1189 483 c 0,22,23
 1189 444 1189 444 1180.5 402.5 c 128,-1,24
 1172 361 1172 361 1156.5 321.5 c 128,-1,25
 1141 282 1141 282 1117.5 247.5 c 128,-1,26
 1094 213 1094 213 1064 188 c 1,27,-1
 1597 188 l 1,28,29
 1648 230 1648 230 1669.5 291.5 c 128,-1,30
 1691 353 1691 353 1691 430 c 0,31,32
 1691 495 1691 495 1676 554.5 c 128,-1,33
 1661 614 1661 614 1629 659 c 128,-1,34
 1597 704 1597 704 1547.5 731 c 128,-1,35
 1498 758 1498 758 1429 758 c 0,36,37
 1388 758 1388 758 1351.5 744 c 128,-1,38
 1315 730 1315 730 1283.5 706 c 128,-1,39
 1252 682 1252 682 1225.5 649 c 128,-1,40
 1199 616 1199 616 1178 578 c 1,20,21
147 327 m 2,41,42
 147 355 147 355 147 379.5 c 128,-1,43
 147 404 147 404 146.5 428 c 128,-1,44
 146 452 146 452 145 477 c 128,-1,45
 144 502 144 502 143 531 c 0,46,47
 141 556 141 556 137.5 584.5 c 128,-1,48
 134 613 134 613 125 641.5 c 128,-1,49
 116 670 116 670 100.5 696.5 c 128,-1,50
 85 723 85 723 61 745 c 0,51,52
 57 748 57 748 55 753 c 128,-1,53
 53 758 53 758 58 766 c 1,54,55
 87 778 87 778 116 794.5 c 128,-1,56
 145 811 145 811 171 828.5 c 128,-1,57
 197 846 197 846 219.5 864 c 128,-1,58
 242 882 242 882 259 899 c 0,59,60
 268 904 268 904 277 899 c 0,61,62
 299 877 299 877 316.5 844 c 128,-1,63
 334 811 334 811 346 773 c 0,64,65
 354 749 354 749 358 727 c 128,-1,66
 362 705 362 705 364 682 c 1,67,-1
 365 682 l 1,68,69
 399 731 399 731 444.5 772 c 128,-1,70
 490 813 490 813 543.5 841.5 c 128,-1,71
 597 870 597 870 655 886 c 128,-1,72
 713 902 713 902 773 902 c 0,73,74
 884 902 884 902 974.5 852.5 c 128,-1,75
 1065 803 1065 803 1120 718 c 1,76,77
 1155 760 1155 760 1199 794 c 128,-1,78
 1243 828 1243 828 1292.5 852 c 128,-1,79
 1342 876 1342 876 1395 889 c 128,-1,80
 1448 902 1448 902 1502 902 c 0,81,82
 1591 902 1591 902 1667 870 c 128,-1,83
 1743 838 1743 838 1799 781.5 c 128,-1,84
 1855 725 1855 725 1887 648.5 c 128,-1,85
 1919 572 1919 572 1919 483 c 0,86,87
 1919 448 1919 448 1912.5 411.5 c 128,-1,88
 1906 375 1906 375 1893 339 c 128,-1,89
 1880 303 1880 303 1861 270 c 128,-1,90
 1842 237 1842 237 1818 211 c 1,91,92
 1872 221 1872 221 1921.5 241.5 c 128,-1,93
 1971 262 1971 262 2013 303 c 1,94,95
 2023 306 2023 306 2028 296 c 1,96,97
 2026 282 2026 282 2023.5 267.5 c 128,-1,98
 2021 253 2021 253 2019 240 c 0,99,100
 2005 162 2005 162 1975 114.5 c 128,-1,101
 1945 67 1945 67 1897.5 41.5 c 128,-1,102
 1850 16 1850 16 1784 8 c 128,-1,103
 1718 0 1718 0 1632 0 c 2,104,-1
 365 0 l 1,105,-1
 365 -601 l 2,106,107
 365 -626 365 -626 371.5 -641.5 c 128,-1,108
 378 -657 378 -657 386.5 -668 c 128,-1,109
 395 -679 395 -679 402 -687.5 c 128,-1,110
 409 -696 409 -696 410 -706 c 0,111,112
 412 -726 412 -726 400 -747.5 c 128,-1,113
 388 -769 388 -769 377 -783 c 0,114,115
 350 -818 350 -818 320.5 -850 c 128,-1,116
 291 -882 291 -882 256 -915 c 0,117,118
 204 -964 204 -964 145.5 -1004.5 c 128,-1,119
 87 -1045 87 -1045 33 -1067 c 0,120,121
 2 -1080 2 -1080 -26 -1085.5 c 128,-1,122
 -54 -1091 -54 -1091 -80 -1086 c 1,123,124
 0 -957 0 -957 45.5 -814 c 128,-1,125
 91 -671 91 -671 113.5 -523.5 c 128,-1,126
 136 -376 136 -376 141.5 -230 c 128,-1,127
 147 -84 147 -84 147 50 c 2,128,-1
 147 327 l 2,41,42
EndSplineSet
Validated: 1
EndChar

StartChar: uniE007
Encoding: 57351 57351 85

Width: 1995
Flags: W
LayerCount: 2
Fore
SplineSet
1022 672 m 1,0,1
 1016 653 1016 653 1012.5 632.5 c 128,-1,2
 1009 612 1009 612 1006.5 593.5 c 128,-1,3
 1004 575 1004 575 1003.5 559 c 128,-1,4
 1003 543 1003 543 1003 532 c 0,5,6
 1003 473 1003 473 1018.5 405 c 128,-1,7
 1034 337 1034 337 1067 279 c 128,-1,8
 1100 221 1100 221 1151.5 182.5 c 128,-1,9
 1203 144 1203 144 1274 144 c 0,10,11
 1328 144 1328 144 1374.5 167.5 c 128,-1,12
 1421 191 1421 191 1458 230.5 c 128,-1,13
 1495 270 1495 270 1523.5 321 c 128,-1,14
 1552 372 1552 372 1571 428 c 128,-1,15
 1590 484 1590 484 1599.5 540 c 128,-1,16
 1609 596 1609 596 1609 645 c 2,17,-1
 1609 683 l 1,18,19
 1531 679 1531 679 1449.5 678 c 128,-1,20
 1368 677 1368 677 1280 674 c 0,21,22
 1217 672 1217 672 1152.5 672 c 128,-1,23
 1088 672 1088 672 1022 672 c 1,0,1
300 692 m 1,24,25
 292 672 292 672 287 649 c 128,-1,26
 282 626 282 626 279 604 c 128,-1,27
 276 582 276 582 275 563 c 128,-1,28
 274 544 274 544 274 532 c 0,29,30
 274 473 274 473 289.5 405 c 128,-1,31
 305 337 305 337 338 279 c 128,-1,32
 371 221 371 221 422.5 182.5 c 128,-1,33
 474 144 474 144 545 144 c 0,34,35
 586 144 586 144 622.5 158 c 128,-1,36
 659 172 659 172 690.5 196 c 128,-1,37
 722 220 722 220 748.5 253 c 128,-1,38
 775 286 775 286 796 324 c 1,39,40
 785 371 785 371 785 419 c 0,41,42
 785 485 785 485 804.5 549.5 c 128,-1,43
 824 614 824 614 861 672 c 1,44,45
 780 672 780 672 706.5 672 c 128,-1,46
 633 672 633 672 555 675 c 0,47,48
 530 676 530 676 498 677 c 128,-1,49
 466 678 466 678 432 680 c 128,-1,50
 398 682 398 682 363.5 684.5 c 128,-1,51
 329 687 329 687 300 692 c 1,24,25
1609 220 m 1,52,53
 1575 170 1575 170 1529.5 129.5 c 128,-1,54
 1484 89 1484 89 1430.5 60.5 c 128,-1,55
 1377 32 1377 32 1319 16 c 128,-1,56
 1261 0 1261 0 1201 0 c 0,57,58
 1090 0 1090 0 999.5 49.5 c 128,-1,59
 909 99 909 99 854 184 c 1,60,61
 819 142 819 142 775 108 c 128,-1,62
 731 74 731 74 681.5 50 c 128,-1,63
 632 26 632 26 579 13 c 128,-1,64
 526 0 526 0 472 0 c 0,65,66
 384 0 384 0 308 32 c 128,-1,67
 232 64 232 64 176 120 c 128,-1,68
 120 176 120 176 88 252.5 c 128,-1,69
 56 329 56 329 56 419 c 0,70,71
 56 500 56 500 85.5 577.5 c 128,-1,72
 115 655 115 655 165 718 c 1,73,74
 154 721 154 721 146.5 723.5 c 128,-1,75
 139 726 139 726 131 729 c 0,76,77
 108 738 108 738 89 748.5 c 128,-1,78
 70 759 70 759 59 770 c 0,79,80
 45 793 45 793 34.5 831.5 c 128,-1,81
 24 870 24 870 21.5 909.5 c 128,-1,82
 19 949 19 949 25 982 c 128,-1,83
 31 1015 31 1015 50 1028 c 1,84,85
 102 989 102 989 164.5 961.5 c 128,-1,86
 227 934 227 934 294.5 916 c 128,-1,87
 362 898 362 898 432.5 888 c 128,-1,88
 503 878 503 878 572 874 c 0,89,90
 603 872 603 872 633 871 c 128,-1,91
 663 870 663 870 692 870 c 0,92,93
 740 870 740 870 813 870 c 128,-1,94
 886 870 886 870 972.5 870.5 c 128,-1,95
 1059 871 1059 871 1152 871.5 c 128,-1,96
 1245 872 1245 872 1332.5 873 c 128,-1,97
 1420 874 1420 874 1495.5 875.5 c 128,-1,98
 1571 877 1571 877 1622 880 c 0,99,100
 1693 884 1693 884 1758 887 c 128,-1,101
 1823 890 1823 890 1880 899 c 0,102,103
 1885 900 1885 900 1890 900.5 c 128,-1,104
 1895 901 1895 901 1900 901 c 0,105,106
 1911 895 1911 895 1916.5 881.5 c 128,-1,107
 1922 868 1922 868 1917 851 c 1,108,109
 1894 825 1894 825 1879.5 808 c 128,-1,110
 1865 791 1865 791 1852 764 c 0,111,112
 1841 741 1841 741 1834 709 c 128,-1,113
 1827 677 1827 677 1827 632 c 2,114,-1
 1827 -601 l 2,115,116
 1827 -626 1827 -626 1833.5 -641.5 c 128,-1,117
 1840 -657 1840 -657 1848.5 -668 c 128,-1,118
 1857 -679 1857 -679 1864 -687.5 c 128,-1,119
 1871 -696 1871 -696 1872 -706 c 0,120,121
 1874 -726 1874 -726 1862 -747.5 c 128,-1,122
 1850 -769 1850 -769 1839 -783 c 0,123,124
 1812 -818 1812 -818 1782.5 -850 c 128,-1,125
 1753 -882 1753 -882 1718 -915 c 0,126,127
 1666 -964 1666 -964 1607.5 -1004.5 c 128,-1,128
 1549 -1045 1549 -1045 1495 -1067 c 0,129,130
 1464 -1080 1464 -1080 1436 -1085.5 c 128,-1,131
 1408 -1091 1408 -1091 1382 -1086 c 1,132,133
 1462 -957 1462 -957 1507.5 -814 c 128,-1,134
 1553 -671 1553 -671 1575.5 -523.5 c 128,-1,135
 1598 -376 1598 -376 1603.5 -230 c 128,-1,136
 1609 -84 1609 -84 1609 50 c 2,137,-1
 1609 220 l 1,52,53
EndSplineSet
Validated: 33
EndChar

